<svg fill="none" xmlns="http://www.w3.org/2000/svg" viewBox="0 0 686 290" class="design-iconfont">
  <path d="M0 24C0 10.7452 10.7452 0 24 0H662C675.255 0 686 10.7452 686 24V266C686 279.255 675.255 290 662 290H24C10.7452 290 0 279.255 0 266V24Z" fill="#5B2FFA"/>
  <mask id="yrz83q4sg__lmvh9kccga" style="mask-type:alpha" maskUnits="userSpaceOnUse" x="0" y="0" width="686" height="290">
    <path d="M0 24C0 10.7452 10.7452 0 24 0H662C675.255 0 686 10.7452 686 24V266C686 279.255 675.255 290 662 290H24C10.7452 290 0 279.255 0 266V24Z" fill="#5B2FFA"/>
  </mask>
  <g mask="url(#yrz83q4sg__lmvh9kccga)">
    <mask id="yrz83q4sg__5wmbncm56b" style="mask-type:alpha" maskUnits="userSpaceOnUse" x="0" y="10" width="686" height="290">
      <path d="M0 34C0 20.7452 10.7452 10 24 10H662C675.255 10 686 20.7452 686 34V276C686 289.255 675.255 300 662 300H24C10.7452 300 0 289.255 0 276V34Z" fill="#D3C8FF"/>
    </mask>
    <g mask="url(#yrz83q4sg__5wmbncm56b)" fill="#8D6DFF" fill-opacity=".2">
      <path d="M-109.577 68.2293C-105.721 60.9816 -93.7954 56.2911 -83.2082 52.58C-69.6282 47.7893 -55.7363 43.4436 -41.6094 39.5669C-13.837 31.9791 14.9605 26.3155 43.6314 23.7071C99.5588 18.6179 149.493 28.6807 204.34 26.7395C254.507 24.9854 306.082 14.2045 353.336 -2.08112C377.258 -10.3583 400.147 -19.9668 421.621 -30.7459C444.446 -42.1439 464.515 -54.9794 484.92 -67.8914C506.606 -81.6145 529.858 -93.6297 556.859 -102.997C582.927 -112.029 610.632 -118.562 638.4 -123.145C645.548 -124.328 652.686 -125.369 659.841 -126.314C660.892 -126.452 661.056 -127.42 659.992 -127.279C605.531 -120.141 549.693 -106.024 505.278 -81.3437C482.531 -68.6983 462.851 -54.283 440.075 -41.6389C418.558 -29.6742 395.36 -18.8984 370.894 -9.50352C322.586 9.00838 268.96 21.9317 216.13 25.207C160.199 28.6675 109.745 18.2338 53.7775 21.9277C25.5625 23.7884 -3.01865 28.7354 -30.6574 35.6953C-44.3662 39.1593 -57.8785 43.0818 -71.1198 47.4412C-82.0532 51.0215 -94.3212 54.719 -103.241 60.3247C-106.892 62.575 -109.63 65.2583 -111.16 68.0849C-111.489 68.7106 -109.948 68.8492 -109.62 68.2236L-109.577 68.2293Z"/>
      <path d="M-104.637 83.821C-100.808 76.5793 -88.8516 71.8973 -78.269 68.1718C-64.6889 63.3811 -50.797 59.0353 -36.6701 55.1587C-8.89777 47.5709 19.8998 41.9073 48.5707 39.2989C104.498 34.2096 154.433 44.2725 209.279 42.3313C259.446 40.5771 311.021 29.7963 358.275 13.5106C382.2 5.23643 405.09 -4.3723 426.561 -15.1542C449.385 -26.5521 469.454 -39.3877 489.859 -52.2996C511.545 -66.0228 534.797 -78.0379 561.798 -87.4057C587.866 -96.4372 615.573 -102.963 643.339 -107.553C650.487 -108.737 657.625 -109.778 664.783 -110.715C665.833 -110.853 665.995 -111.828 664.932 -111.687C610.471 -104.549 554.632 -90.4322 510.218 -65.752C487.47 -53.1066 467.793 -38.684 445.017 -26.0399C423.518 -14.0654 400.339 -3.27578 375.891 6.13732C327.582 24.6492 273.957 37.5725 221.126 40.8479C165.195 44.3083 114.744 33.8819 58.7739 37.5685C30.5589 39.4292 1.97774 44.3763 -25.661 51.3361C-39.3728 54.7854 -52.8897 58.6934 -66.1372 63.0386C-77.0683 66.6262 -89.3385 70.3164 -98.2564 75.9293C-101.91 78.1757 -104.65 80.8571 -106.178 83.6824C-106.506 84.308 -104.966 84.4466 -104.637 83.821Z"/>
      <path d="M-99.6975 99.4128C-95.8655 92.1783 -83.9094 87.4963 -73.3268 83.7708C-59.7511 78.9735 -45.8584 74.6275 -31.7279 70.7576C-3.95788 63.1627 24.8397 57.499 53.5105 54.8906C109.438 49.8014 159.375 59.8715 214.219 57.923C264.386 56.1689 315.961 45.388 363.215 29.1024C387.157 20.842 410.065 11.2421 431.551 0.464956C454.375 -10.933 474.446 -23.7613 494.849 -36.6805C516.535 -50.4036 539.788 -62.4188 566.791 -71.7793C592.859 -80.8109 620.563 -87.3434 648.329 -91.9343C655.478 -93.1175 662.615 -94.1586 669.773 -95.0954C670.823 -95.2335 670.985 -96.2092 669.922 -96.0682C615.463 -88.9229 559.622 -74.8131 515.208 -50.1329C492.46 -37.4874 472.783 -23.0648 450.007 -10.4208C428.483 1.53874 405.286 12.314 380.826 21.7146C332.517 40.2265 278.89 53.1426 226.059 56.4179C170.128 59.8784 119.677 49.452 63.7092 53.1458C35.4942 55.0065 6.91075 59.9463 -20.7257 66.9134C-34.4334 70.3785 -47.9461 74.2984 -61.1904 78.6521C-72.1215 82.2396 -84.3918 85.9299 -93.3096 91.5428C-96.9632 93.7891 -99.7029 96.4706 -101.231 99.2958C-101.559 99.9214 -100.019 100.06 -99.6906 99.4345L-99.6975 99.4128Z"/>
      <path d="M-94.7551 115.012C-90.8995 107.764 -78.9693 103.088 -68.3752 99.3987C-54.7952 94.6079 -40.9032 90.2622 -26.7763 86.3855C0.99371 78.7906 29.7936 73.1342 58.4621 70.5185C114.39 65.4293 164.326 75.4994 219.17 73.5509C269.335 71.7895 320.913 61.0159 368.164 44.723C392.092 36.4519 414.982 26.8429 436.45 16.0582C459.274 4.66028 479.345 -8.16804 499.748 -21.0872C521.434 -34.8104 544.687 -46.8256 571.69 -56.1861C597.758 -65.2176 625.462 -71.7502 653.228 -76.3411C660.377 -77.5242 667.515 -78.5653 674.672 -79.5022C675.723 -79.6402 675.887 -80.6088 674.823 -80.4678C620.362 -73.3297 564.521 -59.2198 520.107 -34.5396C497.359 -21.8942 477.682 -7.47158 454.906 5.17247C433.394 17.121 410.206 27.8817 385.752 37.2629C337.444 55.7748 283.818 68.6981 230.985 71.9662C175.057 75.4338 124.603 65.0002 68.6356 68.6941C40.4206 70.5548 11.8394 75.5018 -15.7993 82.4616C-29.5071 85.9267 -43.0198 89.8467 -56.264 94.2004C-67.1952 97.7879 -79.4654 101.478 -88.3833 107.091C-92.0329 109.339 -94.7717 112.02 -96.3045 114.844C-96.6328 115.47 -95.0903 115.616 -94.762 114.99L-94.7551 115.012Z"/>
      <path d="M-89.817 130.603C-85.9873 123.362 -74.0312 118.68 -63.4486 114.954C-49.8686 110.163 -35.9766 105.818 -21.8497 101.941C5.92259 94.3534 34.7201 88.6898 63.391 86.0813C119.318 80.9921 169.253 91.0549 224.099 89.1137C274.264 87.3523 325.842 76.5787 373.096 60.2931C397.02 52.0163 419.909 42.4052 441.379 31.621C464.203 20.2231 484.274 7.39477 504.679 -5.5172C526.363 -19.2476 549.618 -31.2555 576.618 -40.6233C602.687 -49.6548 630.391 -56.1874 658.157 -60.7783C665.306 -61.9614 672.446 -62.9953 679.601 -63.9394C680.651 -64.0774 680.816 -65.046 679.752 -64.905C625.291 -57.7669 569.453 -43.6498 525.038 -18.9695C502.288 -6.33136 482.611 8.09121 459.835 20.7353C438.318 32.7 415.12 43.4758 390.654 52.8706C342.345 71.3825 288.72 84.3058 235.889 87.5812C179.959 91.0417 129.505 80.608 73.5372 84.3019C45.3222 86.1626 16.741 91.1096 -10.8977 98.0695C-24.6066 101.534 -38.1189 105.456 -51.3601 109.815C-62.2502 113.401 -74.5205 117.092 -83.3996 122.696C-87.0503 124.946 -89.7884 127.629 -91.3185 130.456C-91.6468 131.082 -90.1066 131.22 -89.7783 130.595L-89.817 130.603Z"/>
      <path d="M-84.8766 146.195C-81.021 138.947 -69.0908 134.271 -58.5151 130.524C-44.935 125.733 -31.0431 121.388 -16.9162 117.511C10.8561 109.923 39.6537 104.26 68.3246 101.651C124.252 96.562 174.186 106.625 229.033 104.684C279.2 102.929 330.775 92.1486 378.029 75.863C401.951 67.5858 424.841 57.9773 446.314 47.1982C469.139 35.8002 489.208 22.9647 509.613 10.0527C531.299 -3.67042 554.551 -15.6856 581.552 -25.0533C607.62 -34.0849 635.325 -40.6174 663.093 -45.2011C670.241 -46.3843 677.379 -47.4254 684.536 -48.3622C685.587 -48.5003 685.749 -49.4761 684.686 -49.3351C630.225 -42.197 574.386 -28.0799 529.972 -3.39963C507.224 9.24579 487.544 23.6611 464.771 36.3124C443.249 48.2723 420.051 59.0454 395.587 68.4406C347.279 86.9525 293.653 99.8758 240.823 103.151C184.892 106.612 134.441 96.1852 78.4707 99.8718C50.2557 101.733 21.6745 106.68 -5.9642 113.639C-19.6558 117.121 -33.149 121.06 -46.3695 125.434C-57.3029 129.015 -69.5709 132.712 -78.4888 138.325C-82.1454 140.57 -84.8856 143.252 -86.41 146.078C-86.7383 146.704 -85.198 146.842 -84.8697 146.217L-84.8766 146.195Z"/>
      <path d="M-79.9402 161.78C-76.1105 154.538 -64.1544 149.856 -53.5718 146.13C-39.9929 141.339 -26.0999 136.995 -11.9706 133.124C15.7994 125.529 44.5969 119.866 73.2678 117.257C129.195 112.168 179.132 122.238 233.976 120.29C284.143 118.536 335.718 107.755 382.972 91.4691C406.897 83.1949 429.787 73.5862 451.258 62.8043C474.082 51.4063 494.151 38.5708 514.556 25.6589C536.242 11.9357 559.495 -0.0794558 586.495 -9.44721C612.563 -18.4788 640.27 -25.0041 668.036 -29.595C675.185 -30.7781 682.323 -31.8193 689.48 -32.7561C690.531 -32.8941 690.693 -33.8699 689.629 -33.7289C635.17 -26.5836 579.329 -12.4737 534.915 12.2065C512.167 24.8519 492.49 39.2745 469.714 51.9185C448.193 63.8784 424.994 74.6516 400.531 84.0467C352.225 102.566 298.597 115.482 245.766 118.757C189.835 122.218 139.384 111.791 83.414 115.478C55.199 117.339 26.6178 122.286 -1.02094 129.246C-14.7287 132.711 -28.2414 136.631 -41.4856 140.984C-52.4168 144.572 -64.687 148.262 -73.6049 153.875C-77.2585 156.121 -79.9981 158.803 -81.5261 161.628C-81.8544 162.254 -80.3142 162.392 -79.9859 161.767L-79.9402 161.78Z"/>
      <path d="M-74.9985 177.378C-71.1665 170.144 -59.2104 165.462 -48.6277 161.736C-35.0499 156.942 -21.1576 152.597 -7.0289 148.723C20.7411 141.128 49.5387 135.465 78.2095 132.856C134.137 127.767 184.074 137.837 238.918 135.889C289.083 134.127 340.66 123.354 387.912 107.061C411.839 98.7896 434.73 89.1807 456.197 78.396C479.022 66.998 499.093 54.1697 519.496 41.2505C541.182 27.5274 564.434 15.5122 591.437 6.15169C617.505 -2.87985 645.21 -9.4124 672.976 -14.0033C680.124 -15.1865 687.262 -16.2276 694.419 -17.1644C695.47 -17.3025 695.634 -18.271 694.568 -18.1372C640.11 -10.9919 584.269 3.11792 539.854 27.7982C517.106 40.4436 497.429 54.8662 474.653 67.5102C453.133 79.4723 429.936 90.2479 405.472 99.6456C357.164 118.158 303.538 131.081 250.706 134.349C194.777 137.817 144.323 127.383 88.3557 131.077C60.1407 132.938 31.5572 137.877 3.9208 144.844C-9.78692 148.309 -23.2996 152.229 -36.5439 156.583C-47.475 160.171 -59.7453 163.861 -68.6632 169.474C-72.3128 171.722 -75.0516 174.402 -76.5844 177.227C-76.9127 177.852 -75.3724 177.991 -75.0441 177.366L-74.9985 177.378Z"/>
      <path d="M-70.0565 192.977C-66.2267 185.736 -54.2706 181.054 -43.688 177.328C-30.108 172.537 -16.2161 168.192 -2.08917 164.315C25.6832 156.727 54.4807 151.064 83.1493 148.448C139.077 143.359 189.013 153.429 243.858 151.48C294.023 149.719 345.6 138.945 392.854 122.66C416.778 114.383 439.667 104.772 461.137 93.9878C483.961 82.5898 504.033 69.7615 524.435 56.8423C546.122 43.1191 569.374 31.104 596.377 21.7435C622.445 12.7119 650.15 6.17937 677.915 1.58847C685.064 0.405306 692.202 -0.635811 699.359 -1.57263C700.41 -1.71069 700.574 -2.67925 699.51 -2.53825C645.049 4.59983 589.209 18.7097 544.796 43.3972C522.046 56.0354 502.369 70.4579 479.593 83.102C458.076 95.0667 434.878 105.843 410.412 115.237C362.104 133.749 308.478 146.673 255.645 149.941C199.765 153.429 149.318 143.017 93.3434 146.689C65.1284 148.549 36.5472 153.496 8.90848 160.456C-4.79925 163.921 -18.312 167.841 -31.5562 172.195C-42.4874 175.783 -54.7576 179.473 -63.6755 185.086C-67.3262 187.336 -70.0643 190.019 -71.5944 192.846C-71.925 193.464 -70.3825 193.61 -70.0542 192.985L-70.0565 192.977Z"/>
      <path d="M-65.1176 208.569C-61.262 201.322 -49.3318 196.646 -38.7492 192.92C-25.1692 188.129 -11.2772 183.783 2.84966 179.907C30.622 172.319 59.4196 166.655 88.0904 164.047C144.018 158.958 193.952 169.021 248.799 167.079C298.964 165.318 350.541 154.544 397.795 138.259C421.717 129.982 444.606 120.373 466.08 109.594C488.905 98.196 508.974 85.3605 529.379 72.4485C551.065 58.7254 574.317 46.7102 601.318 37.3424C627.386 28.3109 655.091 21.7784 682.856 17.1875C690.007 16.0115 697.145 14.9704 704.3 14.0264C705.351 13.8883 705.515 12.9198 704.451 13.0608C649.991 20.1988 594.152 34.3159 549.737 58.9962C526.987 71.6344 507.31 86.0569 484.534 98.701C463.017 110.666 439.819 121.442 415.353 130.836C367.045 149.348 313.419 162.272 260.589 165.547C204.658 169.007 154.204 158.574 98.2366 162.268C70.0216 164.128 41.4404 169.075 13.8017 176.035C0.0928472 179.499 -13.4195 183.422 -26.6607 187.781C-37.5942 191.361 -49.8644 195.052 -58.7823 200.665C-62.4188 202.917 -65.1425 205.6 -66.6602 208.423C-66.9885 209.049 -65.4482 209.188 -65.1199 208.562L-65.1176 208.569Z"/>
      <path d="M-60.1777 224.161C-56.3153 216.935 -44.3919 212.237 -33.8093 208.512C-20.2293 203.721 -6.33734 199.375 7.78956 195.498C35.5619 187.911 64.3594 182.247 93.0303 179.639C148.958 174.549 198.892 184.612 253.739 182.671C303.906 180.917 355.481 170.136 402.735 153.85C426.66 145.576 449.549 135.967 471.02 125.186C493.845 113.788 513.914 100.952 534.319 88.0401C556.005 74.317 579.257 62.3018 606.258 52.9341C632.326 43.9025 660.031 37.37 687.799 32.7863C694.947 31.6031 702.085 30.562 709.242 29.6252C710.293 29.4871 710.455 28.5113 709.391 28.6524C654.93 35.7904 599.092 49.9075 554.677 74.5878C531.929 87.2332 512.25 101.649 489.476 114.3C467.955 126.26 444.757 137.033 420.293 146.428C371.985 164.94 318.359 177.863 265.529 181.139C209.598 184.599 159.146 174.173 103.176 177.859C74.9615 179.72 46.3803 184.667 18.7416 191.627C5.03223 195.088 -8.48087 199.008 -21.7231 203.365C-32.6566 206.946 -44.9245 210.643 -53.8424 216.256C-57.496 218.503 -60.2356 221.184 -61.7636 224.009C-62.0919 224.635 -60.5517 224.773 -60.2234 224.148L-60.1777 224.161Z"/>
      <path d="M-55.2381 239.753C-51.3825 232.505 -39.4477 227.843 -28.8673 224.111C-15.2917 219.313 -1.39902 214.967 12.7315 211.097C40.5015 203.502 69.2991 197.839 97.9699 195.23C153.897 190.141 203.834 200.211 258.678 198.263C308.846 196.509 360.421 185.728 407.675 169.442C431.602 161.171 454.492 151.562 475.96 140.777C498.784 129.379 518.856 116.551 539.258 103.632C560.944 89.9087 584.197 77.8936 611.197 68.5258C637.265 59.4943 664.973 52.9689 692.738 48.378C699.887 47.1949 707.025 46.1538 714.182 45.2169C715.233 45.0789 715.395 44.1031 714.331 44.2441C659.872 51.3894 604.032 65.4993 559.617 90.1796C536.869 102.825 517.192 117.248 494.416 129.892C472.895 141.851 449.696 152.625 425.233 162.02C376.927 180.539 323.299 193.455 270.468 196.73C214.537 200.191 164.086 189.764 108.116 193.451C79.9034 195.319 51.3199 200.259 23.6812 207.219C9.97348 210.684 -3.53923 214.604 -16.7835 218.957C-27.7146 222.545 -39.9849 226.235 -48.9028 231.848C-52.5563 234.094 -55.296 236.776 -56.824 239.601C-57.1523 240.227 -55.612 240.365 -55.2837 239.74L-55.2381 239.753Z"/>
      <path d="M-50.2967 255.351C-46.4669 248.11 -34.5108 243.428 -23.9282 239.702C-10.3504 234.908 3.54192 230.562 17.6706 226.689C45.4407 219.094 74.2405 213.438 102.909 210.822C158.836 205.733 208.773 215.803 263.617 213.854C313.782 212.093 365.36 201.319 412.611 185.027C436.539 176.755 459.429 167.146 480.897 156.362C503.721 144.964 523.792 132.136 544.195 119.216C565.881 105.493 589.134 93.478 616.137 84.1175C642.205 75.086 669.909 68.5534 697.675 63.9625C704.824 62.7793 711.962 61.7382 719.119 60.8014C720.17 60.6633 720.334 59.6948 719.27 59.8358C664.809 66.9739 608.968 81.0837 564.554 105.764C541.806 118.409 522.129 132.832 499.353 145.476C477.836 157.441 454.638 168.217 430.172 177.611C381.864 196.123 328.238 209.047 275.405 212.315C219.477 215.782 169.023 205.349 113.055 209.043C84.8402 210.903 56.2568 215.843 28.6203 222.81C14.9126 226.275 1.3999 230.195 -11.8444 234.549C-22.7755 238.136 -35.0458 241.827 -43.9636 247.44C-47.6132 249.688 -50.352 252.368 -51.8849 255.193C-52.2132 255.818 -50.6729 255.957 -50.3423 255.339L-50.2967 255.351Z"/>
      <path d="M-45.3574 270.943C-41.5277 263.701 -29.5716 259.019 -18.9889 255.294C-5.40893 250.503 8.483 246.157 22.6099 242.281C50.3822 234.693 79.1798 229.029 107.851 226.421C163.776 221.325 213.712 231.395 268.559 229.453C318.724 227.692 370.301 216.918 417.555 200.633C441.48 192.356 464.369 182.745 485.838 171.961C508.663 160.563 528.734 147.734 549.139 134.822C570.823 121.092 594.077 109.084 621.078 99.7164C647.146 90.6849 674.851 84.1523 702.617 79.5614C709.765 78.3782 716.903 77.3371 724.06 76.4003C725.111 76.2623 725.275 75.2937 724.212 75.4347C669.751 82.5728 613.91 96.6826 569.498 121.37C546.747 134.008 527.07 148.431 504.294 161.075C482.778 173.04 459.579 183.815 435.113 193.21C386.805 211.722 333.179 224.646 280.347 227.914C224.418 231.381 173.964 220.948 117.997 224.642C89.7818 226.502 61.2006 231.449 33.5619 238.409C19.8531 241.873 6.34075 245.796 -6.9005 250.155C-17.8339 253.735 -30.1042 257.426 -39.0221 263.039C-42.6728 265.289 -45.4109 267.972 -46.941 270.799C-47.2716 271.417 -45.7291 271.563 -45.4008 270.937L-45.3574 270.943Z"/>
      <path d="M-40.4191 286.535C-36.5894 279.293 -24.6333 274.611 -14.0507 270.886C-0.470637 266.095 13.4213 261.749 27.5482 257.873C55.3205 250.285 84.1181 244.621 112.789 242.013C168.716 236.924 218.651 246.986 273.497 245.045C323.665 243.291 375.24 232.51 422.494 216.225C446.416 207.947 469.305 198.339 490.779 187.56C513.603 176.162 533.672 163.326 554.077 150.414C575.763 136.691 599.016 124.676 626.016 115.308C652.084 106.277 679.789 99.7441 707.557 95.1605C714.706 93.9773 721.844 92.9362 728.999 91.9921C730.049 91.8541 730.214 90.8855 729.15 91.0265C674.689 98.1646 618.851 112.282 574.436 136.962C551.688 149.607 532.009 164.023 509.233 176.667C487.732 188.634 464.549 199.414 440.097 208.815C391.789 227.327 338.163 240.25 285.333 243.526C229.402 246.986 178.948 236.552 122.981 240.246C94.7658 242.107 66.1846 247.054 38.5459 254.014C24.837 257.478 11.3247 261.4 -1.91655 265.76C-12.8523 269.333 -25.1202 273.03 -34.0108 278.598C-37.6615 280.849 -40.3996 283.532 -41.9298 286.359C-42.2581 286.984 -40.7178 287.123 -40.3895 286.497L-40.4191 286.535Z"/>
      <path d="M-35.4792 302.127C-31.6495 294.885 -19.6934 290.203 -9.11076 286.477C4.46926 281.687 18.3612 277.341 32.4881 273.464C60.2604 265.877 89.058 260.213 117.729 257.604C173.656 252.515 223.591 262.578 278.437 260.637C328.65 258.896 380.29 248.1 427.488 231.858C451.411 223.567 474.296 213.941 495.757 203.143C518.582 191.745 538.651 178.909 559.056 165.997C580.742 152.274 603.994 140.259 630.995 130.891C657.063 121.86 684.77 115.334 712.536 110.743C719.684 109.56 726.822 108.519 733.979 107.582C735.03 107.444 735.192 106.468 734.129 106.609C679.668 113.747 623.829 127.865 579.415 152.545C556.667 165.19 536.987 179.606 514.214 192.257C492.692 204.217 469.494 214.99 445.03 224.385C396.722 242.897 343.096 255.82 290.266 259.096C234.335 262.556 183.884 252.13 127.914 255.816C99.6988 257.677 71.1176 262.624 43.4789 269.584C29.7695 273.045 16.2564 276.965 3.01416 281.322C-7.91699 284.91 -20.1872 288.6 -29.1051 294.213C-32.7587 296.46 -35.4983 299.141 -37.0263 301.966C-37.3546 302.592 -35.8144 302.73 -35.4861 302.105L-35.4792 302.127Z"/>
      <path d="M-30.5391 317.718C-26.6812 310.478 -14.7533 305.795 -4.16837 302.076C9.40726 297.279 23.3 292.933 37.4305 289.063C65.2005 281.468 93.9981 275.805 122.669 273.196C178.596 268.107 228.533 278.177 283.377 276.228C333.544 274.474 385.119 263.693 432.374 247.408C456.301 239.137 479.191 229.528 500.659 218.743C523.483 207.345 543.555 194.517 563.957 181.598C585.643 167.874 608.896 155.859 635.899 146.499C661.967 137.467 689.672 130.935 717.437 126.344C724.586 125.161 731.724 124.119 738.881 123.183C739.932 123.045 740.094 122.069 739.03 122.21C684.571 129.355 628.731 143.465 584.316 168.145C561.568 180.791 541.891 195.213 519.115 207.857C497.591 219.817 474.394 230.592 449.934 239.993C401.626 258.505 347.998 271.421 295.167 274.696C239.236 278.156 188.785 267.73 132.817 271.424C104.602 273.285 76.0189 278.224 48.3825 285.191C34.6748 288.657 21.162 292.577 7.91778 296.93C-3.01337 300.518 -15.2836 304.208 -24.2015 309.821C-27.8551 312.067 -30.5947 314.749 -32.1227 317.574C-32.451 318.2 -30.9108 318.338 -30.5825 317.713L-30.5391 317.718Z"/>
      <path d="M-25.5935 333.332C-21.7638 326.09 -9.80772 321.408 0.774897 317.683C14.3549 312.892 28.2468 308.546 42.3737 304.669C70.1438 297.074 98.9436 291.418 127.612 288.802C183.54 283.713 233.476 293.783 288.32 291.835C338.538 290.108 390.171 279.291 437.349 262.984C461.276 254.712 484.166 245.103 505.634 234.319C528.458 222.921 548.53 210.093 568.933 197.173C590.619 183.45 613.871 171.435 640.874 162.074C666.942 153.043 694.647 146.51 722.412 141.92C729.561 140.736 736.699 139.695 743.856 138.758C744.907 138.62 745.071 137.652 744.007 137.793C689.546 144.931 633.706 159.041 589.291 183.721C566.543 196.366 546.866 210.789 524.09 223.433C502.573 235.398 479.375 246.174 454.909 255.568C406.601 274.08 352.975 287.004 300.142 290.272C244.214 293.739 193.76 283.306 137.793 287C109.578 288.86 80.9964 293.807 53.3576 300.767C39.6499 304.232 26.1372 308.152 12.8929 312.506C1.96179 316.093 -10.3084 319.784 -19.2263 325.397C-22.8759 327.645 -25.6147 330.325 -27.1476 333.15C-27.4759 333.775 -25.9356 333.914 -25.605 333.296L-25.5935 333.332Z"/>
    </g>
    <path d="M621.209 47H567.649C566.068 47 564.636 47.931 563.994 49.3755L531.5 122.491C530.324 125.136 532.26 128.116 535.155 128.116L561.05 128.116C563.259 128.116 565.05 129.907 565.05 132.116V166.05C565.05 169.779 569.704 171.479 572.108 168.628L622.454 108.909C624.647 106.308 622.798 102.331 619.396 102.331H604.121C601.073 102.331 599.145 99.0575 600.623 96.3914L624.708 52.9392C626.186 50.2731 624.258 47 621.209 47Z" fill="url(#yrz83q4sg__paint0_linear_4952_31129)"/>
    <path d="M623.209 52H569.649C568.068 52 566.636 52.931 565.994 54.3755L533.5 127.491C532.324 130.136 534.26 133.116 537.155 133.116L563.05 133.116C565.259 133.116 567.05 134.907 567.05 137.116V171.05C567.05 174.779 571.704 176.479 574.108 173.628L624.454 113.909C626.647 111.308 624.798 107.331 621.396 107.331H606.121C603.073 107.331 601.145 104.057 602.623 101.391L626.708 57.9392C628.186 55.2731 626.258 52 623.209 52Z" fill="url(#yrz83q4sg__paint1_linear_4952_31129)" fill-opacity=".2"/>
    <path d="M627.639 18.45H641.833C648.553 18.45 654 23.957 654 30.75V88.15C654 94.943 648.553 100.45 641.833 100.45H627.639V123H615.472V100.45H601.278C594.558 100.45 589.111 94.943 589.111 88.15V30.75C589.111 23.957 594.558 18.45 601.278 18.45H615.472V0H627.639V18.45ZM546.528 59.45H560.722C567.442 59.45 572.889 64.957 572.889 71.75V133.25C572.889 140.043 567.442 145.55 560.722 145.55H546.528V164H534.361V145.55H520.167C513.447 145.55 508 140.043 508 133.25V71.75C508 64.957 513.447 59.45 520.167 59.45H534.361V41H546.528V59.45ZM520.167 71.75V133.25H560.722V71.75H520.167ZM601.278 30.75V88.15H641.833V30.75H601.278Z" fill="url(#yrz83q4sg__paint2_linear_4952_31129)" fill-opacity=".05"/>
  </g>
  <path d="M603.206 149.6L600.006 144.8H632.006V152.864C632.006 153.717 631.697 154.453 631.078 155.072C630.46 155.691 629.734 156 628.902 156H608.006V157.632C608.006 158.059 608.156 158.432 608.454 158.752C608.774 159.051 609.148 159.2 609.574 159.2H628.806L632.006 164H603.142C602.31 164 601.574 163.691 600.934 163.072C600.316 162.432 600.006 161.696 600.006 160.864V152.8H622.438C622.865 152.8 623.228 152.64 623.526 152.32C623.846 152 624.006 151.637 624.006 151.232V149.6H603.206Z" fill="#7859EC"/>
  <path d="M601.206 146.6L598.006 141.8H630.006V149.864C630.006 150.717 629.697 151.453 629.078 152.072C628.46 152.691 627.734 153 626.902 153H606.006V154.632C606.006 155.059 606.156 155.432 606.454 155.752C606.774 156.051 607.148 156.2 607.574 156.2H626.806L630.006 161H601.142C600.31 161 599.574 160.691 598.934 160.072C598.316 159.432 598.006 158.696 598.006 157.864V149.8H620.438C620.865 149.8 621.228 149.64 621.526 149.32C621.846 149 622.006 148.637 622.006 148.232V146.6H601.206Z" fill="#A48CFD"/>
  <defs>
    <linearGradient id="yrz83q4sg__paint0_linear_4952_31129" x1="578.5" y1="47" x2="575.818" y2="188.818" gradientUnits="userSpaceOnUse">
      <stop stop-color="#D4C9FF"/>
      <stop offset="1" stop-color="#E9E3FF" stop-opacity="0"/>
      <stop offset="1" stop-color="#E9E3FF"/>
    </linearGradient>
    <linearGradient id="yrz83q4sg__paint1_linear_4952_31129" x1="580.5" y1="52" x2="580.5" y2="255.058" gradientUnits="userSpaceOnUse">
      <stop stop-color="#D4C9FF"/>
      <stop offset="1" stop-color="#E9E3FF" stop-opacity="0"/>
      <stop offset="1" stop-color="#EBE5FF"/>
    </linearGradient>
    <linearGradient id="yrz83q4sg__paint2_linear_4952_31129" x1="511.894" y1="164.354" x2="647.028" y2="-1.51321" gradientUnits="userSpaceOnUse">
      <stop stop-color="#DBD1FF"/>
      <stop offset="1" stop-color="#EBE5FF"/>
    </linearGradient>
  </defs>
</svg>
