<svg fill="none" xmlns="http://www.w3.org/2000/svg" viewBox="0 0 90 90" class="design-iconfont">
  <rect x="1" y="1" width="88" height="88" rx="16" fill="#2F9BFA"/>
  <path d="M63.5278 22.2H69.1667C71.836 22.2 74 24.3491 74 27V49.4C74 52.0509 71.836 54.2 69.1667 54.2H63.5278V63H58.6944V54.2H53.0556C50.3862 54.2 48.2222 52.0509 48.2222 49.4V27C48.2222 24.3491 50.3862 22.2 53.0556 22.2H58.6944V15H63.5278V22.2ZM31.3056 38.2H36.9444C39.6138 38.2 41.7778 40.3491 41.7778 43V67C41.7778 69.6509 39.6138 71.8 36.9444 71.8H31.3056V79H26.4722V71.8H20.8333C18.164 71.8 16 69.6509 16 67V43C16 40.3491 18.164 38.2 20.8333 38.2H26.4722V31H31.3056V38.2ZM20.8333 43V67H36.9444V43H20.8333ZM53.0556 27V49.4H69.1667V27H53.0556Z" fill="#ACCFED" fill-opacity=".05"/>
  <path d="M61.5822 19H38.3146C37.5279 19 36.8143 19.4612 36.4911 20.1785L22.271 51.7447C21.6748 53.0682 22.6429 54.5661 24.0945 54.5661L35.022 54.5661C36.1266 54.5661 37.022 55.4616 37.022 56.5661V70.5811C37.022 72.4394 39.3352 73.2931 40.5425 71.8804L62.1805 46.5597C63.2897 45.2617 62.3674 43.2603 60.6601 43.2603H54.787C53.2578 43.2603 52.2943 41.6139 53.0434 40.2807L63.3259 21.9797C64.0749 20.6465 63.1114 19 61.5822 19Z" fill="url(#l9usabjul__paint0_linear_4952_31122)" fill-opacity=".8"/>
  <path d="M62.5822 21H39.3146C38.5279 21 37.8143 21.4612 37.4911 22.1785L23.271 53.7447C22.6748 55.0682 23.6429 56.5661 25.0945 56.5661L36.022 56.5661C37.1266 56.5661 38.022 57.4616 38.022 58.5661V72.5811C38.022 74.4394 40.3352 75.2931 41.5425 73.8804L63.1805 48.5597C64.2897 47.2617 63.3674 45.2603 61.6601 45.2603H55.787C54.2578 45.2603 53.2943 43.6139 54.0434 42.2807L64.3259 23.9797C65.0749 22.6465 64.1114 21 62.5822 21Z" fill="url(#l9usabjul__paint1_linear_4952_31122)" fill-opacity=".2"/>
  <defs>
    <linearGradient id="l9usabjul__paint0_linear_4952_31122" x1="43" y1="19" x2="41.8398" y2="81.1825" gradientUnits="userSpaceOnUse">
      <stop stop-color="#F3F0FF"/>
      <stop offset="1" stop-color="#E9E3FF" stop-opacity="0"/>
      <stop offset="1" stop-color="#fff"/>
    </linearGradient>
    <linearGradient id="l9usabjul__paint1_linear_4952_31122" x1="44" y1="21" x2="44" y2="110.033" gradientUnits="userSpaceOnUse">
      <stop stop-color="#F4F1FF"/>
      <stop offset="1" stop-color="#E9E3FF" stop-opacity="0"/>
      <stop offset="1" stop-color="#fff"/>
    </linearGradient>
  </defs>
</svg>
