<svg fill="none" xmlns="http://www.w3.org/2000/svg" viewBox="0 0 182 182" class="design-iconfont">
  <rect x="1" y="1" width="180" height="180" rx="24" fill="#5B2FFA"/>
  <path d="M133.347 32.425H146.083C152.112 32.425 157 37.3276 157 43.375V94.475C157 100.522 152.112 105.425 146.083 105.425H133.347V125.5H122.431V105.425H109.694C103.665 105.425 98.7778 100.522 98.7778 94.475V43.375C98.7778 37.3276 103.665 32.425 109.694 32.425H122.431V16H133.347V32.425ZM60.5694 68.925H73.3055C79.3345 68.925 84.2222 73.8276 84.2222 79.875V134.625C84.2222 140.672 79.3345 145.575 73.3055 145.575H60.5694V162H49.6528V145.575H36.9167C30.8877 145.575 26 140.672 26 134.625V79.875C26 73.8276 30.8877 68.925 36.9167 68.925H49.6528V52.5H60.5694V68.925ZM36.9167 79.875V134.625H73.3055V79.875H36.9167ZM109.694 43.375V94.475H146.083V43.375H109.694Z" fill="url(#e8tee9r07__paint0_linear_4952_31125)" fill-opacity=".05"/>
  <mask id="e8tee9r07__og6m9jsa3a" style="mask-type:alpha" maskUnits="userSpaceOnUse" x="1" y="1" width="180" height="180">
    <rect x="1" y="1" width="180" height="180" rx="24" fill="#5B2FFA"/>
  </mask>
  <g mask="url(#e8tee9r07__og6m9jsa3a)" fill="#fff" fill-opacity=".1">
    <path d="M-261.577 67.2393C-257.721 59.9917 -245.795 55.3012 -235.208 51.5901C-221.628 46.7994 -207.736 42.4536 -193.609 38.5769C-165.837 30.9892 -137.039 25.3256 -108.369 22.7172C-52.4412 17.6279 -2.50678 27.6908 52.3396 25.7496C102.507 23.9954 154.082 13.2146 201.336 -3.07105C225.258 -11.3483 248.147 -20.9567 269.621 -31.7359C292.446 -43.1338 312.515 -55.9694 332.92 -68.8813C354.606 -82.6045 377.858 -94.6196 404.859 -103.987C430.927 -113.019 458.632 -119.551 486.4 -124.135C493.548 -125.318 500.686 -126.359 507.841 -127.303C508.892 -127.442 509.056 -128.41 507.992 -128.269C453.531 -121.131 397.693 -107.014 353.278 -82.3337C330.531 -69.6883 310.851 -55.2729 288.075 -42.6289C266.558 -30.6642 243.36 -19.8883 218.894 -10.4934C170.586 8.01845 116.96 20.9417 64.1297 24.2171C8.19892 27.6775 -42.2548 17.2439 -98.2225 20.9377C-126.437 22.7984 -155.019 27.7455 -182.657 34.7053C-196.366 38.1694 -209.879 42.0919 -223.12 46.4513C-234.053 50.0316 -246.321 53.7291 -255.241 59.3347C-258.892 61.585 -261.63 64.2683 -263.16 67.095C-263.489 67.7206 -261.948 67.8593 -261.62 67.2337L-261.577 67.2393Z"/>
    <path d="M-256.638 82.8311C-252.808 75.5894 -240.852 70.9074 -230.269 67.1819C-216.689 62.3911 -202.797 58.0454 -188.671 54.1687C-160.898 46.581 -132.101 40.9174 -103.43 38.309C-47.5025 33.2197 2.43202 43.2826 57.2785 41.3413C107.446 39.5872 159.021 28.8063 206.275 12.5207C230.199 4.2465 253.089 -5.36223 274.56 -16.1441C297.384 -27.542 317.454 -40.3776 337.859 -53.2896C359.545 -67.0127 382.797 -79.0279 409.798 -88.3956C435.866 -97.4272 463.573 -103.953 491.338 -108.543C498.487 -109.727 505.625 -110.768 512.782 -111.704C513.833 -111.843 513.995 -112.818 512.931 -112.677C458.47 -105.539 402.632 -91.4222 358.217 -66.7419C335.469 -54.0965 315.792 -39.6739 293.016 -27.0298C271.517 -15.0553 248.338 -4.26571 223.89 5.14739C175.582 23.6593 121.956 36.5826 69.1256 39.858C13.1948 43.3184 -37.2566 32.892 -93.2266 36.5786C-121.442 38.4393 -150.023 43.3863 -177.661 50.3462C-191.373 53.7955 -204.89 57.7035 -218.138 62.0487C-229.069 65.6362 -241.339 69.3265 -250.257 74.9394C-253.911 77.1857 -256.65 79.8672 -258.178 82.6925C-258.506 83.3181 -256.966 83.4567 -256.638 82.8311Z"/>
    <path d="M-251.697 98.4228C-247.865 91.1883 -235.909 86.5064 -225.327 82.7809C-211.751 77.9836 -197.858 73.6376 -183.728 69.7677C-155.958 62.1727 -127.16 56.5091 -98.4892 53.9007C-42.5618 48.8114 7.37491 58.8815 62.2191 56.9331C112.386 55.1789 163.961 44.3981 211.215 28.1125C235.158 19.852 258.065 10.2522 279.551 -0.524973C302.375 -11.9229 322.447 -24.7512 342.849 -37.6704C364.535 -51.3936 387.788 -63.4087 414.791 -72.7693C440.859 -81.8008 468.564 -88.3334 496.329 -92.9243C503.478 -94.1074 510.616 -95.1485 517.773 -96.0853C518.824 -96.2234 518.986 -97.1992 517.922 -97.0582C463.463 -89.9129 407.623 -75.803 363.208 -51.1228C340.46 -38.4774 320.783 -24.0548 298.007 -11.4107C276.484 0.548813 253.287 11.3241 228.826 20.7247C180.518 39.2366 126.89 52.1526 74.0593 55.428C18.1286 58.8884 -32.3229 48.462 -88.2905 52.1559C-116.506 54.0166 -145.089 58.9564 -172.725 65.9235C-186.433 69.3885 -199.946 73.3085 -213.19 77.6622C-224.121 81.2497 -236.392 84.94 -245.309 90.5529C-248.963 92.7992 -251.703 95.4807 -253.231 98.3059C-253.559 98.9315 -252.019 99.0702 -251.69 98.4445L-251.697 98.4228Z"/>
    <path d="M-246.755 114.022C-242.899 106.774 -230.969 102.098 -220.375 98.4087C-206.795 93.618 -192.903 89.2723 -178.776 85.3956C-151.006 77.8006 -122.206 72.1443 -93.5376 69.5286C-37.6102 64.4394 12.3265 74.5094 67.1707 72.561C117.336 70.7996 168.913 60.026 216.165 43.7331C240.092 35.462 262.982 25.853 284.45 15.0683C307.274 3.67035 327.346 -9.15797 347.749 -22.0772C369.435 -35.8003 392.687 -47.8155 419.69 -57.176C445.758 -66.2075 473.463 -72.7401 501.228 -77.331C508.377 -78.5142 515.515 -79.5553 522.672 -80.4921C523.723 -80.6302 523.887 -81.5987 522.823 -81.4577C468.362 -74.3196 412.522 -60.2098 368.107 -35.5295C345.359 -22.8841 325.682 -8.46151 302.906 4.18255C281.395 16.1311 258.206 26.8918 233.753 36.2729C185.444 54.7848 131.818 67.7081 78.9857 70.9762C23.0572 74.4439 -27.3965 64.0103 -83.3642 67.7041C-111.579 69.5648 -140.16 74.5119 -167.799 81.4717C-181.507 84.9368 -195.02 88.8568 -208.264 93.2104C-219.195 96.798 -231.465 100.488 -240.383 106.101C-244.033 108.349 -246.771 111.03 -248.304 113.854C-248.633 114.48 -247.09 114.626 -246.762 114L-246.755 114.022Z"/>
    <path d="M-241.817 129.614C-237.988 122.372 -226.031 117.69 -215.449 113.964C-201.869 109.174 -187.977 104.828 -173.85 100.951C-146.078 93.3634 -117.28 87.6998 -88.6092 85.0914C-32.6818 80.0021 17.2526 90.065 72.0991 88.1238C122.264 86.3624 173.841 75.5888 221.095 59.3031C245.02 51.0264 267.909 41.4152 289.378 30.6311C312.203 19.2331 332.274 6.40484 352.679 -6.50713C374.363 -20.2375 397.618 -32.2455 424.618 -41.6132C450.686 -50.6447 478.391 -57.1773 506.157 -61.7682C513.305 -62.9514 520.446 -63.9852 527.6 -64.9293C528.651 -65.0674 528.816 -66.0359 527.752 -65.8949C473.291 -58.7568 417.452 -44.6397 373.038 -19.9595C350.288 -7.32129 330.61 7.10128 307.834 19.7453C286.318 31.71 263.12 42.4859 238.654 51.8807C190.345 70.3926 136.72 83.3159 83.8891 86.5913C27.9583 90.0517 -22.4954 79.6181 -78.4631 83.3119C-106.678 85.1726 -135.259 90.1197 -162.898 97.0795C-176.607 100.544 -190.119 104.466 -203.36 108.825C-214.25 112.411 -226.521 116.102 -235.4 121.706C-239.051 123.956 -241.789 126.639 -243.319 129.466C-243.647 130.092 -242.107 130.23 -241.779 129.605L-241.817 129.614Z"/>
    <path d="M-236.876 145.205C-233.021 137.958 -221.09 133.281 -210.515 129.534C-196.935 124.743 -183.043 120.398 -168.916 116.521C-141.143 108.933 -112.346 103.27 -83.675 100.661C-27.7476 95.5721 22.1869 105.635 77.0333 103.694C127.201 101.94 178.776 91.1587 226.03 74.8731C249.952 66.5959 272.841 56.9874 294.315 46.2082C317.139 34.8103 337.208 21.9748 357.614 9.06279C379.3 -4.66035 402.552 -16.6755 429.553 -26.0433C455.621 -35.0748 483.325 -41.6074 511.093 -46.191C518.242 -47.3742 525.38 -48.4153 532.537 -49.3521C533.588 -49.4902 533.75 -50.466 532.686 -50.325C478.225 -43.1869 422.387 -29.0698 377.972 -4.38956C355.224 8.25586 335.545 22.6712 312.771 35.3225C291.25 47.2824 268.051 58.0555 243.588 67.4507C195.28 85.9625 141.654 98.8859 88.8234 102.161C32.8926 105.622 -17.5589 95.1953 -73.5288 98.8819C-101.744 100.743 -130.325 105.69 -157.964 112.649C-171.655 116.131 -185.149 120.07 -198.369 124.444C-209.302 128.025 -221.57 131.722 -230.488 137.335C-234.145 139.58 -236.885 142.262 -238.41 145.088C-238.738 145.714 -237.198 145.852 -236.869 145.227L-236.876 145.205Z"/>
    <path d="M-231.94 160.79C-228.11 153.548 -216.154 148.866 -205.572 145.14C-191.993 140.349 -178.1 136.005 -163.97 132.134C-136.2 124.54 -107.403 118.876 -78.732 116.267C-22.8046 111.178 27.1322 121.248 81.9763 119.3C132.144 117.546 183.719 106.765 230.973 90.4793C254.897 82.2051 277.787 72.5963 299.258 61.8144C322.082 50.4165 342.151 37.581 362.556 24.669C384.243 10.9459 407.495 -1.06932 434.495 -10.4371C460.564 -19.4686 488.271 -25.9939 516.036 -30.5848C523.185 -31.768 530.323 -32.8091 537.48 -33.7459C538.531 -33.884 538.693 -34.8598 537.629 -34.7188C483.17 -27.5735 427.33 -13.4636 382.915 11.2167C360.167 23.8621 340.49 38.2846 317.714 50.9287C296.193 62.8885 272.994 73.6617 248.531 83.0568C200.225 101.576 146.597 114.492 93.7664 117.767C37.8356 121.228 -12.6159 110.801 -68.5858 114.488C-96.8008 116.349 -125.382 121.296 -153.021 128.256C-166.728 131.721 -180.241 135.641 -193.485 139.994C-204.417 143.582 -216.687 147.272 -225.605 152.885C-229.258 155.131 -231.998 157.813 -233.526 160.638C-233.854 161.264 -232.314 161.402 -231.986 160.777L-231.94 160.79Z"/>
    <path d="M-226.998 176.389C-223.166 169.154 -211.21 164.472 -200.628 160.747C-187.05 155.953 -173.157 151.607 -159.029 147.733C-131.259 140.138 -102.461 134.475 -73.7902 131.866C-17.8628 126.777 32.0739 136.847 86.918 134.899C137.083 133.137 188.66 122.364 235.912 106.071C259.839 97.7998 282.73 88.1908 304.197 77.4061C327.022 66.0082 347.093 53.1799 367.496 40.2607C389.182 26.5375 412.434 14.5223 439.437 5.16182C465.505 -3.86972 493.21 -10.4023 520.976 -14.9932C528.124 -16.1763 535.262 -17.2174 542.419 -18.1543C543.47 -18.2923 543.635 -19.2609 542.568 -19.1271C488.11 -11.9818 432.269 2.12806 387.855 26.8083C365.107 39.4537 345.429 53.8763 322.653 66.5204C301.133 78.4825 277.936 89.2581 253.473 98.6558C205.164 117.168 151.539 130.091 98.7058 133.359C42.7773 136.827 -7.67641 126.393 -63.6441 130.087C-91.859 131.948 -120.443 136.887 -148.079 143.855C-161.787 147.32 -175.299 151.24 -188.544 155.593C-199.475 159.181 -211.745 162.871 -220.663 168.484C-224.313 170.732 -227.051 173.413 -228.584 176.237C-228.912 176.863 -227.372 177.001 -227.044 176.376L-226.998 176.389Z"/>
    <path d="M-222.057 191.988C-218.227 184.746 -206.271 180.064 -195.689 176.338C-182.108 171.548 -168.217 167.202 -154.09 163.325C-126.317 155.737 -97.5198 150.074 -68.8512 147.458C-12.9238 142.369 37.0129 152.439 91.8571 150.491C142.022 148.729 193.599 137.956 240.853 121.67C264.778 113.393 287.667 103.782 309.136 92.9979C331.961 81.5999 352.032 68.7716 372.435 55.8524C394.121 42.1293 417.373 30.1141 444.376 20.7536C470.444 11.722 498.149 5.1895 525.915 0.598602C533.063 -0.584562 540.201 -1.62568 547.358 -2.5625C548.409 -2.70056 548.574 -3.66912 547.51 -3.52812C493.049 3.60996 437.208 17.7198 392.796 42.4073C370.046 55.0455 350.369 69.4681 327.592 82.1121C306.076 94.0768 282.878 104.853 258.412 114.248C210.103 132.759 156.478 145.683 103.645 148.951C47.7643 152.439 -2.68259 142.027 -58.6571 145.699C-86.8721 147.56 -115.453 152.507 -143.092 159.466C-156.8 162.932 -170.312 166.852 -183.557 171.205C-194.488 174.793 -206.758 178.483 -215.676 184.096C-219.327 186.346 -222.065 189.029 -223.595 191.856C-223.926 192.475 -222.383 192.62 -222.055 191.995L-222.057 191.988Z"/>
    <path d="M-217.117 207.579C-213.262 200.332 -201.332 195.656 -190.749 191.93C-177.169 187.139 -163.277 182.794 -149.15 178.917C-121.378 171.329 -92.5802 165.666 -63.9093 163.057C-7.98195 157.968 41.9525 168.031 96.799 166.09C146.964 164.328 198.541 153.555 245.795 137.269C269.717 128.992 292.607 119.383 314.081 108.604C336.905 97.2062 356.974 84.3706 377.379 71.4586C399.065 57.7355 422.318 45.7203 449.318 36.3526C475.386 27.321 503.091 20.7885 530.857 16.1976C538.007 15.0217 545.145 13.9805 552.3 13.0365C553.351 12.8984 553.515 11.9299 552.452 12.0709C497.991 19.209 442.152 33.3261 397.738 58.0063C374.988 70.6445 355.31 85.0671 332.534 97.7111C311.018 109.676 287.82 120.452 263.354 129.847C215.045 148.358 161.419 161.282 108.589 164.557C52.6582 168.018 2.20447 157.584 -53.7632 161.278C-81.9782 163.138 -110.559 168.085 -138.198 175.045C-151.907 178.509 -165.419 182.432 -178.66 186.791C-189.594 190.372 -201.864 194.062 -210.782 199.675C-214.419 201.927 -217.142 204.61 -218.66 207.433C-218.988 208.059 -217.448 208.198 -217.12 207.572L-217.117 207.579Z"/>
    <path d="M-212.177 223.171C-208.315 215.945 -196.391 211.247 -185.809 207.522C-172.229 202.731 -158.337 198.385 -144.21 194.509C-116.438 186.921 -87.6401 181.257 -58.9692 178.649C-3.04182 173.56 46.8926 183.622 101.739 181.681C151.906 179.927 203.481 169.146 250.735 152.861C274.66 144.586 297.55 134.978 319.021 124.196C341.845 112.798 361.914 99.9622 382.319 87.0503C404.005 73.3271 427.258 61.3119 454.258 51.9442C480.326 42.9126 508.031 36.3801 535.799 31.7964C542.948 30.6133 550.086 29.5722 557.243 28.6353C558.294 28.4973 558.456 27.5215 557.392 27.6625C502.931 34.8006 447.092 48.9177 402.678 73.5979C379.93 86.2433 360.25 100.659 337.477 113.31C315.956 125.27 292.757 136.043 268.294 145.438C219.985 163.95 166.36 176.873 113.529 180.149C57.5983 183.609 7.14688 173.183 -48.8231 176.869C-77.0381 178.73 -105.619 183.677 -133.258 190.637C-146.967 194.098 -160.48 198.019 -173.723 202.376C-184.656 205.956 -196.924 209.653 -205.842 215.266C-209.496 217.513 -212.235 220.194 -213.763 223.019C-214.091 223.645 -212.551 223.784 -212.223 223.158L-212.177 223.171Z"/>
    <path d="M-207.238 238.763C-203.382 231.515 -191.447 226.853 -180.867 223.121C-167.291 218.323 -153.399 213.977 -139.268 210.108C-111.498 202.513 -82.7007 196.849 -54.0298 194.241C1.89758 189.151 51.8343 199.221 106.678 197.273C156.846 195.519 208.421 184.738 255.675 168.452C279.602 160.181 302.493 150.572 323.96 139.787C346.784 128.39 366.856 115.561 387.259 102.642C408.945 88.9189 432.197 76.9037 459.198 67.5359C485.266 58.5044 512.973 51.9791 540.738 47.3882C547.887 46.205 555.025 45.1639 562.182 44.2271C563.233 44.089 563.395 43.1132 562.331 43.2542C507.873 50.3996 452.032 64.5094 407.617 89.1897C384.869 101.835 365.192 116.258 342.416 128.902C320.895 140.862 297.697 151.635 273.233 161.03C224.927 179.549 171.299 192.465 118.469 195.74C62.5377 199.201 12.0863 188.774 -43.8837 192.461C-72.0963 194.329 -100.68 199.269 -128.319 206.229C-142.026 209.694 -155.539 213.614 -168.783 217.967C-179.714 221.555 -191.985 225.245 -200.903 230.858C-204.556 233.104 -207.296 235.786 -208.824 238.611C-209.152 239.237 -207.612 239.375 -207.283 238.75L-207.238 238.763Z"/>
    <path d="M-202.296 254.362C-198.467 247.12 -186.511 242.438 -175.928 238.712C-162.35 233.918 -148.458 229.572 -134.329 225.699C-106.559 218.104 -77.7592 212.448 -49.0907 209.832C6.83672 204.743 56.7735 214.813 111.618 212.865C161.783 211.103 213.36 200.33 260.612 184.037C284.539 175.766 307.429 166.157 328.897 155.372C351.721 143.974 371.793 131.146 392.195 118.226C413.881 104.503 437.134 92.4882 464.137 83.1276C490.205 74.0961 517.91 67.5635 545.675 62.9726C552.824 61.7895 559.962 60.7483 567.119 59.8115C568.17 59.6735 568.334 58.7049 567.27 58.8459C512.809 65.984 456.969 80.0938 412.554 104.774C389.806 117.42 370.129 131.842 347.353 144.486C325.836 156.451 302.638 167.227 278.172 176.622C229.864 195.133 176.238 208.057 123.405 211.325C67.4769 214.793 17.0231 204.359 -38.9445 208.053C-67.1595 209.913 -95.743 214.853 -123.379 221.82C-137.087 225.285 -150.6 229.205 -163.844 233.559C-174.775 237.147 -187.046 240.837 -195.963 246.45C-199.613 248.698 -202.352 251.378 -203.885 254.203C-204.213 254.828 -202.673 254.967 -202.342 254.349L-202.296 254.362Z"/>
    <path d="M-197.357 269.953C-193.528 262.712 -181.572 258.03 -170.989 254.304C-157.409 249.513 -143.517 245.168 -129.39 241.291C-101.618 233.703 -72.8202 228.04 -44.1494 225.431C11.7757 220.335 61.7125 230.405 116.559 228.464C166.724 226.702 218.301 215.928 265.555 199.643C289.48 191.366 312.369 181.755 333.838 170.971C356.663 159.573 376.734 146.745 397.139 133.833C418.823 120.102 442.077 108.094 469.078 98.7265C495.146 89.695 522.851 83.1624 550.617 78.5715C557.765 77.3884 564.903 76.3473 572.06 75.4104C573.111 75.2724 573.275 74.3038 572.212 74.4448C517.751 81.5829 461.91 95.6928 417.498 120.38C394.747 133.018 375.07 147.441 352.294 160.085C330.778 172.05 307.579 182.826 283.113 192.22C234.805 210.732 181.179 223.656 128.347 226.924C72.4182 230.391 21.9644 219.958 -34.0032 223.652C-62.2182 225.512 -90.7994 230.459 -118.438 237.419C-132.147 240.883 -145.659 244.806 -158.901 249.165C-169.834 252.745 -182.104 256.436 -191.022 262.049C-194.673 264.299 -197.411 266.982 -198.941 269.809C-199.272 270.427 -197.729 270.573 -197.401 269.948L-197.357 269.953Z"/>
    <path d="M-192.419 285.545C-188.589 278.303 -176.633 273.621 -166.05 269.896C-152.47 265.105 -138.578 260.759 -124.452 256.883C-96.6792 249.295 -67.8817 243.631 -39.2108 241.023C16.7166 235.934 66.6511 245.997 121.497 244.055C171.665 242.301 223.24 231.52 270.494 215.235C294.416 206.958 317.305 197.349 338.779 186.57C361.604 175.172 381.673 162.336 402.078 149.424C423.764 135.701 447.016 123.686 474.017 114.318C500.085 105.287 527.79 98.7543 555.558 94.1706C562.706 92.9874 569.844 91.9463 576.999 91.0023C578.05 90.8642 578.214 89.8957 577.15 90.0367C522.689 97.1747 466.851 111.292 422.436 135.972C399.688 148.618 380.009 163.033 357.233 175.677C335.732 187.644 312.549 198.425 288.098 207.825C239.789 226.337 186.164 239.26 133.333 242.536C77.4024 245.996 26.9487 235.563 -29.019 239.256C-57.234 241.117 -85.8152 246.064 -113.454 253.024C-127.163 256.488 -140.675 260.411 -153.916 264.77C-164.852 268.343 -177.12 272.041 -186.011 277.608C-189.661 279.859 -192.399 282.542 -193.93 285.369C-194.258 285.994 -192.718 286.133 -192.389 285.507L-192.419 285.545Z"/>
    <path d="M-187.479 301.137C-183.649 293.895 -171.693 289.213 -161.11 285.488C-147.53 280.697 -133.638 276.351 -119.511 272.474C-91.7391 264.887 -62.9415 259.223 -34.2707 256.615C21.6567 251.525 71.5912 261.588 126.438 259.647C176.651 257.906 228.29 247.11 275.489 230.868C299.412 222.577 322.296 212.951 343.758 202.153C366.582 190.755 386.651 177.919 407.057 165.007C428.743 151.284 451.995 139.269 478.996 129.901C505.064 120.87 532.771 114.344 560.536 109.753C567.685 108.57 574.823 107.529 581.98 106.592C583.031 106.454 583.193 105.479 582.129 105.62C527.668 112.758 471.83 126.875 427.415 151.555C404.667 164.2 384.988 178.616 362.214 191.267C340.693 203.227 317.494 214 293.031 223.395C244.723 241.907 191.097 254.83 138.266 258.106C82.3356 261.566 31.8842 251.14 -24.0858 254.826C-52.3007 256.687 -80.8819 261.634 -108.521 268.594C-122.23 272.056 -135.743 275.976 -148.985 280.333C-159.917 283.92 -172.187 287.61 -181.105 293.223C-184.758 295.47 -187.498 298.151 -189.026 300.976C-189.354 301.602 -187.814 301.741 -187.486 301.115L-187.479 301.137Z"/>
    <path d="M-182.54 316.728C-178.682 309.488 -166.754 304.805 -156.169 301.086C-142.593 296.289 -128.701 291.943 -114.57 288.073C-86.8 280.478 -58.0024 274.815 -29.3316 272.206C26.5958 267.117 76.5326 277.187 131.377 275.239C181.544 273.484 233.119 262.704 280.373 246.418C304.3 238.147 327.191 228.538 348.658 217.753C371.483 206.355 391.554 193.527 411.957 180.608C433.643 166.885 456.895 154.869 483.898 145.509C509.966 136.477 537.671 129.945 565.437 125.354C572.585 124.171 579.723 123.13 586.88 122.193C587.931 122.055 588.093 121.079 587.029 121.22C532.571 128.365 476.73 142.475 432.315 167.155C409.568 179.801 389.89 194.223 367.114 206.867C345.591 218.827 322.394 229.602 297.934 239.003C249.625 257.515 195.997 270.431 143.167 273.706C87.236 277.167 36.7845 266.74 -19.1831 270.434C-47.3981 272.295 -75.9816 277.235 -103.618 284.202C-117.326 287.667 -130.838 291.587 -144.083 295.94C-155.014 299.528 -167.284 303.218 -176.202 308.831C-179.856 311.077 -182.595 313.759 -184.123 316.584C-184.451 317.21 -182.911 317.348 -182.583 316.723L-182.54 316.728Z"/>
    <path d="M-177.593 332.342C-173.764 325.1 -161.807 320.418 -151.225 316.693C-137.645 311.902 -123.753 307.556 -109.626 303.68C-81.856 296.085 -53.0561 290.428 -24.3875 287.813C31.5398 282.723 81.4766 292.793 136.321 290.845C186.538 289.118 238.171 278.301 285.349 261.994C309.276 253.723 332.167 244.114 353.634 233.329C376.459 221.931 396.53 209.103 416.933 196.183C438.619 182.46 461.871 170.445 488.874 161.085C514.942 152.053 542.647 145.521 570.413 140.93C577.561 139.746 584.699 138.705 591.856 137.769C592.907 137.63 593.071 136.662 592.008 136.803C537.547 143.941 481.706 158.051 437.291 182.731C414.544 195.377 394.866 209.799 372.09 222.443C350.574 234.408 327.375 245.184 302.909 254.579C254.601 273.09 200.975 286.014 148.143 289.282C92.2142 292.75 41.7604 282.316 -14.2072 286.01C-42.4222 287.87 -71.0034 292.818 -98.6421 299.777C-112.35 303.242 -125.863 307.162 -139.107 311.516C-150.038 315.104 -162.308 318.794 -171.226 324.407C-174.876 326.655 -177.614 329.335 -179.147 332.16C-179.476 332.785 -177.935 332.924 -177.605 332.306L-177.593 332.342Z"/>
  </g>
  <path d="M126.187 37H77.0931C75.5159 37 74.086 37.9268 73.4419 39.3664L43.5206 106.242C42.3366 108.889 44.2729 111.876 47.1718 111.876L70.5006 111.876C72.7098 111.876 74.5006 113.667 74.5006 115.876V146.106C74.5006 149.829 79.141 151.533 81.5503 148.694L127.408 94.6627C129.614 92.0642 127.767 88.0744 124.359 88.0744H111.312C108.259 88.0744 106.331 84.7915 107.819 82.1252L129.68 42.9492C131.168 40.2829 129.241 37 126.187 37Z" fill="url(#e8tee9r07__paint1_linear_4952_31125)"/>
  <path d="M128.187 42H79.0931C77.5159 42 76.086 42.9268 75.4419 44.3664L45.5206 111.242C44.3366 113.889 46.2729 116.876 49.1718 116.876L72.5006 116.876C74.7098 116.876 76.5006 118.667 76.5006 120.876V151.106C76.5006 154.829 81.141 156.533 83.5503 153.694L129.408 99.6627C131.614 97.0642 129.767 93.0744 126.359 93.0744H113.312C110.259 93.0744 108.331 89.7915 109.819 87.1252L131.68 47.9492C133.168 45.2829 131.241 42 128.187 42Z" fill="url(#e8tee9r07__paint2_linear_4952_31125)" fill-opacity=".2"/>
  <path d="M111.706 143.6L108.506 138.8H140.506V146.864C140.506 147.717 140.197 148.453 139.578 149.072C138.96 149.691 138.234 150 137.402 150H116.506V151.632C116.506 152.059 116.656 152.432 116.954 152.752C117.274 153.051 117.648 153.2 118.074 153.2H137.306L140.506 158H111.642C110.81 158 110.074 157.691 109.434 157.072C108.816 156.432 108.506 155.696 108.506 154.864V146.8H130.938C131.365 146.8 131.728 146.64 132.026 146.32C132.346 146 132.506 145.637 132.506 145.232V143.6H111.706Z" fill="#7859EC"/>
  <path d="M109.706 140.6L106.506 135.8H138.506V143.864C138.506 144.717 138.197 145.453 137.578 146.072C136.96 146.691 136.234 147 135.402 147H114.506V148.632C114.506 149.059 114.656 149.432 114.954 149.752C115.274 150.051 115.648 150.2 116.074 150.2H135.306L138.506 155H109.642C108.81 155 108.074 154.691 107.434 154.072C106.816 153.432 106.506 152.696 106.506 151.864V143.8H128.938C129.365 143.8 129.728 143.64 130.026 143.32C130.346 143 130.506 142.637 130.506 142.232V140.6H109.706Z" fill="#A48CFD"/>
  <defs>
    <linearGradient id="e8tee9r07__paint0_linear_4952_31125" x1="29.4939" y1="162.315" x2="149.602" y2="13.7294" gradientUnits="userSpaceOnUse">
      <stop stop-color="#DBD1FF"/>
      <stop offset="1" stop-color="#EBE5FF"/>
    </linearGradient>
    <linearGradient id="e8tee9r07__paint1_linear_4952_31125" x1="87" y1="37" x2="84.5406" y2="167.91" gradientUnits="userSpaceOnUse">
      <stop stop-color="#D4C9FF"/>
      <stop offset="1" stop-color="#E9E3FF" stop-opacity="0"/>
      <stop offset="1" stop-color="#E9E3FF"/>
    </linearGradient>
    <linearGradient id="e8tee9r07__paint2_linear_4952_31125" x1="89" y1="42" x2="89" y2="229.438" gradientUnits="userSpaceOnUse">
      <stop stop-color="#D4C9FF"/>
      <stop offset="1" stop-color="#E9E3FF" stop-opacity="0"/>
      <stop offset="1" stop-color="#EBE5FF"/>
    </linearGradient>
  </defs>
</svg>
