<svg fill="none" xmlns="http://www.w3.org/2000/svg" viewBox="0 0 40 41" class="design-iconfont">
  <path d="M13.203 11.333C10.2949 12.1046 7.60849 13.6814 5.49422 15.9215C4.47946 16.9638 3.59541 18.0953 2.85478 19.3869L2.84533 19.4036C1.6821 21.4938 3.67872 24.2084 6.16312 23.2629C7.33286 22.8317 8.5679 22.5499 9.78105 22.4417C9.83975 22.5353 9.90699 22.6281 9.984 22.7191C11.2006 24.1567 12.4638 25.5523 13.7715 26.9034L13.7753 26.9072C15.0889 28.2548 16.4122 29.5534 17.7959 30.7977C17.8919 30.884 17.9904 30.9587 18.0899 31.0232C18.0031 32.3284 17.7521 33.5677 17.2905 34.7559C17.0768 35.2824 17.0347 35.8634 17.1691 36.4148C17.3041 36.9688 17.6119 37.4698 18.0539 37.8392C18.8521 38.5159 20.1077 38.793 21.1699 38.096C22.4244 37.3351 23.5225 36.4295 24.5328 35.3931C26.6548 33.2162 28.1816 30.4613 28.9893 27.4299C35.7467 22.3076 38.8132 13.5457 36.9746 5.17253C36.8949 4.65379 36.6564 4.16797 36.2853 3.78734C35.9162 3.40862 35.4354 3.15469 34.9099 3.06741C26.6776 1.09604 18.1836 4.35636 13.203 11.333ZM29.023 27.3026C29.023 27.3025 29.0228 27.3034 29.0222 27.305C29.0226 27.3034 29.0229 27.3026 29.023 27.3026ZM26.4195 17.4995L26.4195 17.4995L26.4143 17.505C26.0707 17.8612 25.6364 18.1001 25.1687 18.1975C24.7013 18.2949 24.2159 18.248 23.7724 18.061L23.7701 18.06C22.731 17.6239 22 16.7786 22 15.5C22 14.8328 22.1908 14.4215 22.4414 14.1213C22.7185 13.7895 23.1526 13.4965 23.7701 13.2373L23.7724 13.2364C24.2159 13.0494 24.7013 13.0025 25.1687 13.0998C25.6364 13.1973 26.0707 13.4362 26.4143 13.7924L26.4142 13.7924L26.4195 13.7978C27.398 14.8021 27.398 16.4952 26.4195 17.4995Z" stroke="#011628" stroke-width="3" stroke-linejoin="round"/>
  <path d="M9.62603 35.5663L9.62689 35.5657C11.1099 34.4275 10.9076 32.4225 9.9973 31.2173L8.80035 32.1214L9.9973 31.2173C9.04997 29.9631 7.15962 29.3295 5.70379 30.446L6.61662 31.6363L5.70379 30.446C5.35956 30.71 4.97825 31.1837 4.68384 31.578C4.34694 32.0291 3.97407 32.5829 3.64074 33.1492C3.31417 33.7041 2.99155 34.328 2.79062 34.9085C2.69138 35.1952 2.5979 35.5383 2.574 35.8946C2.55192 36.2238 2.574 36.7931 2.9611 37.3056C3.38736 37.8699 3.99072 38.0263 4.39887 38.0526C4.79247 38.078 5.1621 37.9999 5.44056 37.9201C6.00908 37.7572 6.61832 37.4604 7.14125 37.173C8.20801 36.5868 9.26477 35.8432 9.62603 35.5663Z" stroke="#011628" stroke-width="3"/>
</svg>
