<svg fill="none" xmlns="http://www.w3.org/2000/svg" viewBox="0 0 750 661" class="design-iconfont">
  <path fill="url(#taskmqwn6__paint0_linear_8238_41228)" fill-opacity=".6" d="M0 0H750V661H0z"/>
  <path d="M675.583 73.7125H699.5C710.822 73.7125 720 82.8797 720 94.1875V189.737C720 201.045 710.822 210.212 699.5 210.212H675.583V247.75H655.083V210.212H631.167C619.845 210.212 610.667 201.045 610.667 189.737V94.1875C610.667 82.8797 619.845 73.7125 631.167 73.7125H655.083V43H675.583V73.7125ZM538.917 141.963H562.833C574.155 141.963 583.333 151.13 583.333 162.437V264.812C583.333 276.12 574.155 285.287 562.833 285.287H538.917V316H518.417V285.287H494.5C483.178 285.287 474 276.12 474 264.812V162.437C474 151.13 483.178 141.963 494.5 141.963H518.417V111.25H538.917V141.963ZM494.5 162.437V264.812H562.833V162.437H494.5ZM631.167 94.1875V189.737H699.5V94.1875H631.167Z" fill="#fff" fill-opacity=".1"/>
  <defs>
    <linearGradient id="taskmqwn6__paint0_linear_8238_41228" x1="375" y1="0" x2="375" y2="482.5" gradientUnits="userSpaceOnUse">
      <stop stop-color="#167FFA" stop-opacity=".59"/>
      <stop offset="1" stop-color="#169AFA" stop-opacity="0"/>
    </linearGradient>
  </defs>
</svg>
