<svg fill="none" xmlns="http://www.w3.org/2000/svg" viewBox="0 0 686 290" class="design-iconfont">
  <path d="M0 24C0 10.7452 10.7452 0 24 0H662C675.255 0 686 10.7452 686 24V266C686 279.255 675.255 290 662 290H24C10.7452 290 0 279.255 0 266V24Z" fill="#2F9BFA"/>
  <mask id="mn9gmebfn__wfuxsc41la" style="mask-type:alpha" maskUnits="userSpaceOnUse" x="0" y="0" width="686" height="290">
    <path d="M0 24C0 10.7452 10.7452 0 24 0H662C675.255 0 686 10.7452 686 24V266C686 279.255 675.255 290 662 290H24C10.7452 290 0 279.255 0 266V24Z" fill="#2F9BFA"/>
  </mask>
  <g mask="url(#mn9gmebfn__wfuxsc41la)">
    <mask id="mn9gmebfn__812xuvqtgb" style="mask-type:alpha" maskUnits="userSpaceOnUse" x="0" y="0" width="686" height="290">
      <path d="M0 24C0 10.7452 10.7452 0 24 0H662C675.255 0 686 10.7452 686 24V266C686 279.255 675.255 290 662 290H24C10.7452 290 0 279.255 0 266V24Z" fill="#D3C8FF"/>
    </mask>
    <g mask="url(#mn9gmebfn__812xuvqtgb)" fill="#fff" fill-opacity=".1">
      <path d="M-109.577 58.2293C-105.721 50.9816 -93.7954 46.2911 -83.2082 42.58C-69.6282 37.7893 -55.7363 33.4436 -41.6094 29.5669C-13.837 21.9791 14.9605 16.3155 43.6314 13.7071C99.5588 8.61787 149.493 18.6807 204.34 16.7395C254.507 14.9854 306.082 4.2045 353.336 -12.0811C377.258 -20.3583 400.147 -29.9668 421.621 -40.7459C444.446 -52.1439 464.515 -64.9794 484.92 -77.8914C506.606 -91.6145 529.858 -103.63 556.859 -112.997C582.927 -122.029 610.632 -128.562 638.4 -133.145C645.548 -134.328 652.686 -135.369 659.841 -136.314C660.892 -136.452 661.056 -137.42 659.992 -137.279C605.531 -130.141 549.693 -116.024 505.278 -91.3437C482.531 -78.6983 462.851 -64.283 440.075 -51.6389C418.558 -39.6742 395.36 -28.8984 370.894 -19.5035C322.586 -0.991624 268.96 11.9317 216.13 15.207C160.199 18.6675 109.745 8.23382 53.7775 11.9277C25.5625 13.7884 -3.01865 18.7354 -30.6574 25.6953C-44.3662 29.1593 -57.8785 33.0818 -71.1198 37.4412C-82.0532 41.0215 -94.3212 44.719 -103.241 50.3247C-106.892 52.575 -109.63 55.2583 -111.16 58.0849C-111.489 58.7106 -109.948 58.8492 -109.62 58.2236L-109.577 58.2293Z"/>
      <path d="M-104.638 73.821C-100.808 66.5793 -88.8521 61.8973 -78.2694 58.1718C-64.6894 53.3811 -50.7975 49.0353 -36.6706 45.1587C-8.89826 37.5709 19.8993 31.9073 48.5702 29.2989C104.498 24.2096 154.432 34.2725 209.278 32.3313C259.446 30.5771 311.021 19.7963 358.275 3.51064C382.199 -4.76357 405.089 -14.3723 426.56 -25.1542C449.384 -36.5521 469.454 -49.3877 489.859 -62.2996C511.545 -76.0228 534.797 -88.0379 561.798 -97.4057C587.866 -106.437 615.573 -112.963 643.338 -117.553C650.487 -118.737 657.625 -119.778 664.782 -120.715C665.833 -120.853 665.995 -121.828 664.931 -121.687C610.47 -114.549 554.632 -100.432 510.217 -75.752C487.469 -63.1066 467.792 -48.684 445.016 -36.0399C423.517 -24.0654 400.338 -13.2758 375.89 -3.86268C327.582 14.6492 273.956 27.5725 221.126 30.8479C165.195 34.3083 114.743 23.8819 58.7734 27.5685C30.5584 29.4292 1.97725 34.3763 -25.6615 41.3361C-39.3733 44.7854 -52.8902 48.6934 -66.1376 53.0386C-77.0688 56.6262 -89.339 60.3164 -98.2569 65.9293C-101.911 68.1757 -104.65 70.8571 -106.178 73.6824C-106.506 74.308 -104.966 74.4466 -104.638 73.821Z"/>
      <path d="M-99.6973 89.4128C-95.8652 82.1783 -83.9091 77.4963 -73.3265 73.7708C-59.7509 68.9735 -45.8582 64.6275 -31.7277 60.7576C-3.95763 53.1627 24.8399 47.499 53.5108 44.8906C109.438 39.8014 159.375 49.8715 214.219 47.923C264.386 46.1689 315.961 35.388 363.215 19.1024C387.158 10.842 410.065 1.24212 431.551 -9.53504C454.375 -20.933 474.447 -33.7613 494.849 -46.6805C516.535 -60.4036 539.788 -72.4188 566.791 -81.7793C592.859 -90.8109 620.564 -97.3434 648.329 -101.934C655.478 -103.117 662.616 -104.159 669.773 -105.095C670.824 -105.233 670.986 -106.209 669.922 -106.068C615.463 -98.9229 559.623 -84.8131 515.208 -60.1329C492.46 -47.4874 472.783 -33.0648 450.007 -20.4208C428.484 -8.46126 405.287 2.31403 380.826 11.7146C332.518 30.2265 278.89 43.1426 226.059 46.4179C170.129 49.8784 119.677 39.452 63.7095 43.1458C35.4945 45.0065 6.911 49.9463 -20.7254 56.9134C-34.4332 60.3785 -47.9459 64.2984 -61.1901 68.6521C-72.1213 72.2396 -84.3915 75.9299 -93.3094 81.5428C-96.963 83.7891 -99.7026 86.4706 -101.231 89.2958C-101.559 89.9214 -100.019 90.0601 -99.6904 89.4345L-99.6973 89.4128Z"/>
      <path d="M-94.7548 105.012C-90.8993 97.7641 -78.969 93.088 -68.3749 89.3987C-54.7949 84.6079 -40.903 80.2622 -26.7761 76.3855C0.993954 68.7906 29.7938 63.1342 58.4624 60.5185C114.39 55.4293 164.327 65.4994 219.171 63.5509C269.336 61.7895 320.913 51.0159 368.165 34.723C392.092 26.4519 414.982 16.8429 436.45 6.05823C459.274 -5.33972 479.346 -18.168 499.749 -31.0872C521.435 -44.8104 544.687 -56.8256 571.69 -66.1861C597.758 -75.2176 625.463 -81.7502 653.228 -86.3411C660.377 -87.5242 667.515 -88.5653 674.672 -89.5022C675.723 -89.6402 675.887 -90.6088 674.823 -90.4678C620.362 -83.3297 564.522 -69.2198 520.107 -44.5396C497.359 -31.8942 477.682 -17.4716 454.906 -4.82753C433.395 7.12103 410.206 17.8817 385.753 27.2629C337.444 45.7748 283.818 58.6981 230.986 61.9662C175.057 65.4338 124.603 55.0002 68.6358 58.6941C40.4208 60.5548 11.8396 65.5018 -15.7991 72.4616C-29.5068 75.9267 -43.0195 79.8467 -56.2638 84.2004C-67.1949 87.7879 -79.4652 91.4781 -88.3831 97.091C-92.0326 99.339 -94.7714 102.02 -96.3043 104.844C-96.6326 105.47 -95.09 105.616 -94.7617 104.99L-94.7548 105.012Z"/>
      <path d="M-89.8173 120.603C-85.9875 113.362 -74.0315 108.68 -63.4488 104.954C-49.8688 100.163 -35.9769 95.8178 -21.85 91.9411C5.92235 84.3534 34.7199 78.6898 63.3908 76.0813C119.318 70.9921 169.253 81.0549 224.099 79.1137C274.264 77.3523 325.841 66.5787 373.095 50.2931C397.02 42.0163 419.909 32.4052 441.378 21.621C464.203 10.2231 484.274 -2.60523 504.679 -15.5172C526.363 -29.2476 549.618 -41.2555 576.618 -50.6233C602.686 -59.6548 630.391 -66.1874 658.157 -70.7783C665.305 -71.9614 672.446 -72.9953 679.6 -73.9394C680.651 -74.0774 680.816 -75.046 679.752 -74.905C625.291 -67.7669 569.452 -53.6498 525.038 -28.9695C502.288 -16.3314 482.61 -1.90879 459.834 10.7353C438.318 22.7 415.12 33.4758 390.654 42.8706C342.345 61.3825 288.72 74.3058 235.889 77.5812C179.958 81.0417 129.505 70.608 73.5369 74.3019C45.3219 76.1626 16.7407 81.1096 -10.898 88.0695C-24.6068 91.5335 -38.1191 95.4561 -51.3604 99.8154C-62.2505 103.401 -74.5207 107.092 -83.3998 112.696C-87.0505 114.946 -89.7887 117.629 -91.3188 120.456C-91.6471 121.082 -90.1068 121.22 -89.7785 120.595L-89.8173 120.603Z"/>
      <path d="M-84.8761 136.195C-81.0205 128.947 -69.0903 124.271 -58.5146 120.524C-44.9345 115.733 -31.0426 111.388 -16.9157 107.511C10.8566 99.9233 39.6542 94.2597 68.325 91.6512C124.252 86.562 174.187 96.6248 229.033 94.6836C279.201 92.9295 330.776 82.1486 378.03 65.863C401.952 57.5858 424.841 47.9773 446.315 37.1982C469.139 25.8002 489.208 12.9647 509.614 0.0527242C531.3 -13.6704 554.552 -25.6856 581.553 -35.0533C607.621 -44.0849 635.325 -50.6174 663.093 -55.2011C670.242 -56.3843 677.38 -57.4254 684.537 -58.3622C685.588 -58.5003 685.75 -59.4761 684.686 -59.3351C630.225 -52.197 574.387 -38.0799 529.972 -13.3996C507.224 -0.754213 487.545 13.6611 464.771 26.3124C443.25 38.2723 420.051 49.0454 395.588 58.4406C347.28 76.9525 293.654 89.8758 240.823 93.1512C184.893 96.6116 134.441 86.1852 78.4712 89.8718C50.2562 91.7325 21.675 96.6795 -5.96371 103.639C-19.6553 107.121 -33.1485 111.06 -46.369 115.434C-57.3024 119.015 -69.5704 122.712 -78.4883 128.325C-82.1449 130.57 -84.8851 133.252 -86.4095 136.078C-86.7378 136.704 -85.1975 136.842 -84.8693 136.217L-84.8761 136.195Z"/>
      <path d="M-79.94 151.78C-76.1102 144.538 -64.1542 139.856 -53.5715 136.13C-39.9927 131.339 -26.0996 126.995 -11.9704 123.124C15.7996 115.529 44.5972 109.866 73.268 107.257C129.195 102.168 179.132 112.238 233.976 110.29C284.144 108.536 335.719 97.7548 382.973 81.4691C406.897 73.1949 429.787 63.5862 451.258 52.8043C474.082 41.4063 494.151 28.5708 514.556 15.6589C536.243 1.93572 559.495 -10.0795 586.495 -19.4472C612.564 -28.4788 640.271 -35.0041 668.036 -39.595C675.185 -40.7781 682.323 -41.8193 689.48 -42.7561C690.531 -42.8941 690.693 -43.8699 689.629 -43.7289C635.17 -36.5836 579.33 -22.4737 534.915 2.20653C512.167 14.8519 492.49 29.2745 469.714 41.9185C448.193 53.8784 424.994 64.6516 400.531 74.0467C352.225 92.5658 298.597 105.482 245.766 108.757C189.836 112.218 139.384 101.791 83.4142 105.478C55.1992 107.339 26.618 112.286 -1.0207 119.246C-14.7284 122.711 -28.2411 126.631 -41.4854 130.984C-52.4165 134.572 -64.6868 138.262 -73.6047 143.875C-77.2583 146.121 -79.9979 148.803 -81.5259 151.628C-81.8542 152.254 -80.3139 152.392 -79.9856 151.767L-79.94 151.78Z"/>
      <path d="M-74.9985 167.378C-71.1665 160.144 -59.2104 155.462 -48.6277 151.736C-35.0499 146.942 -21.1576 142.597 -7.0289 138.723C20.7411 131.128 49.5387 125.465 78.2095 122.856C134.137 117.767 184.074 127.837 238.918 125.889C289.083 124.127 340.66 113.354 387.912 97.0608C411.839 88.7896 434.73 79.1807 456.197 68.396C479.022 56.998 499.093 44.1697 519.496 31.2505C541.182 17.5274 564.434 5.51221 591.437 -3.84831C617.505 -12.8798 645.21 -19.4124 672.976 -24.0033C680.124 -25.1865 687.262 -26.2276 694.419 -27.1644C695.47 -27.3025 695.634 -28.271 694.568 -28.1372C640.11 -20.9919 584.269 -6.88208 539.854 17.7982C517.106 30.4436 497.429 44.8662 474.653 57.5102C453.133 69.4723 429.936 80.2479 405.472 89.6456C357.164 108.158 303.538 121.081 250.706 124.349C194.777 127.817 144.323 117.383 88.3557 121.077C60.1407 122.938 31.5572 127.877 3.9208 134.844C-9.78692 138.309 -23.2996 142.229 -36.5439 146.583C-47.475 150.171 -59.7453 153.861 -68.6632 159.474C-72.3128 161.722 -75.0516 164.402 -76.5844 167.227C-76.9127 167.852 -75.3724 167.991 -75.0441 167.366L-74.9985 167.378Z"/>
      <path d="M-70.057 182.977C-66.2272 175.736 -54.2711 171.054 -43.6885 167.328C-30.1085 162.537 -16.2166 158.192 -2.08966 154.315C25.6827 146.727 54.4802 141.064 83.1488 138.448C139.076 133.359 189.013 143.429 243.857 141.48C294.022 139.719 345.599 128.945 392.853 112.66C416.778 104.383 439.667 94.7719 461.136 83.9878C483.961 72.5898 504.032 59.7615 524.435 46.8423C546.121 33.1191 569.373 21.104 596.376 11.7435C622.444 2.71192 650.149 -3.82063 677.915 -8.41153C685.063 -9.59469 692.201 -10.6358 699.358 -11.5726C700.409 -11.7107 700.574 -12.6793 699.51 -12.5383C645.049 -5.40017 589.208 8.7097 544.796 33.3972C522.046 46.0354 502.369 60.4579 479.592 73.102C458.076 85.0667 434.878 95.8425 410.412 105.237C362.103 123.749 308.478 136.673 255.645 139.941C199.764 143.429 149.317 133.017 93.3429 136.689C65.1279 138.549 36.5467 143.496 8.90799 150.456C-4.79974 153.921 -18.3124 157.841 -31.5567 162.195C-42.4879 165.783 -54.7581 169.473 -63.676 175.086C-67.3267 177.336 -70.0648 180.019 -71.5949 182.846C-71.9255 183.464 -70.383 183.61 -70.0547 182.985L-70.057 182.977Z"/>
      <path d="M-65.1174 198.569C-61.2618 191.322 -49.3316 186.646 -38.7489 182.92C-25.1689 178.129 -11.277 173.783 2.84991 169.907C30.6222 162.319 59.4198 156.655 88.0907 154.047C144.018 148.958 193.953 159.021 248.799 157.079C298.964 155.318 350.541 144.544 397.795 128.259C421.717 119.982 444.607 110.373 466.081 99.594C488.905 88.196 508.974 75.3605 529.379 62.4485C551.065 48.7254 574.318 36.7102 601.318 27.3424C627.386 18.3109 655.091 11.7784 682.857 7.18746C690.007 6.01153 697.145 4.97042 704.3 4.02636C705.351 3.88829 705.515 2.91976 704.452 3.06076C649.991 10.1988 594.152 24.3159 549.738 48.9962C526.988 61.6344 507.31 76.0569 484.534 88.701C463.018 100.666 439.82 111.442 415.354 120.836C367.045 139.348 313.419 152.272 260.589 155.547C204.658 159.007 154.204 148.574 98.2368 152.268C70.0218 154.128 41.4406 159.075 13.8019 166.035C0.0930913 169.499 -13.4192 173.422 -26.6605 177.781C-37.5939 181.361 -49.8642 185.052 -58.7821 190.665C-62.4186 192.917 -65.1423 195.6 -66.6599 198.423C-66.9882 199.049 -65.448 199.188 -65.1197 198.562L-65.1174 198.569Z"/>
      <path d="M-60.1772 214.161C-56.3148 206.935 -44.3914 202.237 -33.8088 198.512C-20.2288 193.721 -6.33685 189.375 7.79005 185.498C35.5624 177.911 64.3599 172.247 93.0308 169.639C148.958 164.549 198.893 174.612 253.739 172.671C303.906 170.917 355.481 160.136 402.735 143.85C426.66 135.576 449.55 125.967 471.021 115.186C493.845 103.788 513.914 90.9521 534.319 78.0401C556.005 64.317 579.258 52.3018 606.258 42.9341C632.326 33.9025 660.031 27.37 687.799 22.7863C694.948 21.6031 702.086 20.562 709.243 19.6252C710.294 19.4871 710.456 18.5113 709.392 18.6524C654.931 25.7904 599.092 39.9075 554.678 64.5878C531.93 77.2332 512.25 91.6486 489.477 104.3C467.956 116.26 444.757 127.033 420.294 136.428C371.985 154.94 318.36 167.863 265.529 171.139C209.598 174.599 159.147 164.173 103.177 167.859C74.9619 169.72 46.3808 174.667 18.742 181.627C5.03271 185.088 -8.48038 189.008 -21.7226 193.365C-32.6561 196.946 -44.924 200.643 -53.8419 206.256C-57.4955 208.503 -60.2351 211.184 -61.7632 214.009C-62.0915 214.635 -60.5512 214.773 -60.2229 214.148L-60.1772 214.161Z"/>
      <path d="M-55.2378 229.753C-51.3823 222.505 -39.4474 217.843 -28.8671 214.111C-15.2915 209.313 -1.39878 204.967 12.7317 201.097C40.5018 193.502 69.2993 187.839 97.9702 185.23C153.898 180.141 203.834 190.211 258.678 188.263C308.846 186.509 360.421 175.728 407.675 159.442C431.602 151.171 454.493 141.562 475.96 130.777C498.784 119.379 518.856 106.551 539.259 93.6319C560.945 79.9087 584.197 67.8936 611.198 58.5258C637.266 49.4943 664.973 42.9689 692.738 38.378C699.887 37.1949 707.025 36.1538 714.182 35.2169C715.233 35.0789 715.395 34.1031 714.331 34.2441C659.873 41.3894 604.032 55.4993 559.617 80.1796C536.869 92.825 517.192 107.248 494.416 119.892C472.895 131.851 449.697 142.625 425.233 152.02C376.927 170.539 323.299 183.455 270.469 186.73C214.538 190.191 164.086 179.764 108.116 183.451C79.9037 185.319 51.3202 190.259 23.6815 197.219C9.97372 200.684 -3.53898 204.604 -16.7832 208.957C-27.7144 212.545 -39.9846 216.235 -48.9025 221.848C-52.5561 224.094 -55.2957 226.776 -56.8237 229.601C-57.152 230.227 -55.6118 230.365 -55.2835 229.74L-55.2378 229.753Z"/>
      <path d="M-50.2964 245.351C-46.4667 238.11 -34.5106 233.428 -23.928 229.702C-10.3501 224.908 3.54216 220.562 17.6709 216.689C45.4409 209.094 74.2408 203.438 102.909 200.822C158.837 195.733 208.773 205.803 263.618 203.854C313.783 202.093 365.36 191.319 412.612 175.027C436.539 166.755 459.429 157.146 480.897 146.362C503.721 134.964 523.793 122.136 544.195 109.216C565.881 95.4932 589.134 83.478 616.137 74.1175C642.205 65.086 669.91 58.5534 697.675 53.9625C704.824 52.7793 711.962 51.7382 719.119 50.8014C720.17 50.6633 720.334 49.6948 719.27 49.8358C664.809 56.9739 608.969 71.0837 564.554 95.764C541.806 108.409 522.129 122.832 499.353 135.476C477.836 147.441 454.638 158.217 430.172 167.611C381.864 186.123 328.238 199.047 275.405 202.315C219.477 205.782 169.023 195.349 113.055 199.043C84.8405 200.903 56.257 205.843 28.6206 212.81C14.9129 216.275 1.40014 220.195 -11.8441 224.549C-22.7753 228.136 -35.0455 231.827 -43.9634 237.44C-47.613 239.688 -50.3518 242.368 -51.8846 245.193C-52.2129 245.818 -50.6727 245.957 -50.3421 245.339L-50.2964 245.351Z"/>
      <path d="M-45.3574 260.943C-41.5277 253.701 -29.5716 249.019 -18.9889 245.294C-5.40893 240.503 8.483 236.157 22.6099 232.281C50.3822 224.693 79.1798 219.029 107.851 216.421C163.776 211.325 213.712 221.395 268.559 219.453C318.724 217.692 370.301 206.918 417.555 190.633C441.48 182.356 464.369 172.745 485.838 161.961C508.663 150.563 528.734 137.734 549.139 124.822C570.823 111.092 594.077 99.0842 621.078 89.7164C647.146 80.6849 674.851 74.1523 702.617 69.5614C709.765 68.3782 716.903 67.3371 724.06 66.4003C725.111 66.2623 725.275 65.2937 724.212 65.4347C669.751 72.5728 613.91 86.6826 569.498 111.37C546.747 124.008 527.07 138.431 504.294 151.075C482.778 163.04 459.579 173.815 435.113 183.21C386.805 201.722 333.179 214.646 280.347 217.914C224.418 221.381 173.964 210.948 117.997 214.642C89.7818 216.502 61.2006 221.449 33.5619 228.409C19.8531 231.873 6.34075 235.796 -6.9005 240.155C-17.8339 243.735 -30.1042 247.426 -39.0221 253.039C-42.6728 255.289 -45.4109 257.972 -46.941 260.799C-47.2716 261.417 -45.7291 261.563 -45.4008 260.937L-45.3574 260.943Z"/>
      <path d="M-40.4189 276.535C-36.5891 269.293 -24.633 264.611 -14.0504 260.886C-0.470393 256.095 13.4216 251.749 27.5485 247.873C55.3208 240.285 84.1183 234.621 112.789 232.013C168.717 226.924 218.651 236.986 273.497 235.045C323.665 233.291 375.24 222.51 422.494 206.225C446.416 197.947 469.305 188.339 490.779 177.56C513.604 166.162 533.673 153.326 554.078 140.414C575.764 126.691 599.016 114.676 626.017 105.308C652.085 96.2767 679.79 89.7441 707.558 85.1605C714.706 83.9773 721.844 82.9362 728.999 81.9921C730.05 81.8541 730.214 80.8855 729.15 81.0265C674.689 88.1646 618.851 102.282 574.436 126.962C551.688 139.607 532.009 154.023 509.233 166.667C487.732 178.634 464.549 189.414 440.098 198.815C391.789 217.327 338.164 230.25 285.333 233.526C229.402 236.986 178.949 226.552 122.981 230.246C94.766 232.107 66.1848 237.054 38.5461 244.014C24.8373 247.478 11.325 251.4 -1.9163 255.76C-12.852 259.333 -25.12 263.03 -34.0106 268.598C-37.6612 270.849 -40.3994 273.532 -41.9295 276.359C-42.2578 276.984 -40.7175 277.123 -40.3892 276.497L-40.4189 276.535Z"/>
      <path d="M-35.4787 292.127C-31.649 284.885 -19.6929 280.203 -9.11027 276.477C4.46974 271.687 18.3617 267.341 32.4886 263.464C60.2609 255.877 89.0585 250.213 117.729 247.604C173.657 242.515 223.591 252.578 278.438 250.637C328.651 248.896 380.29 238.1 427.489 221.858C451.412 213.567 474.296 203.941 495.758 193.143C518.582 181.745 538.651 168.909 559.057 155.997C580.743 142.274 603.995 130.259 630.996 120.891C657.064 111.86 684.771 105.334 712.536 100.743C719.685 99.5602 726.823 98.5191 733.98 97.5822C735.031 97.4442 735.193 96.4684 734.129 96.6094C679.668 103.747 623.83 117.865 579.415 142.545C556.667 155.19 536.988 169.606 514.214 182.257C492.693 194.217 469.494 204.99 445.031 214.385C396.723 232.897 343.097 245.82 290.266 249.096C234.336 252.556 183.884 242.13 127.914 245.816C99.6993 247.677 71.1181 252.624 43.4793 259.584C29.77 263.045 16.2569 266.965 3.01465 271.322C-7.9165 274.91 -20.1867 278.6 -29.1046 284.213C-32.7582 286.46 -35.4978 289.141 -37.0259 291.966C-37.3542 292.592 -35.8139 292.73 -35.4856 292.105L-35.4787 292.127Z"/>
      <path d="M-30.5396 307.718C-26.6817 300.478 -14.7538 295.795 -4.16886 292.076C9.40677 287.279 23.2995 282.933 37.43 279.063C65.2 271.468 93.9976 265.805 122.668 263.196C178.596 258.107 228.533 268.177 283.377 266.228C333.544 264.474 385.119 253.693 432.373 237.408C456.3 229.137 479.191 219.528 500.658 208.743C523.483 197.345 543.554 184.517 563.957 171.598C585.643 157.874 608.895 145.859 635.898 136.499C661.966 127.467 689.671 120.935 717.437 116.344C724.585 115.161 731.723 114.119 738.88 113.183C739.931 113.045 740.093 112.069 739.029 112.21C684.571 119.355 628.73 133.465 584.315 158.145C561.568 170.791 541.89 185.213 519.114 197.857C497.591 209.817 474.394 220.592 449.934 229.993C401.625 248.505 347.997 261.421 295.167 264.696C239.236 268.156 188.785 257.73 132.817 261.424C104.602 263.285 76.0184 268.224 48.382 275.191C34.6743 278.657 21.1615 282.577 7.9173 286.93C-3.01386 290.518 -15.2841 294.208 -24.202 299.821C-27.8556 302.067 -30.5952 304.749 -32.1232 307.574C-32.4515 308.2 -30.9113 308.338 -30.583 307.713L-30.5396 307.718Z"/>
      <path d="M-25.5933 323.332C-21.7636 316.09 -9.80748 311.408 0.775141 307.683C14.3552 302.892 28.2471 298.546 42.374 294.669C70.144 287.074 98.9439 281.418 127.612 278.802C183.54 273.713 233.477 283.783 288.321 281.835C338.538 280.108 390.171 269.291 437.349 252.984C461.276 244.712 484.167 235.103 505.634 224.319C528.459 212.921 548.53 200.093 568.933 187.173C590.619 173.45 613.871 161.435 640.874 152.074C666.942 143.043 694.647 136.51 722.413 131.92C729.561 130.736 736.699 129.695 743.856 128.758C744.907 128.62 745.071 127.652 744.008 127.793C689.547 134.931 633.706 149.041 589.291 173.721C566.544 186.366 546.866 200.789 524.09 213.433C502.574 225.398 479.375 236.174 454.909 245.568C406.601 264.08 352.975 277.004 300.143 280.272C244.214 283.739 193.76 273.306 137.793 277C109.578 278.86 80.9966 283.807 53.3579 290.767C39.6501 294.232 26.1374 298.152 12.8932 302.506C1.96204 306.093 -10.3082 309.784 -19.2261 315.397C-22.8757 317.645 -25.6145 320.325 -27.1473 323.15C-27.4756 323.775 -25.9354 323.914 -25.6048 323.296L-25.5933 323.332Z"/>
    </g>
    <path d="M609.209 41.9999H555.649C554.068 41.9999 552.636 42.9309 551.994 44.3755L519.5 117.491C518.324 120.136 520.26 123.116 523.155 123.116L549.05 123.116C551.259 123.116 553.05 124.907 553.05 127.116V161.05C553.05 164.779 557.704 166.479 560.108 163.628L610.454 103.909C612.647 101.308 610.798 97.3305 607.396 97.3305H592.121C589.073 97.3305 587.145 94.0574 588.623 91.3914L612.708 47.9391C614.186 45.2731 612.258 41.9999 609.209 41.9999Z" fill="url(#mn9gmebfn__paint0_linear_4952_31130)" fill-opacity=".8"/>
    <path d="M611.209 47H557.649C556.068 47 554.636 47.931 553.994 49.3755L521.5 122.491C520.324 125.136 522.26 128.116 525.155 128.116L551.05 128.116C553.259 128.116 555.05 129.907 555.05 132.116V166.05C555.05 169.779 559.704 171.479 562.108 168.628L612.454 108.909C614.647 106.308 612.798 102.331 609.396 102.331H594.121C591.073 102.331 589.145 99.0575 590.623 96.3914L614.708 52.9392C616.186 50.2731 614.258 47 611.209 47Z" fill="url(#mn9gmebfn__paint1_linear_4952_31130)" fill-opacity=".2"/>
    <path d="M591.206 154.6L588.006 149.8H620.006V157.864C620.006 158.717 619.697 159.453 619.078 160.072C618.46 160.691 617.734 161 616.902 161H596.006V162.632C596.006 163.059 596.156 163.432 596.454 163.752C596.774 164.051 597.148 164.2 597.574 164.2H616.806L620.006 169H591.142C590.31 169 589.574 168.691 588.934 168.072C588.316 167.432 588.006 166.696 588.006 165.864V157.8H610.438C610.865 157.8 611.228 157.64 611.526 157.32C611.846 157 612.006 156.637 612.006 156.232V154.6H591.206Z" fill="#4EA9FB"/>
    <path d="M589.206 151.6L586.006 146.8H618.006V154.864C618.006 155.717 617.697 156.453 617.078 157.072C616.46 157.691 615.734 158 614.902 158H594.006V159.632C594.006 160.059 594.156 160.432 594.454 160.752C594.774 161.051 595.148 161.2 595.574 161.2H614.806L618.006 166H589.142C588.31 166 587.574 165.691 586.934 165.072C586.316 164.432 586.006 163.696 586.006 162.864V154.8H608.438C608.865 154.8 609.228 154.64 609.526 154.32C609.846 154 610.006 153.637 610.006 153.232V151.6H589.206Z" fill="#ADCCFF"/>
  </g>
  <path d="M628 17.8875H642C648.627 17.8875 654 23.2266 654 29.8125V85.4625C654 92.0484 648.627 97.3875 642 97.3875H628V119.25H616V97.3875H602C595.373 97.3875 590 92.0484 590 85.4625V29.8125C590 23.2266 595.373 17.8875 602 17.8875H616V0H628V17.8875ZM548 57.6375H562C568.627 57.6375 574 62.9766 574 69.5625V129.188C574 135.773 568.627 141.112 562 141.112H548V159H536V141.112H522C515.373 141.112 510 135.773 510 129.188V69.5625C510 62.9766 515.373 57.6375 522 57.6375H536V39.75H548V57.6375ZM522 69.5625V129.188H562V69.5625H522ZM602 29.8125V85.4625H642V29.8125H602Z" fill="url(#mn9gmebfn__paint2_linear_4952_31130)" fill-opacity=".05"/>
  <defs>
    <linearGradient id="mn9gmebfn__paint0_linear_4952_31130" x1="566.5" y1="41.9999" x2="563.818" y2="183.818" gradientUnits="userSpaceOnUse">
      <stop stop-color="#F3F0FF"/>
      <stop offset="1" stop-color="#E9E3FF" stop-opacity="0"/>
      <stop offset="1" stop-color="#fff"/>
    </linearGradient>
    <linearGradient id="mn9gmebfn__paint1_linear_4952_31130" x1="568.5" y1="47" x2="568.5" y2="250.058" gradientUnits="userSpaceOnUse">
      <stop stop-color="#F4F1FF"/>
      <stop offset="1" stop-color="#E9E3FF" stop-opacity="0"/>
      <stop offset="1" stop-color="#fff"/>
    </linearGradient>
    <linearGradient id="mn9gmebfn__paint2_linear_4952_31130" x1="513.841" y1="159.343" x2="644.383" y2="-3.6622" gradientUnits="userSpaceOnUse">
      <stop stop-color="#DBD1FF"/>
      <stop offset="1" stop-color="#EBE5FF"/>
    </linearGradient>
  </defs>
</svg>
