<?xml version="1.0" standalone="no"?><!DOCTYPE svg PUBLIC "-//W3C//DTD SVG 1.1//EN" "http://www.w3.org/Graphics/SVG/1.1/DTD/svg11.dtd"><svg t="1637569097867" class="icon" viewBox="0 0 1024 1024" version="1.1" xmlns="http://www.w3.org/2000/svg" p-id="3548" xmlns:xlink="http://www.w3.org/1999/xlink" width="46" height="46"><defs><style type="text/css"></style></defs><path d="M512 1009.152c-273.92 0-497.152-223.232-497.152-497.152C14.848 238.08 238.08 14.848 512 14.848c273.92 0 497.152 223.232 497.152 497.152 0 273.92-223.232 497.152-497.152 497.152z m0-907.264c-226.304 0-410.112 183.808-410.112 410.112s183.808 410.112 410.112 410.112 410.112-183.808 410.112-410.112-183.808-410.112-410.112-410.112z" fill="#7E8494" p-id="3549"></path><path d="M352.256 378.88m-68.096 0a68.096 68.096 0 1 0 136.192 0 68.096 68.096 0 1 0-136.192 0Z" fill="#7E8494" p-id="3550"></path><path d="M666.112 378.88m-68.096 0a68.096 68.096 0 1 0 136.192 0 68.096 68.096 0 1 0-136.192 0Z" fill="#7E8494" p-id="3551"></path><path d="M502.272 781.312c-79.872 0-151.552-45.056-186.368-117.248-10.752-21.504-1.536-47.616 19.968-58.368 21.504-10.752 47.616-1.536 58.368 19.968 20.48 41.984 61.952 68.096 108.544 68.096 48.64 0 92.16-28.672 111.104-73.216 9.216-22.016 34.816-32.256 57.344-23.04 22.016 9.216 32.256 34.816 23.04 57.344-33.792 76.8-108.544 126.464-192 126.464z" fill="#7E8494" p-id="3552"></path></svg>