<svg xmlns="http://www.w3.org/2000/svg" fill="none" viewBox="0 0 84 84" class="design-iconfont">
  <path fill="#97DC95" d="M42 0A42 42 0 1 0 42 84A42 42 0 1 0 42 0Z"/>
  <path d="M25.104 54V31.216H20.656V54H25.104ZM46.758 38.32C46.758 34.448 43.942 31.216 39.238 31.216H30.406V54H34.854V45.424H39.238C43.942 45.424 46.758 42.192 46.758 38.32ZM42.31 38.32C42.31 40.176 41.03 41.424 39.014 41.424H34.854V35.184H39.014C41.03 35.184 42.31 36.464 42.31 38.32ZM66.5638 42.608C66.5638 38.672 66.5958 35.824 64.2917 33.52C62.6918 31.92 60.7398 31.024 58.1478 31.024C55.5558 31.024 53.5718 31.92 51.9718 33.52C49.6678 35.824 49.7318 38.672 49.7318 42.608C49.7318 46.544 49.6678 49.392 51.9718 51.696C53.5718 53.296 55.5558 54.192 58.1478 54.192C60.7398 54.192 62.6918 53.296 64.2917 51.696C66.5958 49.392 66.5638 46.544 66.5638 42.608ZM62.1158 42.608C62.1158 46.992 61.8598 48.048 60.9958 49.008C60.3558 49.744 59.3638 50.224 58.1478 50.224C56.9318 50.224 55.9078 49.744 55.2678 49.008C54.4038 48.048 54.1798 46.992 54.1798 42.608C54.1798 38.224 54.4038 37.168 55.2678 36.208C55.9078 35.472 56.9318 34.992 58.1478 34.992C59.3638 34.992 60.3558 35.472 60.9958 36.208C61.8598 37.168 62.1158 38.224 62.1158 42.608Z" fill="#F1FFF1"/>
</svg>
