<svg xmlns="http://www.w3.org/2000/svg" fill="none" viewBox="0 0 84 84" class="design-iconfont">
  <path fill="#FFCF7C" d="M42 0A42 42 0 1 0 42 84A42 42 0 1 0 42 0Z"/>
  <path fill="#FFEAC6" d="M43 17A21 21 0 1 0 43 59A21 21 0 1 0 43 17Z"/>
  <path stroke="#FFCF7C" stroke-width="4" stroke-linecap="round" d="M43.665 31.5831L43.665 27.9998"/>
  <path stroke="#FFCF7C" stroke-width="4" stroke-linecap="round" d="M43.665 50L43.665 29.0833"/>
  <path d="M47.8333 31.4169H40.7917C38.6976 31.4169 37 33.1145 37 35.2085V35.2085C37 37.3026 38.6976 39.0002 40.7917 39.0002H46.6296" stroke="#FFCF7C" stroke-width="4" stroke-linecap="round"/>
  <path d="M40.1379 39H46.2083C48.3024 39 50 40.6976 50 42.7917V42.7917C50 44.8857 48.3024 46.5833 46.2083 46.5833H38.0833" stroke="#FFCF7C" stroke-width="4" stroke-linecap="round"/>
  <path stroke="#FFCF7C" stroke-width="4" stroke-linecap="round" d="M43.665 33.75L43.665 29.0833"/>
  <path d="M47.2653 40L22.9609 45.6604L13.2094 49.8569C12.4755 50.1727 12 50.895 12 51.694V59.3912C12 60.4293 12.7942 61.2948 13.8285 61.3838L22.9609 62.1698L36.3047 65L55.3672 63.1132L70.6474 52.8942C71.9633 52.0141 72.3535 50.2542 71.5328 48.9004C70.7431 47.5976 69.0932 47.1073 67.7201 47.7675L53.4613 54.6226L39.1448 53.7639C38.2795 53.712 37.5169 53.1778 37.1725 52.3822C36.6862 51.2588 37.1655 49.9513 38.2626 49.4083L42.0231 47.5472C47.3606 46.4151 47.7418 41.4151 47.2653 40Z" fill="#FFF6E6"/>
</svg>
