<svg xmlns="http://www.w3.org/2000/svg" fill="none" viewBox="0 0 84 84" class="design-iconfont">
  <path fill="#FFC79E" d="M42 0A42 42 0 1 0 42 84A42 42 0 1 0 42 0Z"/>
  <path d="M43.4401 21.5306C43.4795 20.9797 43.0647 20.4988 42.5126 20.4851C38.4803 20.3848 34.4935 21.421 31.0125 23.4852C27.2443 25.7196 24.2486 29.0518 22.4264 33.0358C20.6042 37.0197 20.0425 41.4653 20.8166 45.7772C21.5907 50.0892 23.6635 54.0618 26.7576 57.1632C29.8517 60.2647 33.8194 62.3469 38.1295 63.1311C42.4396 63.9154 46.8865 63.3642 50.8747 61.5515C54.863 59.7387 58.2023 56.7509 60.4456 52.9879C62.518 49.5118 63.5636 45.5275 63.4729 41.495C63.4605 40.9428 62.9805 40.5269 62.4296 40.565L43.1268 41.899C42.5203 41.941 42.0171 41.4365 42.0604 40.8301L43.4401 21.5306Z" fill="#FFF5ED"/>
  <path d="M60.5844 37.6229C61.1334 37.5627 61.5327 37.068 61.4399 36.5236C60.8538 33.0821 59.2091 29.899 56.7228 27.425C54.2364 24.951 51.0451 23.3222 47.6007 22.7533C47.0558 22.6633 46.5632 23.065 46.5057 23.6143L44.9885 38.1143C44.9221 38.7485 45.4582 39.282 46.0921 39.2124L60.5844 37.6229Z" fill="#FFEBDB"/>
</svg>
