<svg fill="none" xmlns="http://www.w3.org/2000/svg" viewBox="0 0 88 88" class="design-iconfont">
  <path fill="#F6EDDB" d="M44 0A44 44 0 1 0 44 88A44 44 0 1 0 44 0Z"/>
  <path fill="#E7D9BF" d="M43 38A5 5 0 1 0 43 48A5 5 0 1 0 43 38Z"/>
  <path d="M32.7714 50C31.0306 47.7044 30 44.8569 30 41.7726C30 34.1662 36.268 28 44 28C51.732 28 58 34.1662 58 41.7726C58 44.8569 56.9694 47.7044 55.2286 50" stroke="#A98A4C" stroke-width="4" stroke-linecap="round"/>
  <path opacity=".2" d="M26.3551 55C23.6195 51.4522 22 47.0516 22 42.2849C22 30.5296 31.8497 21 44 21C56.1503 21 66 30.5296 66 42.2849C66 47.0516 64.3805 51.4522 61.6449 55" stroke="#A98A4C" stroke-width="4" stroke-linecap="round"/>
  <path d="M51.9113 53.7673L49.7712 52.5213C48.0019 51.4912 46.8284 49.6806 46.6107 47.6449L46.3318 45.0365C46.1691 43.5149 44.9582 42.3178 43.4348 42.1726C41.6871 42.006 40.1279 43.2698 39.929 45.0141L38.7339 55.4966C38.4745 57.7721 36.0381 59.1029 33.9834 58.0914L33.479 57.843C32.638 57.4291 31.6338 57.5373 30.9004 58.1209C30.0139 58.8264 29.7347 60.0519 30.2281 61.0717L33.7473 68.3458C35.6534 72.2857 39.4777 74.945 43.8347 75.3602L44.5623 75.4296C49.6463 75.9141 54.4611 73.059 56.4746 68.3656L56.6219 68.0223C58.8783 62.7629 56.8572 56.6467 51.9113 53.7673Z" stroke="#A98A4C" stroke-width="4" stroke-linecap="round"/>
</svg>
