<svg fill="none" xmlns="http://www.w3.org/2000/svg" viewBox="0 0 88 88" class="design-iconfont">
  <path fill="#F6EDDB" d="M44 0A44 44 0 1 0 44 88A44 44 0 1 0 44 0Z"/>
  <path stroke="#A98A4C" stroke-width="4" stroke-linecap="round" d="M40 65L48 65"/>
  <path stroke="#A98A4C" stroke-width="4" stroke-linecap="round" d="M26.8086 37.4043L60.215 25.9208"/>
  <path stroke="#A98A4C" stroke-width="4" stroke-linecap="round" d="M27 47L27 38"/>
  <path stroke="#A98A4C" stroke-width="4" stroke-linecap="round" d="M61 35L61 26"/>
  <path stroke="#A98A4C" stroke-width="4" stroke-linecap="round" d="M44 63L44 33"/>
  <path d="M26.134 47.5C26.5189 46.8333 27.4811 46.8333 27.866 47.5L32.1962 55C32.5811 55.6667 32.0999 56.5 31.3301 56.5H22.6699C21.9001 56.5 21.4189 55.6667 21.8038 55L26.134 47.5Z" stroke="#A98A4C" stroke-width="4"/>
  <path d="M60.134 35.5C60.5189 34.8333 61.4811 34.8333 61.866 35.5L66.1962 43C66.5811 43.6667 66.0999 44.5 65.3301 44.5H56.6699C55.9001 44.5 55.4189 43.6667 55.8038 43L60.134 35.5Z" stroke="#A98A4C" stroke-width="4"/>
</svg>
