<svg fill="none" xmlns="http://www.w3.org/2000/svg" viewBox="0 0 180 180" class="design-iconfont">
  <path d="M0 90C0 40.2944 40.2944 0 90 0C139.706 0 180 40.2944 180 90C180 139.706 139.706 180 90 180C40.2944 180 0 139.706 0 90Z" fill="#fff"/>
  <path d="M10 90C10 45.8172 45.8172 10 90 10C134.183 10 170 45.8172 170 90C170 134.183 134.183 170 90 170C45.8172 170 10 134.183 10 90Z" fill="#D00404"/>
  <path d="M59.4299 49.0812L67.1955 72.5335H91.9854L71.9741 86.7831L79.4411 110.235L59.4299 95.6891L39.4187 110.235L47.1843 86.7831L27.1729 72.5335H51.9629L59.4299 49.0812ZM123.944 36.613L123.645 44.9253L131.112 47.894L123.048 49.9721L122.749 57.9872L118.269 51.1595L110.503 52.9405L115.581 46.7065L111.399 39.8786L118.866 43.1441L123.944 36.613ZM151.72 63.0337L148.137 70.159L153.811 75.7993L145.747 74.6118L142.163 81.7366L140.968 73.7212L132.904 72.5337L140.072 68.9716L138.878 60.9561L144.553 66.5966L151.72 63.0337ZM143.358 95.6891L146.046 103.407H154.11L147.539 108.157L149.928 115.876L143.358 111.126L136.787 115.876L139.475 108.157L132.904 103.407H140.968L143.358 95.6891ZM123.943 120.625L123.346 128.641L131.112 131.61L123.048 133.687L122.45 141.703L118.269 134.875L110.205 136.953L115.581 130.719L111.101 123.891L118.866 126.86L123.943 120.625Z" fill="#FBDC00"/>
</svg>
