<?xml version="1.0" encoding="UTF-8"?>
<svg width="20px" height="12px" viewBox="0 0 20 12" version="1.1" xmlns="http://www.w3.org/2000/svg" xmlns:xlink="http://www.w3.org/1999/xlink">
    <title>下拉</title>
    <g id="黑色皮肤" stroke="none" stroke-width="1" fill="none" fill-rule="evenodd">
        <g id="黑色皮肤-切图汇总" transform="translate(-2347.000000, -212.000000)" fill="#999999" fill-rule="nonzero">
            <g id="下拉" transform="translate(2347.000000, 212.000000)">
                <g id="xiala备份" transform="translate(1.000000, 1.000000)">
                    <path d="M17.601108,0.377358491 C17.3019391,0.0943396226 16.9030471,0 16.5041551,0 L1.54570637,0.0943396226 C1.1468144,0.0943396226 0.747922438,0.188679245 0.448753463,0.471698113 C-0.149584488,1.03773585 -0.149584488,1.88679245 0.448753463,2.45283019 L7.92797784,9.52830189 C7.92797784,9.52830189 7.92797784,9.52830189 7.92797784,9.52830189 C7.92797784,9.52830189 7.92797784,9.52830189 7.92797784,9.52830189 C8.02770083,9.62264151 8.22714681,9.71698113 8.32686981,9.81132075 C8.32686981,9.81132075 8.4265928,9.90566038 8.4265928,9.90566038 C8.92520776,10.0943396 9.6232687,10 10.0221607,9.62264151 L17.501385,2.45283019 C18.199446,1.79245283 18.099723,0.943396226 17.601108,0.377358491 Z" id="路径"></path>
                </g>
            </g>
        </g>
    </g>
</svg>