<?xml version="1.0" encoding="UTF-8"?>
<svg width="242px" height="242px" viewBox="0 0 242 242" version="1.1" xmlns="http://www.w3.org/2000/svg" xmlns:xlink="http://www.w3.org/1999/xlink">
    <!-- Generator: Sketch 63.1 (92452) - https://sketch.com -->
    <title>缺省1</title>
    <desc>Created with Sketch.</desc>
    <defs>
        <linearGradient x1="50%" y1="30.8651676%" x2="50%" y2="100%" id="linearGradient-1">
            <stop stop-color="#FFFFFF" offset="0%"></stop>
            <stop stop-color="#F8F8F8" offset="100%"></stop>
        </linearGradient>
        <linearGradient x1="50%" y1="100%" x2="50%" y2="3.061617e-15%" id="linearGradient-2">
            <stop stop-color="#F8F8F8" offset="0%"></stop>
            <stop stop-color="#DBDBDB" offset="100%"></stop>
        </linearGradient>
        <linearGradient x1="43.9527265%" y1="61.4404631%" x2="58.82%" y2="0%" id="linearGradient-3">
            <stop stop-color="#F9F9F9" offset="0%"></stop>
            <stop stop-color="#EBEBEB" offset="100%"></stop>
        </linearGradient>
        <linearGradient x1="25.4854702%" y1="75.5043118%" x2="68.2803632%" y2="42.8961155%" id="linearGradient-4">
            <stop stop-color="#DFDFDF" offset="0%"></stop>
            <stop stop-color="#F2F2F2" offset="100%"></stop>
        </linearGradient>
        <linearGradient x1="50%" y1="100%" x2="50%" y2="3.061617e-15%" id="linearGradient-5">
            <stop stop-color="#F8F8F8" offset="0%"></stop>
            <stop stop-color="#DBDBDB" offset="100%"></stop>
        </linearGradient>
        <linearGradient x1="43.8986124%" y1="61.4404631%" x2="58.8989258%" y2="0%" id="linearGradient-6">
            <stop stop-color="#F9F9F9" offset="0%"></stop>
            <stop stop-color="#EBEBEB" offset="100%"></stop>
        </linearGradient>
        <linearGradient x1="25.4854702%" y1="75.5043118%" x2="68.2803632%" y2="42.8961155%" id="linearGradient-7">
            <stop stop-color="#DFDFDF" offset="0%"></stop>
            <stop stop-color="#F2F2F2" offset="100%"></stop>
        </linearGradient>
        <radialGradient cx="35.898299%" cy="34.6633728%" fx="35.898299%" fy="34.6633728%" r="125.721939%" id="radialGradient-8">
            <stop stop-color="#FFFFFF" offset="0%"></stop>
            <stop stop-color="#EEEEEE" offset="100%"></stop>
        </radialGradient>
        <linearGradient x1="50%" y1="100%" x2="50%" y2="3.061617e-15%" id="linearGradient-9">
            <stop stop-color="#F8F8F8" offset="0%"></stop>
            <stop stop-color="#DBDBDB" offset="100%"></stop>
        </linearGradient>
        <linearGradient x1="44.1513912%" y1="61.4404631%" x2="58.5302457%" y2="0%" id="linearGradient-10">
            <stop stop-color="#F9F9F9" offset="0%"></stop>
            <stop stop-color="#EBEBEB" offset="100%"></stop>
        </linearGradient>
        <linearGradient x1="25.4854702%" y1="75.5043118%" x2="68.2803632%" y2="42.8961155%" id="linearGradient-11">
            <stop stop-color="#DFDFDF" offset="0%"></stop>
            <stop stop-color="#F2F2F2" offset="100%"></stop>
        </linearGradient>
        <linearGradient x1="71.8961407%" y1="40.7371838%" x2="50%" y2="62.0860396%" id="linearGradient-12">
            <stop stop-color="#EEEEEE" stop-opacity="0" offset="0%"></stop>
            <stop stop-color="#D8D8D8" offset="100%"></stop>
        </linearGradient>
        <linearGradient x1="50%" y1="0%" x2="50%" y2="100%" id="linearGradient-13">
            <stop stop-color="#EEEEEE" offset="0%"></stop>
            <stop stop-color="#D8D8D8" offset="100%"></stop>
        </linearGradient>
        <linearGradient x1="57.3964497%" y1="136.039585%" x2="42.6035503%" y2="-16.3417244%" id="linearGradient-14">
            <stop stop-color="#F3F3F3" offset="0%"></stop>
            <stop stop-color="#F0F0F0" offset="0%"></stop>
            <stop stop-color="#DADADA" offset="100%"></stop>
        </linearGradient>
        <linearGradient x1="-22.3171909%" y1="65.0182541%" x2="33.9036215%" y2="65.0182541%" id="linearGradient-15">
            <stop stop-color="#EEEEEE" stop-opacity="0" offset="0%"></stop>
            <stop stop-color="#D2D2D2" offset="100%"></stop>
        </linearGradient>
        <radialGradient cx="50%" cy="50%" fx="50%" fy="50%" r="40.5101743%" id="radialGradient-16">
            <stop stop-color="#FFFFFF" offset="0%"></stop>
            <stop stop-color="#ECECEC" offset="100%"></stop>
        </radialGradient>
        <linearGradient x1="127.277837%" y1="63.8310957%" x2="14.6188813%" y2="21.7301289%" id="linearGradient-17">
            <stop stop-color="#DADADA" offset="0%"></stop>
            <stop stop-color="#FDFDFD" offset="100%"></stop>
        </linearGradient>
    </defs>
    <g id="750*1624-定稿" stroke="none" stroke-width="1" fill="none" fill-rule="evenodd">
        <g id="切图汇总" transform="translate(-1006.000000, -412.000000)" fill-rule="nonzero">
            <g id="缺省1" transform="translate(1006.000000, 412.000000)">
                <g id="暂无搜索结果" transform="translate(1.000000, 7.000000)">
                    <g id="编组-25" transform="translate(12.727273, 0.000000)">
                        <circle id="椭圆形" fill="url(#linearGradient-1)" opacity="0.500093006" cx="113.636364" cy="114.545455" r="113.636364"></circle>
                        <g id="编组-23备份-3" opacity="0.281133743" transform="translate(18.181818, 52.727273)">
                            <polygon id="矩形" fill="url(#linearGradient-2)" points="19.0909091 27.8529981 38.1818182 18.1818182 38.1818182 53.9651837 19.0909091 63.6363636"></polygon>
                            <polygon id="矩形" fill="url(#linearGradient-3)" transform="translate(9.545455, 40.909091) scale(-1, 1) translate(-9.545455, -40.909091) " points="0 27.8529981 19.0909091 18.1818182 19.0909091 53.9651837 0 63.6363636"></polygon>
                            <polygon id="矩形备份-5" fill="url(#linearGradient-4)" transform="translate(19.090909, 17.947849) scale(-1, 1) rotate(55.000000) translate(-19.090909, -17.947849) " points="11.9585694 12.4062925 30.0410048 2.30949201 27.0493607 23.5204169 8.1408136 33.5862064"></polygon>
                        </g>
                        <g id="编组-23备份-4" opacity="0.281133743" transform="translate(82.727273, 3.636364)">
                            <polygon id="矩形" fill="url(#linearGradient-5)" points="24.5454545 36.0154739 49.0909091 23.6363636 49.0909091 69.4390715 24.5454545 81.8181818"></polygon>
                            <polygon id="矩形" fill="url(#linearGradient-6)" transform="translate(12.272727, 52.727273) scale(-1, 1) translate(-12.272727, -52.727273) " points="0 36.0154739 24.5454545 23.6363636 24.5454545 69.4390715 0 81.8181818"></polygon>
                            <polygon id="矩形备份-5" fill="url(#linearGradient-7)" transform="translate(24.545454, 23.075806) scale(-1, 1) rotate(55.000000) translate(-24.545454, -23.075806) " points="15.3753032 15.9509476 38.6241488 2.96934702 34.7777492 30.2405363 10.46676 43.1822655"></polygon>
                        </g>
                        <circle id="椭圆形" fill="url(#radialGradient-8)" cx="106.363636" cy="15.4545455" r="15.4545455"></circle>
                        <g id="编组-23备份-5" opacity="0.281133743" transform="translate(175.454545, 74.545455)">
                            <polygon id="矩形" fill="url(#linearGradient-9)" points="17.2727273 25.2611218 34.5454545 16.3636364 34.5454545 49.2843327 17.2727273 58.1818182"></polygon>
                            <polygon id="矩形" fill="url(#linearGradient-10)" transform="translate(8.636364, 37.272727) scale(-1, 1) translate(-8.636364, -37.272727) " points="0 25.2611218 17.2727273 16.3636364 17.2727273 49.2843327 0 58.1818182"></polygon>
                            <polygon id="矩形备份-5" fill="url(#linearGradient-11)" transform="translate(17.272728, 16.409462) scale(-1, 1) rotate(55.000000) translate(-17.272728, -16.409462) " points="10.7492815 11.3463943 27.179957 2.26047217 24.5490261 21.5043811 7.36549823 30.5584519"></polygon>
                        </g>
                    </g>
                    <g id="编组-28" transform="translate(0.000000, 39.090909)">
                        <rect id="矩形" fill="#E4E4E4" x="69.3298542" y="8.72727273" width="105.454545" height="135.272727" rx="7.2"></rect>
                        <polygon id="路径-7" fill="url(#linearGradient-12)" opacity="0.30187407" transform="translate(63.937655, 95.665677) scale(-1, 1) translate(-63.937655, -95.665677) " points="51.5738495 48.869999 127.875309 74.839686 55.9740234 142.461355 0 122.087783"></polygon>
                        <rect id="矩形" fill="#EFEFEF" x="75.148036" y="8.72727273" width="105.454545" height="135.272727" rx="7.2"></rect>
                        <rect id="矩形" fill="#FFFFFF" x="85.3298542" y="21.8181818" width="85.8181818" height="109.818182" rx="6.48"></rect>
                        <polygon id="路径-10" fill="#D8D8D8" points="117.329855 0 136.966218 0 132.238945 10.3509444 121.471355 10.3509444"></polygon>
                        <path d="M102.7844,6.54545455 L151.511673,6.54545455 C155.126627,6.54545455 158.057127,9.47595436 158.057127,13.0909091 L158.057127,24.7272727 L158.057127,24.7272727 L96.2389455,24.7272727 L96.2389455,13.0909091 C96.2389455,9.47595436 99.1694445,6.54545455 102.7844,6.54545455 Z" id="矩形" fill="url(#linearGradient-13)"></path>
                        <rect id="矩形" fill="#D7D7D7" x="96.2389455" y="13.8181818" width="61.8181818" height="3.63636364"></rect>
                        <rect id="矩形" fill="#ECECEC" x="96.2389455" y="41.4545455" width="15.2727273" height="10.1818182" rx="5.09090909"></rect>
                        <rect id="矩形备份-20" fill="#ECECEC" x="114.420764" y="41.4545455" width="45.0909091" height="10.1818182" rx="5.09090909"></rect>
                        <rect id="矩形备份-21" fill="#ECECEC" x="96.2389455" y="66.1818182" width="63.2727273" height="10.1818182" rx="5.09090909"></rect>
                        <rect id="矩形备份-22" fill="#ECECEC" x="95.5116727" y="90.9090909" width="63.2727273" height="10.1818182" rx="5.09090909"></rect>
                        <path d="M190.049311,118.355815 L193.14022,118.355815 C194.797074,118.355815 196.14022,119.698961 196.14022,121.355815 L196.14022,138.992179 C196.14022,140.649033 194.797074,141.992179 193.14022,141.992179 L190.049311,141.992179 C188.392457,141.992179 187.049311,140.649033 187.049311,138.992179 L187.049311,121.355815 C187.049311,119.698961 188.392457,118.355815 190.049311,118.355815 Z" id="矩形" fill="url(#linearGradient-14)" transform="translate(191.594765, 130.173997) rotate(-35.000000) translate(-191.594765, -130.173997) "></path>
                        <circle id="椭圆形" fill="url(#linearGradient-15)" opacity="0.638183594" cx="168.181818" cy="107.272727" r="25.4545455"></circle>
                        <circle id="椭圆形" stroke="url(#linearGradient-17)" stroke-width="9" fill="url(#radialGradient-16)" cx="174.545455" cy="103.636364" r="21.3636364"></circle>
                    </g>
                </g>
            </g>
        </g>
    </g>
</svg>