<svg xmlns="http://www.w3.org/2000/svg" fill="none" viewBox="0 0 200 200" class="design-iconfont">
  <path d="M192 100C192 150.81 150.81 192 100 192C49.1898 192 8 150.81 8 100C8 49.1898 49.1898 8 100 8C150.81 8 192 49.1898 192 100Z" fill="#F8F9FD"/>
  <rect x="44.5" y="30.5" width="108" height="108" rx="4.5" stroke="#B8BED5"/>
  <path stroke="#B8BED5" stroke-linecap="round" d="M60.5 49.5L137.5 49.5"/>
  <g filter="url(#zj2qkyxu2__filter0_f_4831_30188)">
    <path fill="#D9DDEE" d="M97.5 168A67.5 2 0 1 0 97.5 172A67.5 2 0 1 0 97.5 168Z"/>
  </g>
  <g filter="url(#zj2qkyxu2__filter1_f_4831_30188)">
    <path fill="#8AAEED" fill-opacity=".5" d="M55.5 171A17.5 1.5 0 1 0 55.5 174A17.5 1.5 0 1 0 55.5 171Z"/>
  </g>
  <g filter="url(#zj2qkyxu2__filter2_f_4831_30188)">
    <path fill="#D9DDEE" fill-opacity=".5" d="M146.5 182A18.5 2 0 1 0 146.5 186A18.5 2 0 1 0 146.5 182Z"/>
  </g>
  <rect x="55" y="56" width="103" height="110" rx="5" fill="#D9DDEE"/>
  <rect x="82.5" y="94.5" width="18" height="33" rx=".5" stroke="#F5F7FF"/>
  <rect x="112.5" y="85.5" width="18" height="34" rx=".5" stroke="#F5F7FF"/>
  <path stroke="#F5F7FF" stroke-linecap="round" d="M121.5 85.5L121.5 75.5"/>
  <path stroke="#F5F7FF" stroke-linecap="round" d="M121.5 129.5L121.5 119.5"/>
  <path d="M63.037 150H51.963L51.2394 162.774C51.1094 165.068 52.9349 167 55.233 167H59.767C62.0651 167 63.8906 165.068 63.7606 162.774L63.037 150Z" fill="#F26610"/>
  <path d="M62.5942 156.329C63.4117 156.995 65.9262 157.696 69.4443 155.178" stroke="#F26610" stroke-width="3" stroke-linecap="round"/>
  <path d="M60.2754 164C60.2754 165.846 59.7754 168.923 59.2754 172" stroke="#F26610" stroke-width="3" stroke-linecap="round"/>
  <path d="M54.2754 164C54.2754 165.846 53.7246 171 56 172" stroke="#F26610" stroke-width="3" stroke-linecap="round"/>
  <path d="M47.4995 163C48.9995 162.5 50.4995 160 51.888 158.122" stroke="#F26610" stroke-width="3" stroke-linecap="round"/>
  <path fill-rule="evenodd" clip-rule="evenodd" d="M57.247 157.869C52.3688 157.869 48.0413 155.511 45.3418 151.873C41.7032 149.174 39.3451 144.846 39.3451 139.967C39.3451 135.088 41.7032 130.761 45.3418 128.061C48.0413 124.423 52.3688 122.065 57.247 122.065C62.1256 122.065 66.4534 124.423 69.1528 128.062C72.7908 130.761 75.1484 135.089 75.1484 139.967C75.1484 144.845 72.7908 149.173 69.1528 151.872C66.4534 155.511 62.1256 157.869 57.247 157.869Z" fill="#FA6D16"/>
  <path transform="matrix(-1 0 0 1 57.5 139.5)" fill="#FFF5E7" d="M0 -11.5A11.5 11.5 0 1 0 0 11.5A11.5 11.5 0 1 0 0 -11.5Z"/>
  <path transform="matrix(0 -1 -1 0 62 136.5)" fill="#1F2D56" d="M0 -1A1.5 1 0 1 0 0 1A1.5 1 0 1 0 0 -1Z"/>
  <path transform="matrix(-1 0 0 1 52 136.5)" fill="#1F2D56" d="M0 -1.5A1 1.5 0 1 0 0 1.5A1 1.5 0 1 0 0 -1.5Z"/>
  <path d="M57.5528 138.776C57.6763 138.529 57.9766 138.429 58.2236 138.553C58.4706 138.676 58.5707 138.977 58.4472 139.224L57.5528 138.776ZM55.5528 139.224C55.4293 138.977 55.5294 138.676 55.7764 138.553C56.0234 138.429 56.3237 138.529 56.4472 138.776L55.5528 139.224ZM58.4472 139.224C57.8509 140.416 56.1491 140.416 55.5528 139.224L56.4472 138.776C56.675 139.232 57.325 139.232 57.5528 138.776L58.4472 139.224Z" fill="#FA6D16"/>
  <path d="M59.0473 158.864L56.2168 161.686L57.3992 162.864L60.2297 160.042L59.0473 158.864Z" fill="#FFF5E7"/>
  <path d="M55.7839 158.896L54.6016 160.075L55.7839 161.254L56.9663 160.075L55.7839 158.896Z" fill="#FFF5E7"/>
  <g filter="url(#zj2qkyxu2__filter3_bii_4831_30188)">
    <path fill="#D9DDEE" fill-opacity=".4" d="M148 128A26 26 0 1 0 148 180A26 26 0 1 0 148 128Z"/>
  </g>
  <path stroke="#F5F7FF" stroke-linecap="round" d="M91.5 94.5L91.5 84.5"/>
  <path stroke="#F5F7FF" stroke-linecap="round" d="M91.5 138.5L91.5 127.5"/>
  <defs>
    <filter id="zj2qkyxu2__filter0_f_4831_30188" x="26" y="164" width="143" height="12" filterUnits="userSpaceOnUse" color-interpolation-filters="sRGB">
      <feFlood flood-opacity="0" result="BackgroundImageFix"/>
      <feBlend in="SourceGraphic" in2="BackgroundImageFix" result="shape"/>
      <feGaussianBlur stdDeviation="2" result="effect1_foregroundBlur_4831_30188"/>
    </filter>
    <filter id="zj2qkyxu2__filter1_f_4831_30188" x="34" y="167" width="43" height="11" filterUnits="userSpaceOnUse" color-interpolation-filters="sRGB">
      <feFlood flood-opacity="0" result="BackgroundImageFix"/>
      <feBlend in="SourceGraphic" in2="BackgroundImageFix" result="shape"/>
      <feGaussianBlur stdDeviation="2" result="effect1_foregroundBlur_4831_30188"/>
    </filter>
    <filter id="zj2qkyxu2__filter2_f_4831_30188" x="124" y="178" width="45" height="12" filterUnits="userSpaceOnUse" color-interpolation-filters="sRGB">
      <feFlood flood-opacity="0" result="BackgroundImageFix"/>
      <feBlend in="SourceGraphic" in2="BackgroundImageFix" result="shape"/>
      <feGaussianBlur stdDeviation="2" result="effect1_foregroundBlur_4831_30188"/>
    </filter>
    <filter id="zj2qkyxu2__filter3_bii_4831_30188" x="118" y="123" width="60" height="61" filterUnits="userSpaceOnUse" color-interpolation-filters="sRGB">
      <feFlood flood-opacity="0" result="BackgroundImageFix"/>
      <feGaussianBlur in="BackgroundImage" stdDeviation="2"/>
      <feComposite in2="SourceAlpha" operator="in" result="effect1_backgroundBlur_4831_30188"/>
      <feBlend in="SourceGraphic" in2="effect1_backgroundBlur_4831_30188" result="shape"/>
      <feColorMatrix in="SourceAlpha" values="0 0 0 0 0 0 0 0 0 0 0 0 0 0 0 0 0 0 127 0" result="hardAlpha"/>
      <feOffset dy="9"/>
      <feGaussianBlur stdDeviation="2"/>
      <feComposite in2="hardAlpha" operator="arithmetic" k2="-1" k3="1"/>
      <feColorMatrix values="0 0 0 0 1 0 0 0 0 1 0 0 0 0 1 0 0 0 0.35 0"/>
      <feBlend in2="shape" result="effect2_innerShadow_4831_30188"/>
      <feColorMatrix in="SourceAlpha" values="0 0 0 0 0 0 0 0 0 0 0 0 0 0 0 0 0 0 127 0" result="hardAlpha"/>
      <feOffset dy="-5"/>
      <feGaussianBlur stdDeviation="6"/>
      <feComposite in2="hardAlpha" operator="arithmetic" k2="-1" k3="1"/>
      <feColorMatrix values="0 0 0 0 0.856825 0 0 0 0 0.883967 0 0 0 0 0.99932 0 0 0 1 0"/>
      <feBlend in2="effect2_innerShadow_4831_30188" result="effect3_innerShadow_4831_30188"/>
    </filter>
  </defs>
</svg>
