<?xml version="1.0" encoding="UTF-8"?>
<svg width="40px" height="40px" viewBox="0 0 40 40" version="1.1" xmlns="http://www.w3.org/2000/svg" xmlns:xlink="http://www.w3.org/1999/xlink">
    <title>搜索窝轮-白</title>
    <g id="白色皮肤" stroke="none" stroke-width="1" fill="none" fill-rule="evenodd">
        <g id="切图汇总" transform="translate(-952.000000, -699.000000)" fill="#666666" fill-rule="nonzero">
            <g id="编组-57" transform="translate(952.000000, 699.000000)">
                <g id="sousuo-2" transform="translate(4.000000, 4.000000)">
                    <path d="M31.6167322,29.770629 L26.0481027,24.2133219 L26.0456899,24.2110365 C26.9999125,23.0836313 27.7779316,21.8187895 28.353394,20.4593543 C29.1232013,18.6429552 29.5135439,16.7142019 29.5135439,14.72668 C29.5135439,12.7391173 29.1232013,10.8104049 28.353394,8.99400581 C27.6100867,7.24021161 26.5462446,5.66541681 25.1914345,4.31337139 C23.8365836,2.96132597 22.2585688,1.89961382 20.5011885,1.15782332 C18.6810753,0.389546125 16.7483783,0 14.7567924,0 C12.7651657,0 10.8325095,0.389546125 9.01239629,1.15782332 C7.25501603,1.89961382 5.67700117,2.96128516 4.32219115,4.31337139 C2.96734024,5.66541681 1.90349805,7.24025242 1.16019078,8.99400581 C0.390342649,10.8104049 0,12.7391582 0,14.72668 C0,16.7142019 0.390342649,18.6429552 1.16019078,20.4593543 C1.90349805,22.2131893 2.96734024,23.7879841 4.32219115,25.1400295 C5.67700117,26.4920749 7.25505692,27.5537871 9.01239629,28.2955367 C10.8325095,29.0637731 12.7652065,29.4533193 14.7567924,29.4533193 C16.7483783,29.4533193 18.6810753,29.0637731 20.5011885,28.2955367 C21.8417262,27.7297256 23.07745,26.9772017 24.1897936,26.0522082 C24.19237,26.0548201 24.1947828,26.0575953 24.1974001,26.0601664 L29.7660296,31.6174735 C30.0216232,31.8725456 30.3564714,32 30.6914013,32 C31.0262495,32 31.3612612,31.8724639 31.6167322,31.6175143 C32.1277559,31.1075333 32.1277559,30.2806099 31.6167322,29.770629 Z M14.7567924,26.9356147 C11.4889967,26.9356147 8.41680171,25.6656413 6.10611227,23.3597078 C3.79542283,21.0537335 2.52289352,17.9878076 2.52289352,14.72668 C2.52289352,11.4655525 3.79542283,8.39962657 6.10611227,6.09365228 C8.41676081,3.78767798 11.4889558,2.51774537 14.7567924,2.51774537 C18.024629,2.51774537 21.0967831,3.78767798 23.4074725,6.09365228 C25.7181211,8.39958576 26.9906913,11.4655117 26.9906913,14.72668 C26.9906913,17.9878484 25.7181211,21.0537335 23.4074725,23.3597078 C21.0967831,25.6656413 18.0245881,26.9356147 14.7567924,26.9356147 Z" id="形状"></path>
                </g>
            </g>
        </g>
    </g>
</svg>