<svg fill="none" xmlns="http://www.w3.org/2000/svg" viewBox="0 0 613 120" class="design-iconfont">
  <g opacity=".5">
    <path stroke="url(#d9r6940ib__paint0_linear_10793_44865)" d="M0.5 2e-8L0.499995 120"/>
    <path stroke="url(#d9r6940ib__paint1_linear_10793_44865)" d="M27.5 1e-8L27.5 120"/>
    <path stroke="url(#d9r6940ib__paint2_linear_10793_44865)" d="M54.5 1e-8L54.5 120"/>
    <path stroke="url(#d9r6940ib__paint3_linear_10793_44865)" d="M81.5 1e-8L81.5 120"/>
    <path stroke="url(#d9r6940ib__paint4_linear_10793_44865)" d="M108.5 1e-8L108.5 120"/>
    <path stroke="url(#d9r6940ib__paint5_linear_10793_44865)" d="M137.5 1e-8L137.5 120"/>
    <path stroke="url(#d9r6940ib__paint6_linear_10793_44865)" d="M163.5 1e-8L163.5 120"/>
    <path stroke="url(#d9r6940ib__paint7_linear_10793_44865)" d="M191.5 1e-8L191.5 120"/>
    <path stroke="url(#d9r6940ib__paint8_linear_10793_44865)" d="M218.5 1e-8L218.5 120"/>
    <path stroke="url(#d9r6940ib__paint9_linear_10793_44865)" d="M244.5 1e-8L244.5 120"/>
    <path stroke="url(#d9r6940ib__paint10_linear_10793_44865)" d="M272.5 1e-8L272.5 120"/>
    <path stroke="url(#d9r6940ib__paint11_linear_10793_44865)" d="M299.5 1e-8L299.5 120"/>
    <path stroke="url(#d9r6940ib__paint12_linear_10793_44865)" d="M328.5 1e-8L328.5 120"/>
    <path stroke="url(#d9r6940ib__paint13_linear_10793_44865)" d="M355.5 1e-8L355.5 120"/>
    <path stroke="url(#d9r6940ib__paint14_linear_10793_44865)" d="M381.5 1e-8L381.5 120"/>
    <path stroke="url(#d9r6940ib__paint15_linear_10793_44865)" d="M409.5 1e-8L409.5 120"/>
    <path stroke="url(#d9r6940ib__paint16_linear_10793_44865)" d="M436.5 1e-8L436.5 120"/>
    <path stroke="url(#d9r6940ib__paint17_linear_10793_44865)" d="M462.5 1e-8L462.5 120"/>
    <path stroke="url(#d9r6940ib__paint18_linear_10793_44865)" d="M490.5 1e-8L490.5 120"/>
    <path stroke="url(#d9r6940ib__paint19_linear_10793_44865)" d="M518.5 1e-8L518.5 120"/>
    <path stroke="url(#d9r6940ib__paint20_linear_10793_44865)" d="M546.5 1e-8L546.5 120"/>
    <path stroke="url(#d9r6940ib__paint21_linear_10793_44865)" d="M572.5 1e-8L572.5 120"/>
    <path stroke="url(#d9r6940ib__paint22_linear_10793_44865)" d="M599.5 1e-8L599.5 120"/>
    <path stroke="url(#d9r6940ib__paint23_linear_10793_44865)" d="M14.5 1e-8L14.5 120"/>
    <path stroke="url(#d9r6940ib__paint24_linear_10793_44865)" d="M41.5 1e-8L41.5 120"/>
    <path stroke="url(#d9r6940ib__paint25_linear_10793_44865)" d="M67.5 1e-8L67.5 120"/>
    <path stroke="url(#d9r6940ib__paint26_linear_10793_44865)" d="M95.5 1e-8L95.5 120"/>
    <path stroke="url(#d9r6940ib__paint27_linear_10793_44865)" d="M123.5 1e-8L123.5 120"/>
    <path stroke="url(#d9r6940ib__paint28_linear_10793_44865)" d="M151.5 1e-8L151.5 120"/>
    <path stroke="url(#d9r6940ib__paint29_linear_10793_44865)" d="M177.5 1e-8L177.5 120"/>
    <path stroke="url(#d9r6940ib__paint30_linear_10793_44865)" d="M204.5 1e-8L204.5 120"/>
    <path stroke="url(#d9r6940ib__paint31_linear_10793_44865)" d="M232.5 1e-8L232.5 120"/>
    <path stroke="url(#d9r6940ib__paint32_linear_10793_44865)" d="M258.5 1e-8L258.5 120"/>
    <path stroke="url(#d9r6940ib__paint33_linear_10793_44865)" d="M285.5 1e-8L285.5 120"/>
    <path stroke="url(#d9r6940ib__paint34_linear_10793_44865)" d="M314.5 1e-8L314.5 120"/>
    <path stroke="url(#d9r6940ib__paint35_linear_10793_44865)" d="M341.5 1e-8L341.5 120"/>
    <path stroke="url(#d9r6940ib__paint36_linear_10793_44865)" d="M369.5 1e-8L369.5 120"/>
    <path stroke="url(#d9r6940ib__paint37_linear_10793_44865)" d="M395.5 1e-8L395.5 120"/>
    <path stroke="url(#d9r6940ib__paint38_linear_10793_44865)" d="M422.5 1e-8L422.5 120"/>
    <path stroke="url(#d9r6940ib__paint39_linear_10793_44865)" d="M450.5 1e-8L450.5 120"/>
    <path stroke="url(#d9r6940ib__paint40_linear_10793_44865)" d="M476.5 1e-8L476.5 120"/>
    <path stroke="url(#d9r6940ib__paint41_linear_10793_44865)" d="M505.5 1e-8L505.5 120"/>
    <path stroke="url(#d9r6940ib__paint42_linear_10793_44865)" d="M532.5 1e-8L532.5 120"/>
    <path stroke="url(#d9r6940ib__paint43_linear_10793_44865)" d="M559.5 1e-8L559.5 120"/>
    <path stroke="url(#d9r6940ib__paint44_linear_10793_44865)" d="M586.5 1e-8L586.5 120"/>
  </g>
  <defs>
    <linearGradient id="d9r6940ib__paint0_linear_10793_44865" x1="-.00000257" y1="60" x2="-1" y2="60" gradientUnits="userSpaceOnUse">
      <stop stop-color="#FFF5E8"/>
      <stop offset="1" stop-color="#FFF5E8" stop-opacity="0"/>
    </linearGradient>
    <linearGradient id="d9r6940ib__paint1_linear_10793_44865" x1="27" y1="60" x2="26" y2="60" gradientUnits="userSpaceOnUse">
      <stop stop-color="#FFF5E8"/>
      <stop offset="1" stop-color="#FFF5E8" stop-opacity="0"/>
    </linearGradient>
    <linearGradient id="d9r6940ib__paint2_linear_10793_44865" x1="54" y1="60" x2="53" y2="60" gradientUnits="userSpaceOnUse">
      <stop stop-color="#FFF5E8"/>
      <stop offset="1" stop-color="#FFF5E8" stop-opacity="0"/>
    </linearGradient>
    <linearGradient id="d9r6940ib__paint3_linear_10793_44865" x1="81" y1="60" x2="80" y2="60" gradientUnits="userSpaceOnUse">
      <stop stop-color="#FFF5E8"/>
      <stop offset="1" stop-color="#FFF5E8" stop-opacity="0"/>
    </linearGradient>
    <linearGradient id="d9r6940ib__paint4_linear_10793_44865" x1="108" y1="60" x2="107" y2="60" gradientUnits="userSpaceOnUse">
      <stop stop-color="#FFF5E8"/>
      <stop offset="1" stop-color="#FFF5E8" stop-opacity="0"/>
    </linearGradient>
    <linearGradient id="d9r6940ib__paint5_linear_10793_44865" x1="137" y1="60" x2="136" y2="60" gradientUnits="userSpaceOnUse">
      <stop stop-color="#FFF5E8"/>
      <stop offset="1" stop-color="#FFF5E8" stop-opacity="0"/>
    </linearGradient>
    <linearGradient id="d9r6940ib__paint6_linear_10793_44865" x1="163" y1="60" x2="162" y2="60" gradientUnits="userSpaceOnUse">
      <stop stop-color="#FFF5E8"/>
      <stop offset="1" stop-color="#FFF5E8" stop-opacity="0"/>
    </linearGradient>
    <linearGradient id="d9r6940ib__paint7_linear_10793_44865" x1="191" y1="60" x2="190" y2="60" gradientUnits="userSpaceOnUse">
      <stop stop-color="#FFF5E8"/>
      <stop offset="1" stop-color="#FFF5E8" stop-opacity="0"/>
    </linearGradient>
    <linearGradient id="d9r6940ib__paint8_linear_10793_44865" x1="218" y1="60" x2="217" y2="60" gradientUnits="userSpaceOnUse">
      <stop stop-color="#FFF5E8"/>
      <stop offset="1" stop-color="#FFF5E8" stop-opacity="0"/>
    </linearGradient>
    <linearGradient id="d9r6940ib__paint9_linear_10793_44865" x1="244" y1="60" x2="243" y2="60" gradientUnits="userSpaceOnUse">
      <stop stop-color="#FFF5E8"/>
      <stop offset="1" stop-color="#FFF5E8" stop-opacity="0"/>
    </linearGradient>
    <linearGradient id="d9r6940ib__paint10_linear_10793_44865" x1="272" y1="60" x2="271" y2="60" gradientUnits="userSpaceOnUse">
      <stop stop-color="#FFF5E8"/>
      <stop offset="1" stop-color="#FFF5E8" stop-opacity="0"/>
    </linearGradient>
    <linearGradient id="d9r6940ib__paint11_linear_10793_44865" x1="299" y1="60" x2="298" y2="60" gradientUnits="userSpaceOnUse">
      <stop stop-color="#FFF5E8"/>
      <stop offset="1" stop-color="#FFF5E8" stop-opacity="0"/>
    </linearGradient>
    <linearGradient id="d9r6940ib__paint12_linear_10793_44865" x1="328" y1="60" x2="327" y2="60" gradientUnits="userSpaceOnUse">
      <stop stop-color="#FFF5E8"/>
      <stop offset="1" stop-color="#FFF5E8" stop-opacity="0"/>
    </linearGradient>
    <linearGradient id="d9r6940ib__paint13_linear_10793_44865" x1="355" y1="60" x2="354" y2="60" gradientUnits="userSpaceOnUse">
      <stop stop-color="#FFF5E8"/>
      <stop offset="1" stop-color="#FFF5E8" stop-opacity="0"/>
    </linearGradient>
    <linearGradient id="d9r6940ib__paint14_linear_10793_44865" x1="381" y1="60" x2="380" y2="60" gradientUnits="userSpaceOnUse">
      <stop stop-color="#FFF5E8"/>
      <stop offset="1" stop-color="#FFF5E8" stop-opacity="0"/>
    </linearGradient>
    <linearGradient id="d9r6940ib__paint15_linear_10793_44865" x1="409" y1="60" x2="408" y2="60" gradientUnits="userSpaceOnUse">
      <stop stop-color="#FFF5E8"/>
      <stop offset="1" stop-color="#FFF5E8" stop-opacity="0"/>
    </linearGradient>
    <linearGradient id="d9r6940ib__paint16_linear_10793_44865" x1="436" y1="60" x2="435" y2="60" gradientUnits="userSpaceOnUse">
      <stop stop-color="#FFF5E8"/>
      <stop offset="1" stop-color="#FFF5E8" stop-opacity="0"/>
    </linearGradient>
    <linearGradient id="d9r6940ib__paint17_linear_10793_44865" x1="462" y1="60" x2="461" y2="60" gradientUnits="userSpaceOnUse">
      <stop stop-color="#FFF5E8"/>
      <stop offset="1" stop-color="#FFF5E8" stop-opacity="0"/>
    </linearGradient>
    <linearGradient id="d9r6940ib__paint18_linear_10793_44865" x1="490" y1="60" x2="489" y2="60" gradientUnits="userSpaceOnUse">
      <stop stop-color="#FFF5E8"/>
      <stop offset="1" stop-color="#FFF5E8" stop-opacity="0"/>
    </linearGradient>
    <linearGradient id="d9r6940ib__paint19_linear_10793_44865" x1="518" y1="60" x2="517" y2="60" gradientUnits="userSpaceOnUse">
      <stop stop-color="#FFF5E8"/>
      <stop offset="1" stop-color="#FFF5E8" stop-opacity="0"/>
    </linearGradient>
    <linearGradient id="d9r6940ib__paint20_linear_10793_44865" x1="546" y1="60" x2="545" y2="60" gradientUnits="userSpaceOnUse">
      <stop stop-color="#FFF5E8"/>
      <stop offset="1" stop-color="#FFF5E8" stop-opacity="0"/>
    </linearGradient>
    <linearGradient id="d9r6940ib__paint21_linear_10793_44865" x1="572" y1="60" x2="571" y2="60" gradientUnits="userSpaceOnUse">
      <stop stop-color="#FFF5E8"/>
      <stop offset="1" stop-color="#FFF5E8" stop-opacity="0"/>
    </linearGradient>
    <linearGradient id="d9r6940ib__paint22_linear_10793_44865" x1="599" y1="60" x2="598" y2="60" gradientUnits="userSpaceOnUse">
      <stop stop-color="#FFF5E8"/>
      <stop offset="1" stop-color="#FFF5E8" stop-opacity="0"/>
    </linearGradient>
    <linearGradient id="d9r6940ib__paint23_linear_10793_44865" x1="14" y1="60" x2="13" y2="60" gradientUnits="userSpaceOnUse">
      <stop stop-color="#FFF5E8"/>
      <stop offset="1" stop-color="#FFF5E8" stop-opacity="0"/>
    </linearGradient>
    <linearGradient id="d9r6940ib__paint24_linear_10793_44865" x1="41" y1="60" x2="40" y2="60" gradientUnits="userSpaceOnUse">
      <stop stop-color="#FFF5E8"/>
      <stop offset="1" stop-color="#FFF5E8" stop-opacity="0"/>
    </linearGradient>
    <linearGradient id="d9r6940ib__paint25_linear_10793_44865" x1="67" y1="60" x2="66" y2="60" gradientUnits="userSpaceOnUse">
      <stop stop-color="#FFF5E8"/>
      <stop offset="1" stop-color="#FFF5E8" stop-opacity="0"/>
    </linearGradient>
    <linearGradient id="d9r6940ib__paint26_linear_10793_44865" x1="95" y1="60" x2="94" y2="60" gradientUnits="userSpaceOnUse">
      <stop stop-color="#FFF5E8"/>
      <stop offset="1" stop-color="#FFF5E8" stop-opacity="0"/>
    </linearGradient>
    <linearGradient id="d9r6940ib__paint27_linear_10793_44865" x1="123" y1="60" x2="122" y2="60" gradientUnits="userSpaceOnUse">
      <stop stop-color="#FFF5E8"/>
      <stop offset="1" stop-color="#FFF5E8" stop-opacity="0"/>
    </linearGradient>
    <linearGradient id="d9r6940ib__paint28_linear_10793_44865" x1="151" y1="60" x2="150" y2="60" gradientUnits="userSpaceOnUse">
      <stop stop-color="#FFF5E8"/>
      <stop offset="1" stop-color="#FFF5E8" stop-opacity="0"/>
    </linearGradient>
    <linearGradient id="d9r6940ib__paint29_linear_10793_44865" x1="177" y1="60" x2="176" y2="60" gradientUnits="userSpaceOnUse">
      <stop stop-color="#FFF5E8"/>
      <stop offset="1" stop-color="#FFF5E8" stop-opacity="0"/>
    </linearGradient>
    <linearGradient id="d9r6940ib__paint30_linear_10793_44865" x1="204" y1="60" x2="203" y2="60" gradientUnits="userSpaceOnUse">
      <stop stop-color="#FFF5E8"/>
      <stop offset="1" stop-color="#FFF5E8" stop-opacity="0"/>
    </linearGradient>
    <linearGradient id="d9r6940ib__paint31_linear_10793_44865" x1="232" y1="60" x2="231" y2="60" gradientUnits="userSpaceOnUse">
      <stop stop-color="#FFF5E8"/>
      <stop offset="1" stop-color="#FFF5E8" stop-opacity="0"/>
    </linearGradient>
    <linearGradient id="d9r6940ib__paint32_linear_10793_44865" x1="258" y1="60" x2="257" y2="60" gradientUnits="userSpaceOnUse">
      <stop stop-color="#FFF5E8"/>
      <stop offset="1" stop-color="#FFF5E8" stop-opacity="0"/>
    </linearGradient>
    <linearGradient id="d9r6940ib__paint33_linear_10793_44865" x1="285" y1="60" x2="284" y2="60" gradientUnits="userSpaceOnUse">
      <stop stop-color="#FFF5E8"/>
      <stop offset="1" stop-color="#FFF5E8" stop-opacity="0"/>
    </linearGradient>
    <linearGradient id="d9r6940ib__paint34_linear_10793_44865" x1="314" y1="60" x2="313" y2="60" gradientUnits="userSpaceOnUse">
      <stop stop-color="#FFF5E8"/>
      <stop offset="1" stop-color="#FFF5E8" stop-opacity="0"/>
    </linearGradient>
    <linearGradient id="d9r6940ib__paint35_linear_10793_44865" x1="341" y1="60" x2="340" y2="60" gradientUnits="userSpaceOnUse">
      <stop stop-color="#FFF5E8"/>
      <stop offset="1" stop-color="#FFF5E8" stop-opacity="0"/>
    </linearGradient>
    <linearGradient id="d9r6940ib__paint36_linear_10793_44865" x1="369" y1="60" x2="368" y2="60" gradientUnits="userSpaceOnUse">
      <stop stop-color="#FFF5E8"/>
      <stop offset="1" stop-color="#FFF5E8" stop-opacity="0"/>
    </linearGradient>
    <linearGradient id="d9r6940ib__paint37_linear_10793_44865" x1="395" y1="60" x2="394" y2="60" gradientUnits="userSpaceOnUse">
      <stop stop-color="#FFF5E8"/>
      <stop offset="1" stop-color="#FFF5E8" stop-opacity="0"/>
    </linearGradient>
    <linearGradient id="d9r6940ib__paint38_linear_10793_44865" x1="422" y1="60" x2="421" y2="60" gradientUnits="userSpaceOnUse">
      <stop stop-color="#FFF5E8"/>
      <stop offset="1" stop-color="#FFF5E8" stop-opacity="0"/>
    </linearGradient>
    <linearGradient id="d9r6940ib__paint39_linear_10793_44865" x1="450" y1="60" x2="449" y2="60" gradientUnits="userSpaceOnUse">
      <stop stop-color="#FFF5E8"/>
      <stop offset="1" stop-color="#FFF5E8" stop-opacity="0"/>
    </linearGradient>
    <linearGradient id="d9r6940ib__paint40_linear_10793_44865" x1="476" y1="60" x2="475" y2="60" gradientUnits="userSpaceOnUse">
      <stop stop-color="#FFF5E8"/>
      <stop offset="1" stop-color="#FFF5E8" stop-opacity="0"/>
    </linearGradient>
    <linearGradient id="d9r6940ib__paint41_linear_10793_44865" x1="505" y1="60" x2="504" y2="60" gradientUnits="userSpaceOnUse">
      <stop stop-color="#FFF5E8"/>
      <stop offset="1" stop-color="#FFF5E8" stop-opacity="0"/>
    </linearGradient>
    <linearGradient id="d9r6940ib__paint42_linear_10793_44865" x1="532" y1="60" x2="531" y2="60" gradientUnits="userSpaceOnUse">
      <stop stop-color="#FFF5E8"/>
      <stop offset="1" stop-color="#FFF5E8" stop-opacity="0"/>
    </linearGradient>
    <linearGradient id="d9r6940ib__paint43_linear_10793_44865" x1="559" y1="60" x2="558" y2="60" gradientUnits="userSpaceOnUse">
      <stop stop-color="#FFF5E8"/>
      <stop offset="1" stop-color="#FFF5E8" stop-opacity="0"/>
    </linearGradient>
    <linearGradient id="d9r6940ib__paint44_linear_10793_44865" x1="586" y1="60" x2="585" y2="60" gradientUnits="userSpaceOnUse">
      <stop stop-color="#FFF5E8"/>
      <stop offset="1" stop-color="#FFF5E8" stop-opacity="0"/>
    </linearGradient>
  </defs>
</svg>
