<svg fill="none" xmlns="http://www.w3.org/2000/svg" viewBox="0 0 686 589" class="design-iconfont">
  <path d="M0 0L334.494 126.776C339.975 128.853 346.025 128.853 351.506 126.776L686 0V565C686 578.255 675.255 589 662 589H24C10.7452 589 0 578.255 0 565V0Z" fill="url(#c95rmk978__paint0_linear_10793_44864)"/>
  <path d="M0 36L334.494 162.776C339.975 164.853 346.025 164.853 351.506 162.776L686 36" stroke="#F4DDC3"/>
  <path fill-rule="evenodd" clip-rule="evenodd" d="M383.305 294.962C387.194 297.817 390.355 301.544 392.533 305.841C394.712 310.138 395.847 314.886 395.847 319.701C395.847 324.516 394.712 329.263 392.533 333.56C390.355 337.858 387.194 341.584 383.305 344.44C380.817 346.274 378.619 348.47 376.783 350.954C373.917 354.829 370.177 357.978 365.866 360.149C361.555 362.319 356.793 363.45 351.964 363.45C347.135 363.45 342.373 362.319 338.062 360.149C333.751 357.978 330.011 354.829 327.144 350.954C325.308 348.457 323.105 346.249 320.61 344.403C316.724 341.546 313.565 337.819 311.388 333.522C309.211 329.225 308.077 324.478 308.077 319.664C308.077 314.85 309.211 310.103 311.388 305.806C313.565 301.509 316.724 297.782 320.61 294.925C323.099 293.12 325.302 290.953 327.144 288.496C330.011 284.621 333.751 281.472 338.062 279.301C342.373 277.131 347.135 276 351.964 276C356.793 276 361.555 277.131 365.866 279.301C370.177 281.472 373.917 284.621 376.783 288.496C378.616 290.983 380.814 293.179 383.305 295.01V294.962ZM368.613 302.285L340.116 330.697L352.02 342.565L380.517 314.153L368.613 302.285ZM323.859 314.485L335.763 302.617L347.667 314.485L335.763 326.354L323.859 314.485Z" fill="#F4DDC3"/>
  <path d="M326.801 381.258L320.228 396.963L313.733 381.258H308L318.197 405H322.323L332.534 381.258H326.801Z" fill="#F4DDC3"/>
  <path d="M381.81 384.424C379.705 384.459 377.658 385.093 375.926 386.245C374.194 387.396 372.853 389.015 372.073 390.898C371.293 392.781 371.108 394.844 371.541 396.828C371.974 398.812 373.006 400.628 374.508 402.049C376.009 403.47 377.913 404.432 379.98 404.815C382.047 405.198 384.186 404.984 386.127 404.2C388.069 403.416 389.726 402.098 390.892 400.41C392.058 398.722 392.68 396.74 392.681 394.713C392.668 393.35 392.378 392.002 391.825 390.748C391.272 389.493 390.467 388.355 389.458 387.4C388.449 386.444 387.254 385.69 385.941 385.179C384.629 384.669 383.225 384.412 381.81 384.424ZM381.91 399.432C380.922 399.404 379.964 399.097 379.156 398.549C378.348 398 377.726 397.235 377.367 396.348C377.009 395.461 376.929 394.491 377.139 393.561C377.349 392.631 377.839 391.781 378.548 391.117C379.257 390.454 380.153 390.006 381.124 389.83C382.096 389.654 383.1 389.758 384.01 390.128C384.921 390.498 385.698 391.119 386.245 391.912C386.791 392.705 387.083 393.636 387.084 394.588C387.061 395.89 386.504 397.13 385.535 398.038C384.565 398.945 383.262 399.446 381.91 399.432Z" fill="#F4DDC3"/>
  <path d="M345.537 391.113L343.4 395.868H350.522C349.66 398.388 347.438 399.945 344.39 399.945C343.481 399.958 342.579 399.79 341.738 399.452C340.897 399.114 340.135 398.612 339.497 397.977C338.858 397.343 338.358 396.588 338.025 395.759C337.693 394.929 337.534 394.043 337.56 393.152C337.527 392.275 337.674 391.4 337.994 390.58C338.314 389.761 338.799 389.013 339.421 388.382C340.043 387.75 340.789 387.249 341.613 386.907C342.438 386.566 343.324 386.391 344.219 386.393C345.725 386.323 347.208 386.77 348.414 387.657H355.286C353.527 383.468 349.133 381.261 344.148 381.261C342.533 381.222 340.927 381.5 339.423 382.079C337.919 382.658 336.549 383.526 335.393 384.632C334.237 385.739 333.319 387.06 332.692 388.52C332.064 389.979 331.742 391.547 331.742 393.131C331.742 399.827 337.212 405 344.248 405C351.284 405 356.276 400.043 356.276 393.131C356.275 392.43 356.227 391.731 356.134 391.036L345.537 391.113Z" fill="#F4DDC3"/>
  <path d="M369.312 383.653C366.539 383.63 363.868 384.695 361.874 386.62C359.88 388.544 358.722 391.174 358.65 393.943V405H364.327V403.338V393.943C364.349 392.618 364.896 391.355 365.847 390.431C366.798 389.508 368.077 388.998 369.404 389.013H369.777L372.104 384.005C371.185 383.757 370.236 383.631 369.284 383.632" fill="#F4DDC3"/>
  <defs>
    <linearGradient id="c95rmk978__paint0_linear_10793_44864" x1="343" y1="0" x2="343" y2="589" gradientUnits="userSpaceOnUse">
      <stop stop-color="#FFF2E3"/>
      <stop offset="1" stop-color="#FFF2E3" stop-opacity="0"/>
    </linearGradient>
  </defs>
</svg>
