<?xml version="1.0" encoding="UTF-8"?>
<svg xmlns="http://www.w3.org/2000/svg" xmlns:xlink="http://www.w3.org/1999/xlink" width="242px" height="242px" viewBox="0 0 242 242" version="1.1">
  <title>无网络</title>
  <defs>
    <linearGradient x1="50%" y1="100%" x2="50%" y2="0%" id="linearGradient-1">
      <stop stop-color="#F5F7FA" stop-opacity="0" offset="0%"></stop>
      <stop stop-color="#D9DEE4" offset="100%"></stop>
    </linearGradient>
    <linearGradient x1="50%" y1="50%" x2="50%" y2="0%" id="linearGradient-2">
      <stop stop-color="#F5F7FA" stop-opacity="0" offset="0%"></stop>
      <stop stop-color="#D9DEE4" offset="100%"></stop>
    </linearGradient>
    <linearGradient x1="50%" y1="50%" x2="50%" y2="0%" id="linearGradient-3">
      <stop stop-color="#F5F7FA" stop-opacity="0" offset="0%"></stop>
      <stop stop-color="#D9DEE4" offset="100%"></stop>
    </linearGradient>
    <linearGradient x1="70.998387%" y1="56.749425%" x2="0%" y2="56.749425%" id="linearGradient-4">
      <stop stop-color="#D9DEE4" offset="0%"></stop>
      <stop stop-color="#F5F7FA" offset="100%"></stop>
    </linearGradient>
    <linearGradient x1="70.998387%" y1="56.749425%" x2="0%" y2="56.749425%" id="linearGradient-5">
      <stop stop-color="#D9DEE4" offset="0%"></stop>
      <stop stop-color="#F5F7FA" offset="100%"></stop>
    </linearGradient>
    <linearGradient x1="65.1004058%" y1="86.2401015%" x2="37.3065427%" y2="31.6951581%" id="linearGradient-6">
      <stop stop-color="#D9DEE4" offset="0%"></stop>
      <stop stop-color="#F5F7FA" offset="100%"></stop>
    </linearGradient>
    <linearGradient x1="50%" y1="100%" x2="50%" y2="0%" id="linearGradient-7">
      <stop stop-color="#D9DEE4" offset="0%"></stop>
      <stop stop-color="#F5F7FA" offset="100%"></stop>
    </linearGradient>
    <linearGradient x1="32.448772%" y1="34.4219487%" x2="88.6483952%" y2="85.4206839%" id="linearGradient-8">
      <stop stop-color="#D9DEE4" offset="0%"></stop>
      <stop stop-color="#F5F7FA" offset="100%"></stop>
    </linearGradient>
    <linearGradient x1="87.80021%" y1="0%" x2="-5.01532896%" y2="141.983998%" id="linearGradient-9">
      <stop stop-color="#BEBEBE" offset="0%"></stop>
      <stop stop-color="#E3E3E3" offset="100%"></stop>
    </linearGradient>
    <path d="M48.8690924,0.892017735 C45.8881186,-1.8112462 32.1012526,1.62968042 7.50849417,11.2147976 C0.402922353,36.5844736 -1.65944609,50.6208742 1.32138884,53.3239994 C5.79284942,57.3788953 20.0613865,48.9287319 33.1913967,34.4499349 C46.3211988,19.9711378 53.3403448,4.94670546 48.8690924,0.892017735 Z" id="path-10"></path>
    <linearGradient x1="0%" y1="50%" x2="100%" y2="50%" id="linearGradient-12">
      <stop stop-color="#D9DEE4" offset="0%"></stop>
      <stop stop-color="#F5F7FA" offset="100%"></stop>
    </linearGradient>
    <linearGradient x1="50%" y1="100%" x2="50%" y2="0%" id="linearGradient-13">
      <stop stop-color="#D9DEE4" offset="0%"></stop>
      <stop stop-color="#F5F7FA" offset="100%"></stop>
    </linearGradient>
    <linearGradient x1="1.04867999%" y1="102.155867%" x2="117.76408%" y2="21.1187425%" id="linearGradient-14">
      <stop stop-color="#D9DEE4" offset="0%"></stop>
      <stop stop-color="#F5F7FA" offset="100%"></stop>
    </linearGradient>
    <linearGradient x1="37.0984939%" y1="164.199896%" x2="104.827478%" y2="17.6930105%" id="linearGradient-15">
      <stop stop-color="#D9DEE4" offset="0%"></stop>
      <stop stop-color="#F5F7FA" offset="100%"></stop>
    </linearGradient>
    <linearGradient x1="27.613528%" y1="164.199896%" x2="145.135699%" y2="17.6930105%" id="linearGradient-16">
      <stop stop-color="#D9DEE4" offset="0%"></stop>
      <stop stop-color="#F5F7FA" offset="100%"></stop>
    </linearGradient>
    <linearGradient x1="27.0268006%" y1="164.199896%" x2="147.629112%" y2="17.6930105%" id="linearGradient-17">
      <stop stop-color="#D9DEE4" offset="0%"></stop>
      <stop stop-color="#F5F7FA" offset="100%"></stop>
    </linearGradient>
    <linearGradient x1="112.070048%" y1="-8.99906849%" x2="14.7768153%" y2="99.993389%" id="linearGradient-18">
      <stop stop-color="#50B4EB" offset="0%"></stop>
      <stop stop-color="#2758D1" offset="100%"></stop>
    </linearGradient>
  </defs>
  <g id="白色皮肤" stroke="none" stroke-width="1" fill="none" fill-rule="evenodd">
    <g id="切图汇总" transform="translate(-1550.000000, -302.000000)">
      <g id="编组-67" transform="translate(1550.000000, 302.000000)">
        <g id="网络信号丢失" transform="translate(121.000000, 120.894579) scale(-1, 1) translate(-121.000000, -120.894579) translate(1.000000, 46.000000)">
          <g id="编组-7" fill-rule="nonzero">
            <path d="M240,149.788385 C219.089297,104.432673 173.221049,72.9523566 120.000179,72.9523566 C66.7790058,72.9523566 20.9105385,104.433031 -4.37887085e-22,149.789159" id="路径" fill="url(#linearGradient-1)"></path>
            <path d="M57.5175716,19.4958884 C61.4319547,19.4958884 64.9303598,21.2698465 67.2466454,24.0546562 C67.7547774,23.9592306 68.2796876,23.9092191 68.816325,23.9092191 C73.4658332,23.9092191 77.2350041,27.6634585 77.2350041,32.2945474 C77.2350041,36.9256364 73.4658332,40.6798757 68.816325,40.6798757 C68.1650933,40.6798757 67.531132,40.6062247 66.9223792,40.466829 C64.6110236,43.0357309 61.2537834,44.6518734 57.5175716,44.6518734 C53.8186054,44.6518734 50.4910928,43.0677924 48.1815211,40.5435567 C47.6891078,40.6330819 47.1809935,40.6798757 46.6619064,40.6798757 C42.0123984,40.6798757 38.2432274,36.9256364 38.2432274,32.2945474 C38.2432274,27.6634585 42.0123984,23.9092191 46.6619064,23.9092191 C47.0621557,23.9092191 47.4558814,23.9370398 47.8412404,23.9908458 C50.1585996,21.2426748 53.6332823,19.4958884 57.5175716,19.4958884 Z" id="形状结合" fill="url(#linearGradient-2)"></path>
            <path d="M177.262204,0 C182.249999,0 186.707734,2.26189935 189.659128,5.81267092 C190.306672,5.69073401 190.975369,5.62699665 191.659003,5.62699665 C197.583376,5.62699665 202.386029,10.4136519 202.386029,16.3182903 C202.386029,22.2229287 197.583376,27.0095839 191.659003,27.0095839 C190.82942,27.0095839 190.021831,26.9157268 189.246344,26.7380856 C186.300695,30.0132704 182.022894,32.0738809 177.262204,32.0738809 C172.549322,32.0738809 168.309679,30.0544485 165.366861,26.8364245 C164.738625,26.9499416 164.091293,27.0095839 163.429986,27.0095839 C157.505613,27.0095839 152.70296,22.2229287 152.70296,16.3182903 C152.70296,10.4136519 157.505613,5.62699665 163.429986,5.62699665 C163.940381,5.62699665 164.442451,5.66252381 164.933841,5.7312323 C167.885127,2.2273149 172.312687,0 177.262204,0 Z" id="形状结合备份" fill="url(#linearGradient-3)"></path>
            <g id="编组-6" transform="translate(55.223517, 68.550059)">
              <polygon id="Fill-3" fill="#C2C6CC" points="10.062394 32.7027805 12.5779925 32.7027805 12.5779925 12.5779925 10.062394 12.5779925"></polygon>
              <path d="M18.8669887,17.6313266 C18.8669887,23.6118325 15.4881173,25.1559851 11.3200958,25.1559851 C7.15207436,25.1559851 3.77339775,23.6118325 3.77339775,17.6313266 C3.77339775,11.6508207 7.15207436,0 11.3200958,0 C15.4881173,0 18.8669887,11.6508207 18.8669887,17.6313266" id="Fill-1" fill="url(#linearGradient-4)"></path>
              <polygon id="路径-20" fill="#C2C6CC" points="13.7101493 32.0738809 8.52786326e-16 36.6140714 11.1945507 32.0738809"></polygon>
            </g>
            <g id="编组-5" transform="translate(37.614328, 93.077145)">
              <polygon id="Fill-3" fill="#C2C6CB" points="6.84242799 22.237891 8.55303499 22.237891 8.55303499 8.55303499 6.84242799 8.55303499"></polygon>
              <path d="M12.8295525,11.9893022 C12.8295525,16.0560463 10.5319199,17.10607 7.69766526,17.10607 C4.86341062,17.10607 2.5659105,16.0560463 2.5659105,11.9893022 C2.5659105,7.92255817 4.86341062,-2.05547128e-23 7.69766526,-2.05547128e-23 C10.5319199,-2.05547128e-23 12.8295525,7.92255817 12.8295525,11.9893022" id="Fill-1" fill="url(#linearGradient-5)"></path>
              <polygon id="路径-20" fill="#C2C6CB" points="9.32290161 21.8102392 3.22756805e-22 24.8975688 7.61229461 21.8102392"></polygon>
            </g>
            <g id="编组-3" transform="translate(179.630625, 93.478232) scale(-1, 1) translate(-179.630625, -93.478232) translate(173.058576, 79.212552)">
              <polygon id="Fill-3" fill="#C2C6CB" points="7.25739722 25.4111902 8.96800422 25.4111902 8.96800422 11.7263343 7.25739722 11.7263343"></polygon>
              <path d="M13.1440984,11.9893022 C13.1440984,16.0560463 10.8464658,17.10607 8.01221119,17.10607 C5.17795655,17.10607 2.88045643,16.0560463 2.88045643,11.9893022 C2.88045643,7.92255817 5.17795655,-1.99960593e-25 8.01221119,-1.99960593e-25 C10.8464658,-1.99960593e-25 13.1440984,7.92255817 13.1440984,11.9893022" id="Fill-1" fill="url(#linearGradient-5)"></path>
              <polygon id="路径-20" fill="#C2C6CB" points="9.32290161 25.4440318 -9.03769768e-24 28.5313613 7.61229461 25.4440318"></polygon>
            </g>
          </g>
          <ellipse id="椭圆形" fill="#B5BDC7" fill-rule="nonzero" opacity="0.300000012" cx="110.830731" cy="94.574986" rx="14.4022821" ry="1.92030428"></ellipse>
          <g id="编组-5" transform="translate(67.143809, 6.855106)">
            <g id="编组-4">
              <path d="M61.8948223,73.2581606 L67.0334114,74.3342738 L66.9347204,90.5721772 L65.7095406,90.2282755 L59.3720117,86.2353334 C58.743136,85.839112 58.4529506,85.0741245 58.6608233,84.3604964 L61.8948223,73.2581606 L61.8948223,73.2581606 Z" id="矩形" fill="url(#linearGradient-6)" fill-rule="nonzero"></path>
              <path d="M74.212057,19.1754307 C88.6806508,32.3052328 89.7732324,54.6864761 76.6526831,69.1652732 L76.652475,69.1652732 C63.5319257,83.6440704 41.1664547,84.7374225 26.698069,71.6074122 L74.212057,19.1754307 Z" id="Fill-3" fill="url(#linearGradient-7)" fill-rule="nonzero"></path>
              <path d="M58.567952,52.7334103 C71.6977541,38.2546132 78.7169,23.2301809 74.2456477,19.1754931 C69.7741871,15.1205972 55.5056501,23.5707605 42.3756398,38.0495576 C29.2456295,52.5283547 22.2266917,67.552787 26.6979441,71.6074748 C31.1694047,75.6623707 45.4379417,67.2122074 58.567952,52.7334103" id="Fill-5" fill="url(#linearGradient-8)" fill-rule="nonzero"></path>
              <g id="Fill-1" transform="translate(25.376556, 18.283475)">
                <g id="蒙版" fill="url(#linearGradient-9)" fill-opacity="0" fill-rule="nonzero">
                  <path d="M48.8690924,0.892017735 C45.8881186,-1.8112462 32.1012526,1.62968042 7.50849417,11.2147976 C0.402922353,36.5844736 -1.65944609,50.6208742 1.32138884,53.3239994 C5.79284942,57.3788953 20.0613865,48.9287319 33.1913967,34.4499349 C46.3211988,19.9711378 53.3403448,4.94670546 48.8690924,0.892017735 Z" id="path-14"></path>
                </g>
                <g id="Clipped">
                  <mask id="mask-11" fill="white">
                    <use xlink:href="#path-10"></use>
                  </mask>
                  <g id="path-14"></g>
                  <path d="M23.7535269,10.6679405 L23.7535269,10.6679405 C22.9164183,10.6679405 22.2142562,11.4629532 22.1263329,12.5110506 L20.0274387,37.5158803 C19.7937928,40.3010451 21.5285032,42.7273906 23.7535269,42.7273906 C25.9785505,42.7273906 27.7132609,40.3010451 27.479615,37.5158803 L25.3807208,12.5110506 C25.2927975,11.4629532 24.5906353,10.6679405 23.7535269,10.6679405" id="路径" fill="url(#linearGradient-12)" fill-rule="nonzero" mask="url(#mask-11)" transform="translate(23.753527, 26.697666) scale(-1, 1) rotate(47.000000) translate(-23.753527, -26.697666) "></path>
                </g>
              </g>
              <path d="M38.8845322,34.8837493 L38.8845322,34.8837493 C37.3398496,36.5870637 34.7068111,36.7157179 33.0034967,35.1710353 L33.0032885,35.1710353 C31.2999741,33.6263527 31.17132,30.9933142 32.7160026,29.2897917 C34.2606852,27.5864772 36.8937236,27.4578231 38.5972462,29.0025057 C40.3005606,30.5471883 40.4292148,33.1802267 38.8845322,34.8837493" id="Fill-9" fill="url(#linearGradient-13)" fill-rule="nonzero"></path>
              <path d="M84.9435739,90.5721772 L67.0252051,90.5721772 C65.4884084,90.5721772 64.3185925,89.1894898 64.5691932,87.6688874 L67.5407208,69.6425721 C67.6830321,68.7795106 68.2653469,68.0541562 69.0758578,67.7304822 L77.1166568,64.5197437 C78.4520186,63.9863887 79.9589424,64.6948938 80.404547,66.0651001 L87.3103818,87.3021539 C87.8350253,88.9155318 86.6359588,90.5721772 84.9435739,90.5721772" id="Fill-1" fill="url(#linearGradient-14)" fill-rule="nonzero"></path>
              <path d="M19.5876974,4.18962862 C20.1065608,3.88635456 20.4760356,3.3994673 20.6281722,2.8181504 C20.7803089,2.23708332 20.6968711,1.63153446 20.393597,1.11342047 C19.9918963,0.42668211 19.2479505,-1.22588047e-15 18.4517937,-1.22588047e-15 C18.0540899,-1.22588047e-15 17.662132,0.106420713 17.3176386,0.308020516 C14.2156997,2.12266856 11.4085411,4.40396893 8.97435461,7.0884689 C3.92061978,12.6610672 0.821928386,19.5489356 0.0132808501,27.0071289 C-0.12061939,28.2394609 0.773214679,29.3508828 2.00654581,29.4850328 C2.08798514,29.4937764 2.16917465,29.498273 2.24936491,29.498273 L2.24961472,29.498273 C2.88164385,29.498273 3.48869158,29.2287239 3.91462425,28.7593235 C4.23538527,28.4053372 4.4319888,27.9671637 4.48345046,27.4920178 C5.18942449,20.9843661 7.89390958,14.9733444 12.3051231,10.1089686 C14.4315388,7.76421546 16.8819633,5.77244937 19.5876974,4.18962862" id="Fill-1" fill="url(#linearGradient-15)" fill-rule="nonzero"></path>
              <path d="M32.3021248,10.7396737 C32.7835162,10.2085694 32.9841167,9.47311732 32.8384753,8.77238934 C32.6233854,7.73391303 31.6980748,6.97997474 30.6383644,6.97997474 C30.4852285,6.97997474 30.3313431,6.99596282 30.1804556,7.02718956 C25.1312174,8.07490898 20.6225764,10.6572351 17.1421694,14.4951258 C13.6615126,18.3332662 11.5310998,23.0722355 10.98051,28.1996655 C10.9165576,28.7967207 11.0886794,29.3830339 11.4656485,29.8506855 C11.8428675,30.3183371 12.3792179,30.611119 12.9757734,30.6748215 C13.0569629,30.6835649 13.1381524,30.6880616 13.2180929,30.6880616 L13.2180929,30.6880616 C14.368236,30.6880616 15.3282708,29.824455 15.451429,28.6795579 C15.8995951,24.5046684 17.6360514,20.6442945 20.4729379,17.5161251 C23.310324,14.3877058 26.9828378,12.2830238 31.0940249,11.4301592 C31.5631754,11.3327318 31.9806144,11.0941596 32.3021248,10.7396737" id="Fill-3" fill="url(#linearGradient-16)" fill-rule="nonzero"></path>
              <path d="M35.096418,19.5773394 C34.8818278,18.5378638 33.9565172,17.783176 32.8958075,17.783176 C32.7434211,17.783176 32.5900353,17.7991642 32.4398972,17.8301411 C29.679204,18.4002164 27.2152896,19.8096663 25.314206,21.9061044 C23.4126227,24.0027922 22.2502387,26.5926128 21.9522107,29.3952747 C21.8885082,29.9923299 22.0613795,30.5786432 22.4388482,31.0457951 C22.816317,31.512947 23.3529172,31.8052293 23.9502222,31.868682 C24.0306623,31.8771757 24.1103529,31.8814225 24.1895439,31.8814225 C25.3419353,31.8814225 26.3022199,31.0168166 26.4236295,29.8706706 C26.6199832,28.0222976 27.3884107,26.3125715 28.6449745,24.9268538 C29.9020379,23.5408864 31.5285761,22.6098301 33.3492197,22.2338602 C33.8191196,22.1366826 34.2375579,21.8978605 34.5595679,21.542875 C35.0404597,21.0122703 35.2410602,20.2775677 35.096418,19.5773394" id="Fill-5" fill="url(#linearGradient-17)" fill-rule="nonzero"></path>
            </g>
            <circle id="椭圆形" fill="#FFFFFF" fill-rule="nonzero" opacity="0.5" cx="75.1523473" cy="70.3790239" r="1.87360423"></circle>
          </g>
          <path d="M98.2419808,0.372985208 C97.3109241,-0.280278093 96.0263817,-0.0524478334 95.3731182,0.876609994 L94.1902495,2.56310351 L92.5040058,1.37998496 C91.5726996,0.727221293 90.290405,0.952553414 89.6348934,1.88385957 C88.98163,2.8149159 89.2069621,4.09945888 90.1385181,4.75272219 L91.8250116,5.93559092 L90.6423927,7.62208444 C89.9888796,8.55314078 90.2149611,9.83793354 91.1460175,10.490947 C92.0053773,11.0937479 93.1657627,10.9483563 93.8530007,10.1904209 C93.910458,10.1269682 93.9644177,10.0590188 94.0148802,9.98732226 L95.1974991,8.30082876 L96.8837429,9.48369749 C97.7431021,10.0864984 98.9034882,9.94135652 99.5909753,9.1834212 C99.6481831,9.11996847 99.7023924,9.0520191 99.7528551,8.9800727 C100.406119,8.04901637 100.180786,6.76447338 99.2492303,6.11121008 L97.5627365,4.92834135 L98.7456056,3.24184783 C99.3988691,2.31054167 99.1732871,1.02574888 98.2419808,0.372985208" id="Fill-7" fill="url(#linearGradient-18)" fill-rule="nonzero"></path>
        </g>
      </g>
    </g>
  </g>
</svg>
