<svg width="1em" height="0.491em" viewBox="0 0 680 334" fill="none" xmlns="http://www.w3.org/2000/svg">
<rect opacity="0.02" x="8" y="65" width="357" height="258" fill="#06B899"/>
<rect opacity="0.02" x="364" y="65" width="299" height="258" fill="#DA070E"/>
<line x1="0.00223545" y1="62.5" x2="680.002" y2="65.5402" stroke="#EAEDF7" stroke-dasharray="3 3"/>
<line x1="0.00223545" y1="286.5" x2="680.002" y2="289.54" stroke="#EAEDF7" stroke-dasharray="3 3"/>
<line x1="8.5" y1="6" x2="8.50001" y2="334" stroke="#EAEDF7" stroke-dasharray="3 3"/>
<path opacity="0.3" d="M211.646 15.6464C211.451 15.8417 211.451 16.1583 211.646 16.3536L214.828 19.5355C215.024 19.7308 215.34 19.7308 215.536 19.5355C215.731 19.3403 215.731 19.0237 215.536 18.8284L212.707 16L215.536 13.1716C215.731 12.9763 215.731 12.6597 215.536 12.4645C215.34 12.2692 215.024 12.2692 214.828 12.4645L211.646 15.6464ZM361 15.5H359.51V16.5H361V15.5ZM356.53 15.5H353.55V16.5H356.53V15.5ZM350.57 15.5H347.59V16.5H350.57V15.5ZM344.61 15.5H341.63V16.5H344.61V15.5ZM338.65 15.5H335.67V16.5H338.65V15.5ZM332.69 15.5H329.71V16.5H332.69V15.5ZM326.73 15.5L323.75 15.5V16.5H326.73V15.5ZM320.77 15.5H317.79V16.5L320.77 16.5V15.5ZM314.81 15.5H311.83V16.5H314.81V15.5ZM308.85 15.5H305.87V16.5H308.85V15.5ZM302.89 15.5H299.91V16.5H302.89V15.5ZM296.93 15.5L293.95 15.5V16.5H296.93V15.5ZM290.97 15.5H287.99V16.5L290.97 16.5V15.5ZM285.01 15.5H282.03V16.5H285.01V15.5ZM279.05 15.5H276.07V16.5H279.05V15.5ZM273.09 15.5H270.11V16.5H273.09V15.5ZM267.13 15.5L264.15 15.5V16.5H267.13V15.5ZM261.17 15.5H258.19V16.5L261.17 16.5V15.5ZM255.21 15.5L252.23 15.5V16.5H255.21V15.5ZM249.25 15.5H246.27V16.5H249.25V15.5ZM243.29 15.5H240.31V16.5H243.29V15.5ZM237.33 15.5H234.35V16.5H237.33V15.5ZM231.37 15.5H228.39V16.5L231.37 16.5V15.5ZM225.41 15.5L222.43 15.5V16.5H225.41V15.5ZM219.45 15.5H216.47V16.5H219.45V15.5ZM213.49 15.5H212V16.5H213.49V15.5Z" fill="#FA6D16"/>
<path opacity="0.3" d="M548.646 15.6464C548.451 15.8417 548.451 16.1583 548.646 16.3536L551.828 19.5355C552.024 19.7308 552.34 19.7308 552.536 19.5355C552.731 19.3403 552.731 19.0237 552.536 18.8284L549.707 16L552.536 13.1716C552.731 12.9763 552.731 12.6597 552.536 12.4645C552.34 12.2692 552.024 12.2692 551.828 12.4645L548.646 15.6464ZM663 15.5H661.5V16.5H663V15.5ZM658.5 15.5L655.5 15.5V16.5H658.5V15.5ZM652.5 15.5H649.5V16.5H652.5V15.5ZM646.5 15.5H643.5V16.5H646.5V15.5ZM640.5 15.5H637.5V16.5H640.5V15.5ZM634.5 15.5H631.5V16.5H634.5V15.5ZM628.5 15.5L625.5 15.5V16.5H628.5V15.5ZM622.5 15.5H619.5V16.5L622.5 16.5V15.5ZM616.5 15.5H613.5V16.5H616.5V15.5ZM610.5 15.5H607.5V16.5H610.5V15.5ZM604.5 15.5H601.5V16.5H604.5V15.5ZM598.5 15.5L595.5 15.5V16.5H598.5V15.5ZM592.5 15.5H589.5V16.5L592.5 16.5V15.5ZM586.5 15.5H583.5V16.5H586.5V15.5ZM580.5 15.5H577.5V16.5H580.5V15.5ZM574.5 15.5H571.5V16.5H574.5V15.5ZM568.5 15.5L565.5 15.5V16.5H568.5V15.5ZM562.5 15.5H559.5V16.5L562.5 16.5V15.5ZM556.5 15.5L553.5 15.5V16.5H556.5V15.5ZM550.5 15.5H549V16.5H550.5V15.5Z" fill="#FA6D16"/>
<path opacity="0.3" d="M153.354 15.6464C153.549 15.8417 153.549 16.1583 153.354 16.3536L150.172 19.5355C149.976 19.7308 149.66 19.7308 149.464 19.5355C149.269 19.3403 149.269 19.0237 149.464 18.8284L152.293 16L149.464 13.1716C149.269 12.9763 149.269 12.6597 149.464 12.4645C149.66 12.2692 149.976 12.2692 150.172 12.4645L153.354 15.6464ZM11 15.5H12.4792V16.5H11V15.5ZM15.4375 15.5H18.3958V16.5H15.4375V15.5ZM21.3542 15.5H24.3125V16.5H21.3542V15.5ZM27.2708 15.5H30.2292V16.5H27.2708V15.5ZM33.1875 15.5H36.1458V16.5H33.1875V15.5ZM39.1042 15.5H42.0625V16.5H39.1042V15.5ZM45.0208 15.5L47.9792 15.5V16.5H45.0208V15.5ZM50.9375 15.5H53.8958V16.5H50.9375V15.5ZM56.8542 15.5H59.8125V16.5H56.8542V15.5ZM62.7708 15.5H65.7292V16.5H62.7708V15.5ZM68.6875 15.5H71.6458V16.5H68.6875V15.5ZM74.6042 15.5L77.5625 15.5V16.5H74.6042V15.5ZM80.5208 15.5H83.4792V16.5H80.5208V15.5ZM86.4375 15.5H89.3958V16.5H86.4375V15.5ZM92.3542 15.5H95.3125V16.5H92.3542V15.5ZM98.2708 15.5H101.229V16.5H98.2708V15.5ZM104.188 15.5L107.146 15.5V16.5H104.188V15.5ZM110.104 15.5H113.063V16.5L110.104 16.5V15.5ZM116.021 15.5H118.979V16.5H116.021V15.5ZM121.938 15.5H124.896V16.5H121.938V15.5ZM127.854 15.5H130.813V16.5H127.854V15.5ZM133.771 15.5L136.729 15.5V16.5H133.771V15.5ZM139.688 15.5H142.646V16.5L139.688 16.5V15.5ZM145.604 15.5H148.563V16.5H145.604V15.5ZM151.521 15.5H153V16.5H151.521V15.5Z" fill="#FA6D16"/>
<path opacity="0.3" d="M491.354 16.3536C491.549 16.1583 491.549 15.8417 491.354 15.6464L488.172 12.4645C487.976 12.2692 487.66 12.2692 487.464 12.4645C487.269 12.6597 487.269 12.9763 487.464 13.1716L490.293 16L487.464 18.8284C487.269 19.0237 487.269 19.3403 487.464 19.5355C487.66 19.7308 487.976 19.7308 488.172 19.5355L491.354 16.3536ZM367 16.5H368.476V15.5H367V16.5ZM371.429 16.5H374.381V15.5H371.429V16.5ZM377.333 16.5H380.286V15.5H377.333V16.5ZM383.238 16.5H386.19V15.5H383.238V16.5ZM389.143 16.5H392.095V15.5H389.143V16.5ZM395.048 16.5H398V15.5H395.048V16.5ZM400.952 16.5H403.905V15.5H400.952V16.5ZM406.857 16.5H409.81V15.5H406.857V16.5ZM412.762 16.5H415.714V15.5H412.762V16.5ZM418.667 16.5H421.619V15.5H418.667V16.5ZM424.571 16.5H427.524V15.5H424.571V16.5ZM430.476 16.5H433.429V15.5H430.476V16.5ZM436.381 16.5H439.333V15.5H436.381V16.5ZM442.286 16.5H445.238V15.5H442.286V16.5ZM448.19 16.5H451.143V15.5H448.19V16.5ZM454.095 16.5H457.048V15.5H454.095V16.5ZM460 16.5H462.952V15.5H460V16.5ZM465.905 16.5H468.857V15.5H465.905V16.5ZM471.809 16.5H474.762V15.5H471.809V16.5ZM477.714 16.5H480.667V15.5H477.714V16.5ZM483.619 16.5H486.571V15.5H483.619V16.5ZM489.524 16.5H491V15.5H489.524V16.5Z" fill="#FA6D16"/>
<line x1="364.5" y1="6" x2="364.5" y2="334" stroke="#EAEDF7" stroke-dasharray="3 3"/>
<line x1="663.5" y1="6" x2="663.5" y2="334" stroke="#EAEDF7" stroke-dasharray="3 3"/>
<line x1="0.00223545" y1="320.5" x2="680.002" y2="323.54" stroke="#EAEDF7" stroke-dasharray="3 3"/>
<path opacity="0.1" d="M494 188C494 192.418 497.582 196 502 196H518C522.418 196 526 192.418 526 188V170C526 166.686 523.314 164 520 164V164C518.702 164 517.439 163.579 516.4 162.8L514.8 161.6C511.956 159.467 508.044 159.467 505.2 161.6L503.6 162.8C502.561 163.579 501.298 164 500 164V164C496.686 164 494 166.686 494 170V188Z" fill="#2F9BFA"/>
<path d="M514.86 181.8C514.86 181.16 514.773 180.587 514.6 180.08C514.427 179.573 514.147 179.14 513.76 178.78C513.453 178.5 513.087 178.273 512.66 178.1C512.233 177.913 511.693 177.773 511.04 177.68L509.36 177.44C509.067 177.4 508.807 177.333 508.58 177.24C508.367 177.133 508.187 177.013 508.04 176.88C507.893 176.733 507.787 176.573 507.72 176.4C507.653 176.227 507.62 176.047 507.62 175.86C507.62 175.367 507.8 174.947 508.16 174.6C508.52 174.24 509.073 174.06 509.82 174.06C510.287 174.06 510.773 174.12 511.28 174.24C511.8 174.347 512.287 174.613 512.74 175.04L514.5 173.3C513.887 172.7 513.213 172.273 512.48 172.02C511.747 171.767 510.887 171.64 509.9 171.64C509.127 171.64 508.433 171.747 507.82 171.96C507.207 172.173 506.687 172.473 506.26 172.86C505.833 173.233 505.507 173.687 505.28 174.22C505.053 174.74 504.94 175.32 504.94 175.96C504.94 177.147 505.28 178.08 505.96 178.76C506.587 179.373 507.507 179.767 508.72 179.94L510.44 180.18C510.773 180.233 511.027 180.3 511.2 180.38C511.387 180.447 511.553 180.547 511.7 180.68C511.993 180.96 512.14 181.36 512.14 181.88C512.14 182.453 511.927 182.893 511.5 183.2C511.073 183.493 510.447 183.64 509.62 183.64C508.953 183.64 508.327 183.553 507.74 183.38C507.153 183.207 506.633 182.893 506.18 182.44L504.38 184.24C505.073 184.947 505.84 185.44 506.68 185.72C507.533 185.987 508.5 186.12 509.58 186.12C510.327 186.12 511.02 186.027 511.66 185.84C512.3 185.64 512.853 185.36 513.32 185C513.8 184.627 514.173 184.173 514.44 183.64C514.72 183.107 514.86 182.493 514.86 181.8Z" fill="#2F9BFA"/>
<rect x="165.5" y="0.5" width="30" height="30" rx="15" stroke="#EBEDF5"/>
<path d="M182.56 23V8.76H179.96L177.06 11.28V14.08L179.96 11.56V23H182.56Z" fill="#8F95A8"/>
<rect x="504.5" y="0.5" width="30" height="30" rx="15" stroke="#EBEDF5"/>
<path d="M523.84 23V20.66H518.34L522.32 16.04C523.3 14.9 523.84 14.16 523.84 12.78C523.84 10.22 522.04 8.64 519.52 8.64C517.08 8.64 515.18 10.2 515.18 12.8H517.78C517.78 11.42 518.66 10.98 519.52 10.98C520.62 10.98 521.24 11.7 521.24 12.76C521.24 13.42 521.02 13.86 520.5 14.48L515.18 20.66V23H523.84Z" fill="#8F95A8"/>
<path d="M11.3301 229.117C11.3301 236.116 14.264 251.893 25.9995 259C40.6689 267.884 80.7654 260.615 93.4789 290.499C106.192 320.382 114.663 298.709 137.156 307.593C159.649 316.477 158.671 323.746 179.209 322.939C199.746 322.131 219.305 298.709 222.239 286.594C225.173 274.479 257.446 226.019 272.115 223.596C286.785 221.173 281.895 192.098 301.454 184.829C321.013 177.56 312.212 152.522 325.903 148.484C339.595 144.446 332.749 108.101 338.617 95.1785C344.484 82.256 350.352 64.4875 366 66.1028" stroke="#94DBCF" stroke-width="3" stroke-linecap="round"/>
<path d="M365 66C376.854 66 386.253 69.1687 396.5 76C401.863 79.5751 409.217 83.1738 411.778 89.0278C414.517 95.2887 418.236 103.334 423.972 107.278C427.918 109.991 431.331 112.677 435.889 114.5C438.905 115.706 441.919 116.973 445 118C447.841 118.947 451.03 119.451 453.611 121C457.423 123.287 462.032 124.534 465.972 126.75C469.29 128.616 472.901 130.373 476 132.611C478.534 134.442 480.689 136.616 483.194 138.472C485.571 140.233 488.154 141.338 490.528 143C492.479 144.366 495.246 145.566 497.528 146.25C502.109 147.624 505.687 149.915 509.972 151.944C512.756 153.263 515.79 153.465 518.611 154.611C522.933 156.367 527.572 157.393 532 158.889C535.972 160.231 540.813 160.062 544.972 160.5C549.8 161.008 554.683 161.217 559.528 161.472C568.258 161.932 575.278 162.971 583.5 166.278C587.046 167.704 591.103 170.5 595 170.5" stroke="#EAA4A4" stroke-width="3" stroke-linecap="round"/>
<circle cx="365" cy="65" r="6" fill="#06B899"/>
<circle cx="181" cy="323" r="6" fill="#06B899"/>
<circle cx="510" cy="152" r="6" fill="#2F9BFA"/>
<path d="M363.939 69.9393C364.525 69.3536 365.475 69.3536 366.061 69.9393L375.607 79.4853C376.192 80.0711 376.192 81.0208 375.607 81.6066C375.021 82.1924 374.071 82.1924 373.485 81.6066L365 73.1213L356.515 81.6066C355.929 82.1924 354.979 82.1924 354.393 81.6066C353.808 81.0208 353.808 80.0711 354.393 79.4853L363.939 69.9393ZM366.5 71L366.5 321L363.5 321L363.5 71L366.5 71Z" fill="#06B899"/>
<path d="M511.061 146.061C510.475 146.646 509.525 146.646 508.939 146.061L499.393 136.515C498.808 135.929 498.808 134.979 499.393 134.393C499.979 133.808 500.929 133.808 501.515 134.393L510 142.879L518.485 134.393C519.071 133.808 520.021 133.808 520.607 134.393C521.192 134.979 521.192 135.929 520.607 136.515L511.061 146.061ZM508.5 145L508.5 66L511.5 66L511.5 145L508.5 145Z" fill="#DA070E"/>
</svg>
