<svg width="1em" height="0.491em" viewBox="0 0 680 334" fill="none" xmlns="http://www.w3.org/2000/svg">
<rect opacity="0.02" x="8" y="65" width="357" height="258" fill="#DA070E"/>
<rect opacity="0.02" x="364" y="65" width="299" height="258" fill="#06B899"/>
<line x1="0.00223545" y1="62.5" x2="680.002" y2="65.5402" stroke="#EAEDF7" stroke-dasharray="3 3"/>
<line x1="0.00223545" y1="286.5" x2="680.002" y2="289.54" stroke="#EAEDF7" stroke-dasharray="3 3"/>
<line x1="8.5" y1="6" x2="8.50001" y2="334" stroke="#EAEDF7" stroke-dasharray="3 3"/>
<path opacity="0.3" d="M211.646 15.6464C211.451 15.8417 211.451 16.1583 211.646 16.3536L214.828 19.5355C215.024 19.7308 215.34 19.7308 215.536 19.5355C215.731 19.3403 215.731 19.0237 215.536 18.8284L212.707 16L215.536 13.1716C215.731 12.9763 215.731 12.6597 215.536 12.4645C215.34 12.2692 215.024 12.2692 214.828 12.4645L211.646 15.6464ZM361 15.5H359.51V16.5H361V15.5ZM356.53 15.5H353.55V16.5H356.53V15.5ZM350.57 15.5H347.59V16.5H350.57V15.5ZM344.61 15.5H341.63V16.5H344.61V15.5ZM338.65 15.5H335.67V16.5H338.65V15.5ZM332.69 15.5H329.71V16.5H332.69V15.5ZM326.73 15.5L323.75 15.5V16.5H326.73V15.5ZM320.77 15.5H317.79V16.5L320.77 16.5V15.5ZM314.81 15.5H311.83V16.5H314.81V15.5ZM308.85 15.5H305.87V16.5H308.85V15.5ZM302.89 15.5H299.91V16.5H302.89V15.5ZM296.93 15.5L293.95 15.5V16.5H296.93V15.5ZM290.97 15.5H287.99V16.5L290.97 16.5V15.5ZM285.01 15.5H282.03V16.5H285.01V15.5ZM279.05 15.5H276.07V16.5H279.05V15.5ZM273.09 15.5H270.11V16.5H273.09V15.5ZM267.13 15.5L264.15 15.5V16.5H267.13V15.5ZM261.17 15.5H258.19V16.5L261.17 16.5V15.5ZM255.21 15.5L252.23 15.5V16.5H255.21V15.5ZM249.25 15.5H246.27V16.5H249.25V15.5ZM243.29 15.5H240.31V16.5H243.29V15.5ZM237.33 15.5H234.35V16.5H237.33V15.5ZM231.37 15.5H228.39V16.5L231.37 16.5V15.5ZM225.41 15.5L222.43 15.5V16.5H225.41V15.5ZM219.45 15.5H216.47V16.5H219.45V15.5ZM213.49 15.5H212V16.5H213.49V15.5Z" fill="#FA6D16"/>
<path opacity="0.3" d="M548.646 15.6464C548.451 15.8417 548.451 16.1583 548.646 16.3536L551.828 19.5355C552.024 19.7308 552.34 19.7308 552.536 19.5355C552.731 19.3403 552.731 19.0237 552.536 18.8284L549.707 16L552.536 13.1716C552.731 12.9763 552.731 12.6597 552.536 12.4645C552.34 12.2692 552.024 12.2692 551.828 12.4645L548.646 15.6464ZM663 15.5H661.5V16.5H663V15.5ZM658.5 15.5L655.5 15.5V16.5H658.5V15.5ZM652.5 15.5H649.5V16.5H652.5V15.5ZM646.5 15.5H643.5V16.5H646.5V15.5ZM640.5 15.5H637.5V16.5H640.5V15.5ZM634.5 15.5H631.5V16.5H634.5V15.5ZM628.5 15.5L625.5 15.5V16.5H628.5V15.5ZM622.5 15.5H619.5V16.5L622.5 16.5V15.5ZM616.5 15.5H613.5V16.5H616.5V15.5ZM610.5 15.5H607.5V16.5H610.5V15.5ZM604.5 15.5H601.5V16.5H604.5V15.5ZM598.5 15.5L595.5 15.5V16.5H598.5V15.5ZM592.5 15.5H589.5V16.5L592.5 16.5V15.5ZM586.5 15.5H583.5V16.5H586.5V15.5ZM580.5 15.5H577.5V16.5H580.5V15.5ZM574.5 15.5H571.5V16.5H574.5V15.5ZM568.5 15.5L565.5 15.5V16.5H568.5V15.5ZM562.5 15.5H559.5V16.5L562.5 16.5V15.5ZM556.5 15.5L553.5 15.5V16.5H556.5V15.5ZM550.5 15.5H549V16.5H550.5V15.5Z" fill="#FA6D16"/>
<path opacity="0.3" d="M153.354 15.6464C153.549 15.8417 153.549 16.1583 153.354 16.3536L150.172 19.5355C149.976 19.7308 149.66 19.7308 149.464 19.5355C149.269 19.3403 149.269 19.0237 149.464 18.8284L152.293 16L149.464 13.1716C149.269 12.9763 149.269 12.6597 149.464 12.4645C149.66 12.2692 149.976 12.2692 150.172 12.4645L153.354 15.6464ZM11 15.5H12.4792V16.5H11V15.5ZM15.4375 15.5H18.3958V16.5H15.4375V15.5ZM21.3542 15.5H24.3125V16.5H21.3542V15.5ZM27.2708 15.5H30.2292V16.5H27.2708V15.5ZM33.1875 15.5H36.1458V16.5H33.1875V15.5ZM39.1042 15.5H42.0625V16.5H39.1042V15.5ZM45.0208 15.5L47.9792 15.5V16.5H45.0208V15.5ZM50.9375 15.5H53.8958V16.5H50.9375V15.5ZM56.8542 15.5H59.8125V16.5H56.8542V15.5ZM62.7708 15.5H65.7292V16.5H62.7708V15.5ZM68.6875 15.5H71.6458V16.5H68.6875V15.5ZM74.6042 15.5L77.5625 15.5V16.5H74.6042V15.5ZM80.5208 15.5H83.4792V16.5H80.5208V15.5ZM86.4375 15.5H89.3958V16.5H86.4375V15.5ZM92.3542 15.5H95.3125V16.5H92.3542V15.5ZM98.2708 15.5H101.229V16.5H98.2708V15.5ZM104.188 15.5L107.146 15.5V16.5H104.188V15.5ZM110.104 15.5H113.063V16.5L110.104 16.5V15.5ZM116.021 15.5H118.979V16.5H116.021V15.5ZM121.938 15.5H124.896V16.5H121.938V15.5ZM127.854 15.5H130.813V16.5H127.854V15.5ZM133.771 15.5L136.729 15.5V16.5H133.771V15.5ZM139.688 15.5H142.646V16.5L139.688 16.5V15.5ZM145.604 15.5H148.563V16.5H145.604V15.5ZM151.521 15.5H153V16.5H151.521V15.5Z" fill="#FA6D16"/>
<path opacity="0.3" d="M491.354 16.3536C491.549 16.1583 491.549 15.8417 491.354 15.6464L488.172 12.4645C487.976 12.2692 487.66 12.2692 487.464 12.4645C487.269 12.6597 487.269 12.9763 487.464 13.1716L490.293 16L487.464 18.8284C487.269 19.0237 487.269 19.3403 487.464 19.5355C487.66 19.7308 487.976 19.7308 488.172 19.5355L491.354 16.3536ZM367 16.5H368.476V15.5H367V16.5ZM371.429 16.5H374.381V15.5H371.429V16.5ZM377.333 16.5H380.286V15.5H377.333V16.5ZM383.238 16.5H386.19V15.5H383.238V16.5ZM389.143 16.5H392.095V15.5H389.143V16.5ZM395.048 16.5H398V15.5H395.048V16.5ZM400.952 16.5H403.905V15.5H400.952V16.5ZM406.857 16.5H409.81V15.5H406.857V16.5ZM412.762 16.5H415.714V15.5H412.762V16.5ZM418.667 16.5H421.619V15.5H418.667V16.5ZM424.571 16.5H427.524V15.5H424.571V16.5ZM430.476 16.5H433.429V15.5H430.476V16.5ZM436.381 16.5H439.333V15.5H436.381V16.5ZM442.286 16.5H445.238V15.5H442.286V16.5ZM448.19 16.5H451.143V15.5H448.19V16.5ZM454.095 16.5H457.048V15.5H454.095V16.5ZM460 16.5H462.952V15.5H460V16.5ZM465.905 16.5H468.857V15.5H465.905V16.5ZM471.809 16.5H474.762V15.5H471.809V16.5ZM477.714 16.5H480.667V15.5H477.714V16.5ZM483.619 16.5H486.571V15.5H483.619V16.5ZM489.524 16.5H491V15.5H489.524V16.5Z" fill="#FA6D16"/>
<line x1="364.5" y1="6" x2="364.5" y2="334" stroke="#EAEDF7" stroke-dasharray="3 3"/>
<line x1="663.5" y1="6" x2="663.5" y2="334" stroke="#EAEDF7" stroke-dasharray="3 3"/>
<line x1="0.00223545" y1="320.5" x2="680.002" y2="323.54" stroke="#EAEDF7" stroke-dasharray="3 3"/>
<path opacity="0.1" d="M552 251C552 246.582 555.582 243 560 243H576C580.418 243 584 246.582 584 251V269C584 272.314 581.314 275 578 275V275C576.702 275 575.439 275.421 574.4 276.2L572.8 277.4C569.956 279.533 566.044 279.533 563.2 277.4L561.6 276.2C560.561 275.421 559.298 275 558 275V275C554.686 275 552 272.314 552 269V251Z" fill="#FA6D16"/>
<path d="M572.98 262.9C572.98 261 571.88 260.1 571.02 259.7C571.74 259.36 572.78 258.34 572.78 256.76C572.78 254.32 571.16 252.76 568.38 252.76H562.66V267H568.62C571.16 267 572.98 265.56 572.98 262.9ZM570 256.88C570 257.86 569.34 258.52 568.16 258.52H565.44V255.24H568.16C569.34 255.24 570 255.9 570 256.88ZM570.2 262.76C570.2 263.72 569.6 264.52 568.34 264.52H565.44V261.02H568.34C569.6 261.02 570.2 261.8 570.2 262.76Z" fill="#FA6D16"/>
<rect x="165.5" y="0.5" width="30" height="30" rx="15" stroke="#EBEDF5"/>
<path d="M182.56 23V8.76H179.96L177.06 11.28V14.08L179.96 11.56V23H182.56Z" fill="#8F95A8"/>
<rect x="504.5" y="0.5" width="30" height="30" rx="15" stroke="#EBEDF5"/>
<path d="M523.84 23V20.66H518.34L522.32 16.04C523.3 14.9 523.84 14.16 523.84 12.78C523.84 10.22 522.04 8.64 519.52 8.64C517.08 8.64 515.18 10.2 515.18 12.8H517.78C517.78 11.42 518.66 10.98 519.52 10.98C520.62 10.98 521.24 11.7 521.24 12.76C521.24 13.42 521.02 13.86 520.5 14.48L515.18 20.66V23H523.84Z" fill="#8F95A8"/>
<path d="M11 203.709C11 196.682 13.9864 180.844 25.9318 173.709C40.8636 164.79 81.6773 172.088 94.6182 142.088C107.559 112.088 116.518 89.3857 139.414 80.4669C162.309 71.5481 161.314 64.2508 182.218 65.0616C203.123 65.8724 223.032 89.3858 226.018 101.548C229.005 113.71 261.855 162.358 276.786 164.79C291.718 167.223 286.741 196.411 306.65 203.709C326.559 211.006 317.6 236.141 331.536 240.195C345.473 244.249 338.505 280.735 344.477 293.708C350.45 306.681 356.423 324.518 372.35 322.897" stroke="#EAA4A4" stroke-width="3" stroke-linecap="round"/>
<path d="M372.35 322.897C388.277 321.275 380.313 312.356 397.236 312.356C414.159 312.356 410.177 325.329 421.127 318.843C432.077 312.356 446.032 308.266 457.959 312.356C476.872 318.843 493.811 309.358 510.718 297.762C529.631 284.789 548.545 285.6 574.427 289.654C600.309 293.708 621.213 277.492 637.141 278.303C653.068 279.114 660.518 266.865 664.5 262" stroke="#94DBCF" stroke-width="3" stroke-linecap="round"/>
<circle cx="178" cy="65" r="6" fill="#DA070E"/>
<circle cx="365" cy="323" r="6" fill="#06B899"/>
<circle cx="568" cy="287" r="6" fill="#FA6D16"/>
<path d="M176.939 322.061C177.525 322.646 178.475 322.646 179.061 322.061L188.607 312.515C189.192 311.929 189.192 310.979 188.607 310.393C188.021 309.808 187.071 309.808 186.485 310.393L178 318.879L169.515 310.393C168.929 309.808 167.979 309.808 167.393 310.393C166.808 310.979 166.808 311.929 167.393 312.515L176.939 322.061ZM179.5 321L179.5 71L176.5 71L176.5 321L179.5 321Z" fill="#DA070E"/>
<path d="M569.061 291.939C568.475 291.354 567.525 291.354 566.939 291.939L557.393 301.485C556.808 302.071 556.808 303.021 557.393 303.607C557.979 304.192 558.929 304.192 559.515 303.607L568 295.121L576.485 303.607C577.071 304.192 578.021 304.192 578.607 303.607C579.192 303.021 579.192 302.071 578.607 301.485L569.061 291.939ZM566.5 293L566.5 324L569.5 324L569.5 293L566.5 293Z" fill="#06B899"/>
</svg>
