<svg width="60" height="60" viewBox="0 0 60 60" fill="none" xmlns="http://www.w3.org/2000/svg">
<circle r="29.1429" transform="matrix(-1 0 0 1 29.9997 29.9993)" fill="url(#paint0_linear_7136_36962)"/>
<path fill-rule="evenodd" clip-rule="evenodd" d="M29.9995 47.6203C34.8013 47.6203 39.061 45.2996 41.7182 41.7185C45.2994 39.0613 47.6203 34.8015 47.6203 29.9995C47.6203 25.1983 45.3 20.9389 41.7196 18.2816C39.0625 14.6995 34.8021 12.3779 29.9995 12.3779C25.1974 12.3779 20.9374 14.699 18.2802 18.2805C14.6989 20.9377 12.3779 25.1976 12.3779 29.9995C12.3779 34.8021 14.6995 39.0625 18.2816 41.7196C20.9389 45.3001 25.1982 47.6203 29.9995 47.6203Z" fill="url(#paint1_linear_7136_36962)"/>
<line x1="22.633" y1="26.5134" x2="26.6906" y2="30.571" stroke="#FA791A" stroke-width="6"/>
<line x1="38.051" y1="26.6994" x2="28.3129" y2="36.4375" stroke="#FA791A" stroke-width="6"/>
<defs>
<linearGradient id="paint0_linear_7136_36962" x1="0" y1="0" x2="62.3326" y2="4.63153" gradientUnits="userSpaceOnUse">
<stop stop-color="#FAB02F"/>
<stop offset="1" stop-color="#FA6D16"/>
</linearGradient>
<linearGradient id="paint1_linear_7136_36962" x1="12.3779" y1="12.3779" x2="50.0674" y2="15.1784" gradientUnits="userSpaceOnUse">
<stop stop-color="#FFF6E6"/>
<stop offset="1" stop-color="#FFD8C0"/>
</linearGradient>
</defs>
</svg>
