<svg fill="none" xmlns="http://www.w3.org/2000/svg" viewBox="0 0 26 27" class="design-iconfont">
  <path d="M2.39077 5.18273L3.60038 4.29568V4.29568L2.39077 5.18273ZM9.54594 14.9398L8.33633 15.8268L8.33633 15.8268L9.54594 14.9398ZM10.1453 15.4812H11.6453V14.623L10.9053 14.1881L10.1453 15.4812ZM11.7233 24.7278L12.5903 25.9518H12.5903L11.7233 24.7278ZM14.8041 22.5455L15.6711 23.7696L14.8041 22.5455ZM15.6481 15.4812L14.888 14.1881L14.1481 14.623V15.4812H15.6481ZM16.2474 14.9398L17.457 15.8268L17.457 15.8268L16.2474 14.9398ZM23.4026 5.18273L22.193 4.29568V4.29568L23.4026 5.18273ZM3.60038 4.29568C3.35819 3.96542 3.59403 3.5 4.00358 3.5V0.5C1.13673 0.5 -0.514186 3.75793 1.18117 6.06977L3.60038 4.29568ZM10.7555 14.0527L3.60038 4.29568L1.18117 6.06977L8.33633 15.8268L10.7555 14.0527ZM10.9053 14.1881C10.8474 14.154 10.7964 14.1084 10.7555 14.0527L8.33633 15.8268C8.6217 16.216 8.98018 16.5364 9.38522 16.7744L10.9053 14.1881ZM11.6453 23.9117V15.4812H8.64527V23.9117H11.6453ZM10.8563 23.5037C11.1874 23.2692 11.6453 23.506 11.6453 23.9117H8.64527C8.64527 25.9407 10.9347 27.1246 12.5903 25.9518L10.8563 23.5037ZM13.9371 21.3215L10.8563 23.5037L12.5903 25.9518L15.6711 23.7696L13.9371 21.3215ZM14.1481 20.9135C14.1481 21.0756 14.0694 21.2277 13.9371 21.3215L15.6711 23.7696C16.5975 23.1134 17.1481 22.0487 17.1481 20.9135H14.1481ZM14.1481 15.4812V20.9135H17.1481V15.4812H14.1481ZM15.0378 14.0527C14.997 14.1084 14.9459 14.154 14.888 14.1881L16.4081 16.7744C16.8132 16.5364 17.1717 16.216 17.457 15.8268L15.0378 14.0527ZM22.193 4.29568L15.0378 14.0527L17.457 15.8268L24.6122 6.06977L22.193 4.29568ZM21.7898 3.5C22.1993 3.5 22.4352 3.96542 22.193 4.29568L24.6122 6.06977C26.3075 3.75793 24.6566 0.5 21.7898 0.5V3.5ZM4.00358 3.5H21.7898V0.5H4.00358V3.5Z" fill="#011628"/>
</svg>
