<svg xmlns="http://www.w3.org/2000/svg" fill="none" viewBox="0 0 30 26" class="design-iconfont">
  <path d="M7.656 21.22C5.632 21.22 4.06267 20.7067 2.948 19.68C1.848 18.6387 1.26133 17.1647 1.188 15.258C1.17333 14.862 1.166 14.2167 1.166 13.322C1.166 12.4127 1.17333 11.7527 1.188 11.342C1.26133 9.46467 1.85533 8.00533 2.97 6.964C4.08467 5.908 5.64667 5.38 7.656 5.38C8.96133 5.38 10.098 5.60733 11.066 6.062C12.034 6.502 12.782 7.11067 13.31 7.888C13.8527 8.66533 14.1387 9.538 14.168 10.506V10.55C14.168 10.6673 14.1167 10.77 14.014 10.858C13.926 10.9313 13.8233 10.968 13.706 10.968H11.572C11.396 10.968 11.264 10.9313 11.176 10.858C11.088 10.77 11.0147 10.6233 10.956 10.418C10.736 9.50867 10.3547 8.87067 9.812 8.504C9.26933 8.12267 8.55067 7.932 7.656 7.932C5.55867 7.932 4.466 9.10533 4.378 11.452C4.36333 11.848 4.356 12.4567 4.356 13.278C4.356 14.0993 4.36333 14.7227 4.378 15.148C4.466 17.4947 5.55867 18.668 7.656 18.668C8.536 18.668 9.24733 18.4847 9.79 18.118C10.3473 17.7367 10.736 17.0913 10.956 16.182C11.0147 15.9767 11.088 15.8373 11.176 15.764C11.264 15.676 11.396 15.632 11.572 15.632H13.706C13.838 15.632 13.948 15.676 14.036 15.764C14.1387 15.852 14.1827 15.962 14.168 16.094C14.1387 17.062 13.8527 17.9347 13.31 18.712C12.782 19.4893 12.034 20.1053 11.066 20.56C10.098 21 8.96133 21.22 7.656 21.22ZM17.3045 21C17.1579 21 17.0332 20.9487 16.9305 20.846C16.8279 20.7433 16.7765 20.6187 16.7765 20.472V6.15C16.7765 5.98867 16.8205 5.85667 16.9085 5.754C17.0112 5.65133 17.1432 5.6 17.3045 5.6H19.0205C19.2992 5.6 19.5119 5.72467 19.6585 5.974L25.9505 15.742V6.15C25.9505 5.98867 25.9945 5.85667 26.0825 5.754C26.1852 5.65133 26.3172 5.6 26.4785 5.6H28.3705C28.5319 5.6 28.6639 5.65133 28.7665 5.754C28.8692 5.85667 28.9205 5.98867 28.9205 6.15V20.45C28.9205 20.6113 28.8692 20.7433 28.7665 20.846C28.6639 20.9487 28.5392 21 28.3925 21H26.6545C26.3612 21 26.1412 20.8753 25.9945 20.626L19.7245 11.078V20.472C19.7245 20.6187 19.6732 20.7433 19.5705 20.846C19.4825 20.9487 19.3579 21 19.1965 21H17.3045Z" fill="#FF8686"/>
</svg>
