<svg xmlns="http://www.w3.org/2000/svg" fill="none" viewBox="0 0 30 26" class="design-iconfont">
  <path d="M9.084 21.22C7.764 21.22 6.63467 21.022 5.696 20.626C4.75733 20.23 4.046 19.7093 3.562 19.064C3.078 18.4187 2.82133 17.7147 2.792 16.952C2.792 16.8347 2.836 16.732 2.924 16.644C3.012 16.5413 3.122 16.49 3.254 16.49H5.256C5.41733 16.49 5.54933 16.5267 5.652 16.6C5.75467 16.6733 5.85 16.776 5.938 16.908C6.08467 17.4067 6.41467 17.8247 6.928 18.162C7.456 18.4993 8.17467 18.668 9.084 18.668C10.1107 18.668 10.8807 18.4993 11.394 18.162C11.922 17.81 12.186 17.3333 12.186 16.732C12.186 16.336 12.054 16.006 11.79 15.742C11.526 15.478 11.1227 15.2507 10.58 15.06C10.052 14.8547 9.26 14.6127 8.204 14.334C6.47333 13.9233 5.20467 13.3807 4.398 12.706C3.59133 12.0313 3.188 11.0633 3.188 9.802C3.188 8.95133 3.42267 8.196 3.892 7.536C4.36133 6.86133 5.02867 6.33333 5.894 5.952C6.774 5.57067 7.79333 5.38 8.952 5.38C10.1693 5.38 11.218 5.59267 12.098 6.018C12.9927 6.44333 13.6673 6.97867 14.122 7.624C14.5913 8.25467 14.8407 8.88533 14.87 9.516C14.87 9.63333 14.826 9.74333 14.738 9.846C14.65 9.934 14.54 9.978 14.408 9.978H12.318C11.9953 9.978 11.7753 9.846 11.658 9.582C11.5847 9.11267 11.2987 8.724 10.8 8.416C10.3013 8.09333 9.68533 7.932 8.952 7.932C8.14533 7.932 7.50733 8.086 7.038 8.394C6.58333 8.702 6.356 9.14933 6.356 9.736C6.356 10.132 6.47333 10.462 6.708 10.726C6.94267 10.99 7.30933 11.2247 7.808 11.43C8.30667 11.6207 9.03267 11.8407 9.986 12.09C11.2913 12.3833 12.3253 12.7133 13.088 13.08C13.8653 13.4467 14.4373 13.9087 14.804 14.466C15.1707 15.0233 15.354 15.7347 15.354 16.6C15.354 17.5533 15.09 18.382 14.562 19.086C14.0487 19.7753 13.3153 20.3033 12.362 20.67C11.4233 21.0367 10.3307 21.22 9.084 21.22ZM17.5227 21C17.3614 21 17.2294 20.9487 17.1267 20.846C17.0387 20.7433 16.9947 20.6113 16.9947 20.45V18.888C16.9947 18.6973 17.0241 18.5433 17.0827 18.426C17.1561 18.3087 17.2367 18.1913 17.3247 18.074L24.9587 8.24H17.7427C17.5961 8.24 17.4714 8.18867 17.3687 8.086C17.2661 7.98333 17.2147 7.85133 17.2147 7.69V6.15C17.2147 5.98867 17.2587 5.85667 17.3467 5.754C17.4494 5.65133 17.5814 5.6 17.7427 5.6H28.2807C28.4421 5.6 28.5741 5.65133 28.6767 5.754C28.7794 5.85667 28.8307 5.98867 28.8307 6.15V7.69C28.8307 7.98333 28.7354 8.24 28.5447 8.46L21.0867 18.36H28.5447C28.7061 18.36 28.8307 18.4113 28.9187 18.514C29.0214 18.602 29.0727 18.7267 29.0727 18.888V20.472C29.0727 20.6187 29.0214 20.7433 28.9187 20.846C28.8307 20.9487 28.7061 21 28.5447 21H17.5227Z" fill="#FF8686"/>
</svg>
