<svg fill="none" width="1em" height="1em" xmlns="http://www.w3.org/2000/svg" viewBox="0 0 54 54" class="design-iconfont">
  <path d="M8.65429 11.479L26.1577 2.69407C27.0253 2.25861 28.05 2.26989 28.9078 2.72435L45.4044 11.464C46.3861 11.984 47 13.004 47 14.1149V26.2551C47 33.6781 43.4175 40.6447 37.3799 44.9628L29.2394 50.785C28.2184 51.5152 26.8506 51.5325 25.8114 50.8284L17.0986 44.9249C10.7829 40.6456 7 33.5131 7 25.8841V14.1602C7 13.0256 7.64017 11.988 8.65429 11.479Z" stroke="#1F2D56" stroke-width="2"/>
  <path d="M16 28.5L22.3822 23.4854C22.7448 23.2005 23.2552 23.2005 23.6178 23.4854L29.328 27.972C29.715 28.276 30.2656 28.2533 30.6263 27.9185L37 22" stroke="#FA6D16" stroke-width="2" stroke-linecap="round"/>
</svg>
