<svg xmlns="http://www.w3.org/2000/svg" width="1em" height="0.64em" viewBox="0 0 55 35" fill="none">
  <path d="M1 16C1 7.71573 7.71573 1 16 1H39C47.2843 1 54 7.71573 54 16C54 24.2843 47.2843 31 39 31H35.25L27.5 34.5L19.75 31H16C7.71573 31 1 24.2843 1 16Z" fill="#FAB02F"></path>
  <path d="M20.54 22V7.76H17.76V13.58H12.94V7.76H10.16V22H12.94V16.04H17.76V22H20.54ZM33.8914 14.88C33.8914 12.42 33.9114 10.64 32.4714 9.2C31.4714 8.2 30.2514 7.64 28.6314 7.64C27.0114 7.64 25.7714 8.2 24.7714 9.2C23.3314 10.64 23.3714 12.42 23.3714 14.88C23.3714 17.34 23.3314 19.12 24.7714 20.56C25.7714 21.56 27.0114 22.12 28.6314 22.12C30.2514 22.12 31.4714 21.56 32.4714 20.56C33.9114 19.12 33.8914 17.34 33.8914 14.88ZM31.1114 14.88C31.1114 17.62 30.9514 18.28 30.4114 18.88C30.0114 19.34 29.3914 19.64 28.6314 19.64C27.8714 19.64 27.2314 19.34 26.8314 18.88C26.2914 18.28 26.1514 17.62 26.1514 14.88C26.1514 12.14 26.2914 11.48 26.8314 10.88C27.2314 10.42 27.8714 10.12 28.6314 10.12C29.3914 10.12 30.0114 10.42 30.4114 10.88C30.9514 11.48 31.1114 12.14 31.1114 14.88ZM45.4919 10.24V7.76H35.2719V10.24H38.9919V22H41.7719V10.24H45.4919Z" fill="white"></path>
</svg>
