<svg xmlns="http://www.w3.org/2000/svg" width="1em" height="1em" viewBox="0 0 42 42" fill="none">
  <path d="M18.8426 3.17567C15.7438 3.54495 12.7942 4.71153 10.2836 6.5608C7.77301 8.41008 5.78783 10.8784 4.52311 13.7233C3.25839 16.5682 2.75762 19.6918 3.07002 22.7871C3.38242 25.8825 4.49723 28.8432 6.30492 31.3782C8.11262 33.9133 10.551 35.9356 13.3805 37.2463C16.21 38.5571 19.3333 39.1113 22.4435 38.8544C25.5537 38.5976 28.5438 37.5385 31.12 35.7814C33.6963 34.0242 35.77 31.6293 37.1375 28.832" stroke="currentColor" stroke-width="4" stroke-linecap="round"></path>
  <mask id="path-2-inside-1_1563_23859" fill="white">
    <path d="M37.4612 25.3396C39.0258 25.8847 40.761 25.0586 41.0592 23.4288C41.4329 21.3866 41.4784 19.2913 41.1878 17.2226C40.7576 14.1601 39.6033 11.2443 37.8206 8.71721C36.0379 6.19011 33.6783 4.12456 30.9376 2.69195C29.0862 1.72426 27.0971 1.06421 25.0479 0.73119C23.4125 0.465416 22.0522 1.82292 22.0408 3.47974L21.9429 17.7809C21.9341 19.0648 22.7434 20.212 23.9558 20.6345L37.4612 25.3396Z"></path>
  </mask>
  <path d="M37.4612 25.3396C39.0258 25.8847 40.761 25.0586 41.0592 23.4288C41.4329 21.3866 41.4784 19.2913 41.1878 17.2226C40.7576 14.1601 39.6033 11.2443 37.8206 8.71721C36.0379 6.19011 33.6783 4.12456 30.9376 2.69195C29.0862 1.72426 27.0971 1.06421 25.0479 0.73119C23.4125 0.465416 22.0522 1.82292 22.0408 3.47974L21.9429 17.7809C21.9341 19.0648 22.7434 20.212 23.9558 20.6345L37.4612 25.3396Z" stroke="currentColor" stroke-width="8" mask="url(#path-2-inside-1_1563_23859)"></path>
</svg>
