<svg fill="none" xmlns="http://www.w3.org/2000/svg" viewBox="0 0 27 24" class="design-iconfont"
width="1em" height="1em">
  <path fill-rule="evenodd" clip-rule="evenodd" d="M23.4075 15.7347C21.8374 20.5335 17.3235 24 12 24C5.37258 24 0 18.6274 0 12C0 5.37258 5.37258 0 12 0C17.3235 0 21.8374 3.46648 23.4075 8.26532L25.7279 10.5858C26.509 11.3668 26.509 12.6332 25.7279 13.4142L23.4075 15.7347Z" fill="#FA6D16"/>
  <path d="M6.75 12.772V14.158H10.04C9.186 15.11 7.744 15.978 5.714 16.762L6.484 18.036C8.724 17.014 10.306 15.81 11.244 14.438V18.484H12.728V14.41C13.778 15.866 15.43 17.056 17.684 17.98L18.314 16.664C16.41 16.048 14.982 15.208 14.016 14.158H17.208V12.772H12.728V11.68H11.244V12.772H6.75ZM9.942 5.38C8.906 6.836 7.716 7.956 6.358 8.754L7.296 9.874C7.884 9.482 8.444 9.062 8.976 8.586C9.48 9.062 10.068 9.51 10.712 9.93C9.326 10.434 7.618 10.84 5.574 11.134L6.274 12.408C8.598 11.96 10.544 11.386 12.098 10.686C13.68 11.442 15.584 11.974 17.824 12.31L18.454 11.036C16.578 10.812 14.94 10.434 13.54 9.916C14.618 9.244 15.402 8.46 15.906 7.592V6.402H10.88C11.034 6.178 11.188 5.954 11.356 5.702L9.942 5.38ZM12.126 9.3C11.23 8.852 10.46 8.32 9.816 7.732C9.816 7.718 9.83 7.704 9.858 7.676H14.268C13.736 8.278 13.022 8.824 12.126 9.3Z" fill="#fff"/>
</svg>
