<svg width="1em" height="1em" viewBox="0 0 54 54" fill="none" xmlns="http://www.w3.org/2000/svg">
<path d="M31.8 48H26C13.8497 48 4 38.1503 4 26V26C4 13.8497 13.8497 4 26 4V4C38.1503 4 48 13.8497 48 26V31.8" stroke="#1F2D56" stroke-width="2" stroke-linecap="round"/>
<path d="M50 41H41" stroke="#FA6D16" stroke-width="2" stroke-linecap="round"/>
<path d="M40 47H49" stroke="#FA6D16" stroke-width="2" stroke-linecap="round"/>
<path d="M44 38L41 41" stroke="#FA6D16" stroke-width="2" stroke-linecap="round"/>
<path d="M46 50L49 47" stroke="#FA6D16" stroke-width="2" stroke-linecap="round"/>
<path d="M31 19H24.5C22.567 19 21 20.567 21 22.5V22.5C21 24.433 22.567 26 24.5 26H29.8889" stroke="#1F2D56" stroke-width="2" stroke-linecap="round"/>
<path d="M23.8966 26H29.5C31.433 26 33 27.567 33 29.5V29.5C33 31.433 31.433 33 29.5 33H22" stroke="#1F2D56" stroke-width="2" stroke-linecap="round"/>
<line x1="27" y1="18" x2="27" y2="15" stroke="#1F2D56" stroke-width="2" stroke-linecap="round"/>
<line x1="28" y1="37" x2="28" y2="33" stroke="#1F2D56" stroke-width="2" stroke-linecap="round"/>
</svg>
