<svg xmlns="http://www.w3.org/2000/svg" fill="none" viewBox="0 0 30 26" class="design-iconfont">
  <path d="M7.084 21.22C5.764 21.22 4.63467 21.022 3.696 20.626C2.75733 20.23 2.046 19.7093 1.562 19.064C1.078 18.4187 0.821333 17.7147 0.792 16.952C0.792 16.8347 0.836 16.732 0.924 16.644C1.012 16.5413 1.122 16.49 1.254 16.49H3.256C3.41733 16.49 3.54933 16.5267 3.652 16.6C3.75467 16.6733 3.85 16.776 3.938 16.908C4.08467 17.4067 4.41467 17.8247 4.928 18.162C5.456 18.4993 6.17467 18.668 7.084 18.668C8.11067 18.668 8.88067 18.4993 9.394 18.162C9.922 17.81 10.186 17.3333 10.186 16.732C10.186 16.336 10.054 16.006 9.79 15.742C9.526 15.478 9.12267 15.2507 8.58 15.06C8.052 14.8547 7.26 14.6127 6.204 14.334C4.47333 13.9233 3.20467 13.3807 2.398 12.706C1.59133 12.0313 1.188 11.0633 1.188 9.802C1.188 8.95133 1.42267 8.196 1.892 7.536C2.36133 6.86133 3.02867 6.33333 3.894 5.952C4.774 5.57067 5.79333 5.38 6.952 5.38C8.16933 5.38 9.218 5.59267 10.098 6.018C10.9927 6.44333 11.6673 6.97867 12.122 7.624C12.5913 8.25467 12.8407 8.88533 12.87 9.516C12.87 9.63333 12.826 9.74333 12.738 9.846C12.65 9.934 12.54 9.978 12.408 9.978H10.318C9.99533 9.978 9.77533 9.846 9.658 9.582C9.58467 9.11267 9.29867 8.724 8.8 8.416C8.30133 8.09333 7.68533 7.932 6.952 7.932C6.14533 7.932 5.50733 8.086 5.038 8.394C4.58333 8.702 4.356 9.14933 4.356 9.736C4.356 10.132 4.47333 10.462 4.708 10.726C4.94267 10.99 5.30933 11.2247 5.808 11.43C6.30667 11.6207 7.03267 11.8407 7.986 12.09C9.29133 12.3833 10.3253 12.7133 11.088 13.08C11.8653 13.4467 12.4373 13.9087 12.804 14.466C13.1707 15.0233 13.354 15.7347 13.354 16.6C13.354 17.5533 13.09 18.382 12.562 19.086C12.0487 19.7753 11.3153 20.3033 10.362 20.67C9.42333 21.0367 8.33067 21.22 7.084 21.22ZM16.3807 21C16.2341 21 16.1094 20.9487 16.0067 20.846C15.9041 20.7433 15.8527 20.6187 15.8527 20.472V6.15C15.8527 5.98867 15.8967 5.85667 15.9847 5.754C16.0874 5.65133 16.2194 5.6 16.3807 5.6H18.4047C18.5661 5.6 18.6981 5.65133 18.8007 5.754C18.9034 5.85667 18.9547 5.98867 18.9547 6.15V11.804H25.3787V6.15C25.3787 5.98867 25.4301 5.85667 25.5327 5.754C25.6354 5.65133 25.7601 5.6 25.9067 5.6H27.9527C28.1141 5.6 28.2387 5.65133 28.3267 5.754C28.4294 5.85667 28.4807 5.98867 28.4807 6.15V20.472C28.4807 20.6187 28.4294 20.7433 28.3267 20.846C28.2387 20.9487 28.1141 21 27.9527 21H25.9067C25.7601 21 25.6354 20.9487 25.5327 20.846C25.4301 20.7433 25.3787 20.6187 25.3787 20.472V14.598H18.9547V20.472C18.9547 20.6187 18.9034 20.7433 18.8007 20.846C18.6981 20.9487 18.5661 21 18.4047 21H16.3807Z" fill="#FF8686"/>
</svg>
