<svg fill="none" xmlns="http://www.w3.org/2000/svg" width="1em" height="1em" viewBox="0 0 50 50" class="design-iconfont">
  <path fill="#EAEDF7" d="M25 1A24 24 0 1 0 25 49A24 24 0 1 0 25 1Z"/>
  <path fill="#B5BBCF" d="M14.1297 22.599990000000002A2.32941 2.32941 0 1 0 14.1297 27.25881A2.32941 2.32941 0 1 0 14.1297 22.599990000000002Z"/>
  <path fill="#B5BBCF" d="M25.0008 22.599990000000002A2.32941 2.32941 0 1 0 25.0008 27.25881A2.32941 2.32941 0 1 0 25.0008 22.599990000000002Z"/>
  <path fill="#B5BBCF" d="M35.8709 22.599990000000002A2.32941 2.32941 0 1 0 35.8709 27.25881A2.32941 2.32941 0 1 0 35.8709 22.599990000000002Z"/>
</svg>
