<svg width="36" height="36" viewBox="0 0 36 36" fill="none" xmlns="http://www.w3.org/2000/svg">
<g filter="url(#filter0_i_7903_37372)">
<circle cx="18.0373" cy="18.0373" r="17.0373" fill="url(#paint0_linear_7903_37372)"/>
</g>
<g filter="url(#filter1_i_7903_37372)">
<circle cx="18.0375" cy="18.0373" r="13.8822" fill="url(#paint1_linear_7903_37372)"/>
</g>
<g filter="url(#filter2_di_7903_37372)">
<path fill-rule="evenodd" clip-rule="evenodd" d="M25.3816 12.8449C26.2579 13.4884 26.9702 14.3282 27.4612 15.2966C27.9521 16.265 28.2079 17.3349 28.2079 18.42C28.2079 19.505 27.9521 20.5749 27.4612 21.5433C26.9702 22.5117 26.2579 23.3515 25.3816 23.995C24.8209 24.4084 24.3255 24.9032 23.9119 25.463C23.2658 26.3362 22.4231 27.046 21.4516 27.5351C20.4802 28.0242 19.407 28.279 18.3187 28.279C17.2304 28.279 16.1573 28.0242 15.1858 27.5351C14.2143 27.046 13.3716 26.3362 12.7256 25.463C12.3116 24.9003 11.8153 24.4026 11.2531 23.9868C10.3773 23.343 9.66548 22.503 9.17489 21.5347C8.6843 20.5663 8.42871 19.4966 8.42871 18.4118C8.42871 17.3269 8.6843 16.2572 9.17489 15.2888C9.66548 14.3205 10.3773 13.4806 11.2531 12.8367C11.8139 12.43 12.3103 11.9416 12.7256 11.3879C13.3716 10.5147 14.2143 9.80493 15.1858 9.31582C16.1573 8.82671 17.2304 8.5719 18.3187 8.5719C19.407 8.5719 20.4802 8.82671 21.4516 9.31582C22.4231 9.80493 23.2658 10.5147 23.9119 11.3879C24.3247 11.9483 24.8202 12.4432 25.3816 12.8559V12.8449ZM22.0693 14.4954L15.6474 20.8981L18.33 23.5727L24.7519 17.17L22.0693 14.4954ZM11.9868 17.2446L14.6694 14.5701L17.352 17.2446L14.6694 19.9192L11.9868 17.2446Z" fill="#FCEC9F"/>
</g>
<defs>
<filter id="filter0_i_7903_37372" x="1" y="1" width="34.0742" height="34.0745" filterUnits="userSpaceOnUse" color-interpolation-filters="sRGB">
<feFlood flood-opacity="0" result="BackgroundImageFix"/>
<feBlend mode="normal" in="SourceGraphic" in2="BackgroundImageFix" result="shape"/>
<feColorMatrix in="SourceAlpha" type="matrix" values="0 0 0 0 0 0 0 0 0 0 0 0 0 0 0 0 0 0 127 0" result="hardAlpha"/>
<feOffset dy="0.5"/>
<feComposite in2="hardAlpha" operator="arithmetic" k2="-1" k3="1"/>
<feColorMatrix type="matrix" values="0 0 0 0 1 0 0 0 0 0.919643 0 0 0 0 0.6375 0 0 0 1 0"/>
<feBlend mode="normal" in2="shape" result="effect1_innerShadow_7903_37372"/>
</filter>
<filter id="filter1_i_7903_37372" x="4.15527" y="4.15503" width="27.7646" height="27.7645" filterUnits="userSpaceOnUse" color-interpolation-filters="sRGB">
<feFlood flood-opacity="0" result="BackgroundImageFix"/>
<feBlend mode="normal" in="SourceGraphic" in2="BackgroundImageFix" result="shape"/>
<feColorMatrix in="SourceAlpha" type="matrix" values="0 0 0 0 0 0 0 0 0 0 0 0 0 0 0 0 0 0 127 0" result="hardAlpha"/>
<feOffset dy="0.5"/>
<feComposite in2="hardAlpha" operator="arithmetic" k2="-1" k3="1"/>
<feColorMatrix type="matrix" values="0 0 0 0 0.925 0 0 0 0 0.663258 0 0 0 0 0.0539584 0 0 0 1 0"/>
<feBlend mode="normal" in2="shape" result="effect1_innerShadow_7903_37372"/>
</filter>
<filter id="filter2_di_7903_37372" x="8.42871" y="8.5719" width="19.7793" height="20.2071" filterUnits="userSpaceOnUse" color-interpolation-filters="sRGB">
<feFlood flood-opacity="0" result="BackgroundImageFix"/>
<feColorMatrix in="SourceAlpha" type="matrix" values="0 0 0 0 0 0 0 0 0 0 0 0 0 0 0 0 0 0 127 0" result="hardAlpha"/>
<feOffset dy="0.5"/>
<feComposite in2="hardAlpha" operator="out"/>
<feColorMatrix type="matrix" values="0 0 0 0 1 0 0 0 0 0.8955 0 0 0 0 0.525 0 0 0 1 0"/>
<feBlend mode="normal" in2="BackgroundImageFix" result="effect1_dropShadow_7903_37372"/>
<feBlend mode="normal" in="SourceGraphic" in2="effect1_dropShadow_7903_37372" result="shape"/>
<feColorMatrix in="SourceAlpha" type="matrix" values="0 0 0 0 0 0 0 0 0 0 0 0 0 0 0 0 0 0 127 0" result="hardAlpha"/>
<feOffset dy="0.5"/>
<feComposite in2="hardAlpha" operator="arithmetic" k2="-1" k3="1"/>
<feColorMatrix type="matrix" values="0 0 0 0 0.92549 0 0 0 0 0.662745 0 0 0 0 0.054902 0 0 0 1 0"/>
<feBlend mode="normal" in2="shape" result="effect2_innerShadow_7903_37372"/>
</filter>
<linearGradient id="paint0_linear_7903_37372" x1="3.19836" y1="28.8275" x2="36.4098" y2="27.1305" gradientUnits="userSpaceOnUse">
<stop stop-color="#FABB2F"/>
<stop offset="0.916667" stop-color="#FAD92F"/>
</linearGradient>
<linearGradient id="paint1_linear_7903_37372" x1="6.46897" y1="9.55367" x2="11.5228" y2="37.4383" gradientUnits="userSpaceOnUse">
<stop stop-color="#FABB2F"/>
<stop offset="0.916667" stop-color="#FAD92F"/>
</linearGradient>
</defs>
</svg>
