<svg xmlns="http://www.w3.org/2000/svg" width="1em" height="1em" viewBox="0 0 42 42" fill="none">
  <path d="M38.1156 23.4947C35.515 26.9203 29.9665 32.5 21.5 32.5C10.6624 32.5 5.81313 25.9243 4.12172 22.8483C3.73109 22.138 3.66822 21.3262 3.94403 20.5722C4.57658 18.8429 5.93073 16.078 8.61264 13.7528C11.2656 11.4529 15.311 9.5 21.5 9.5C31.2139 9.5 36.2531 15.9908 38.3949 19.8367C39.0464 21.0065 38.9414 22.4071 38.1156 23.4947Z" stroke="currentColor" stroke-width="3"></path>
  <path fill-rule="evenodd" clip-rule="evenodd" d="M21.0001 26.5716C24.0772 26.5716 26.5716 24.0772 26.5716 21.0001C26.5716 17.9231 24.0772 15.4287 21.0001 15.4287C20.3509 15.4287 19.7275 15.5398 19.1481 15.7439C20.2433 16.2666 21 17.3843 21 18.6787C21 20.4736 19.545 21.9287 17.75 21.9287C16.8408 21.9287 16.0188 21.5553 15.4289 20.9536C15.4288 20.9691 15.4287 20.9846 15.4287 21.0001C15.4287 24.0772 17.9231 26.5716 21.0001 26.5716Z" fill="currentColor"></path>
</svg>
