<svg fill="none" xmlns="http://www.w3.org/2000/svg" viewBox="0 0 27 24" class="design-iconfont"
width="1em" height="1em">
  <path fill-rule="evenodd" clip-rule="evenodd" d="M23.4075 15.7347C21.8374 20.5335 17.3235 24 12 24C5.37258 24 0 18.6274 0 12C0 5.37258 5.37258 0 12 0C17.3235 0 21.8374 3.46648 23.4075 8.26532L25.7279 10.5858C26.509 11.3668 26.509 12.6332 25.7279 13.4142L23.4075 15.7347Z" fill="#2F9BFA"/>
  <path d="M10.572 14.928C9.214 15.572 7.618 16.076 5.798 16.454L5.98 17.91C7.702 17.518 9.228 16.986 10.572 16.328V14.928ZM8.094 5.436C7.562 6.864 6.932 8.18 6.232 9.37C6.036 9.65 5.826 9.832 5.602 9.93L5.966 11.274C6.694 11.176 7.394 11.078 8.066 10.994C7.422 12.03 6.89 12.772 6.456 13.192C6.274 13.36 6.05 13.5 5.798 13.612L6.176 14.956C7.59 14.76 9.102 14.354 10.698 13.766V12.422C9.802 12.772 8.906 13.052 8.024 13.276C8.836 12.268 9.844 10.7 11.02 8.6L9.704 8.096L8.864 9.65C8.374 9.72 7.884 9.776 7.394 9.832C8.094 8.838 8.794 7.55 9.48 5.982L8.094 5.436ZM17.334 6.108H11.342V16.566H10.208V17.966H18.44V16.566H17.334V6.108ZM12.77 16.566V14.438H15.906V16.566H12.77ZM12.77 13.066V10.91H15.906V13.066H12.77ZM12.77 9.538V7.508H15.906V9.538H12.77Z" fill="#fff"/>
</svg>
