<svg width="128" height="128" viewBox="0 0 128 128" fill="none" xmlns="http://www.w3.org/2000/svg">
<circle cx="64" cy="64" r="63" fill="#06B899"/>
<path d="M46.846 57.5935C45.2937 56.0217 42.761 56.0059 41.1892 57.5583C39.6174 59.1106 39.6017 61.6432 41.154 63.215L46.846 57.5935ZM60.3902 77L57.5443 79.8108C58.2964 80.5724 59.3225 81.0007 60.3929 81C61.4633 80.9993 62.4888 80.5696 63.24 79.807L60.3902 77ZM88.8497 53.807C90.4 52.2331 90.3808 49.7005 88.807 48.1503C87.2331 46.6 84.7005 46.6192 83.1503 48.193L88.8497 53.807ZM41.154 63.215L57.5443 79.8108L63.2362 74.1892L46.846 57.5935L41.154 63.215ZM63.24 79.807L88.8497 53.807L83.1503 48.193L57.5405 74.193L63.24 79.807Z" fill="white"/>
</svg>
