<svg xmlns="http://www.w3.org/2000/svg" fill="none" viewBox="0 0 66 66" class="design-iconfont" width="1em" height="1em">
  <path fill-rule="evenodd" clip-rule="evenodd" d="M56.6381 14.2759C59.5658 16.4257 61.9457 19.2314 63.5858 22.4668C65.226 25.7021 66.0806 29.2765 66.0806 32.9016C66.0806 36.5267 65.226 40.1011 63.5858 43.3365C61.9457 46.5718 59.5658 49.3775 56.6381 51.5273C54.7649 52.9085 53.1098 54.5617 51.728 56.432C49.5696 59.3492 46.7542 61.7204 43.5085 63.3544C40.2629 64.9885 36.6777 65.8398 33.0417 65.8398C29.4058 65.8398 25.8206 64.9885 22.5749 63.3544C19.3293 61.7204 16.5139 59.3492 14.3555 56.432C12.9725 54.5518 11.3143 52.8892 9.43617 51.4999C6.51022 49.3489 4.13193 46.5428 2.49292 43.3076C0.853906 40.0724 0 36.4986 0 32.8742C0 29.2497 0.853906 25.6759 2.49292 22.4407C4.13193 19.2055 6.51022 16.3994 9.43617 14.2484C11.3097 12.8895 12.968 11.2578 14.3555 9.40787C16.5139 6.49059 19.3293 4.11944 22.5749 2.48538C25.8206 0.851311 29.4058 0 33.0417 0C36.6777 0 40.2629 0.851311 43.5085 2.48538C46.7542 4.11944 49.5696 6.49059 51.728 9.40787C53.1073 11.2802 54.7628 12.9338 56.6381 14.3125V14.2759ZM45.576 19.7895L24.1209 41.1804L33.0833 50.1159L54.5384 28.725L45.576 19.7895ZM11.8811 28.9745L20.8434 20.039L29.8058 28.9745L20.8434 37.91L11.8811 28.9745Z" fill="#FA6D16"/>
</svg>
