<svg xmlns="http://www.w3.org/2000/svg" width="48" height="48" viewBox="0 0 48 48" fill="none">
  <mask id="path-1-inside-1_6350_32559" fill="white">
    <path fill-rule="evenodd" clip-rule="evenodd" d="M7.49248 9.57635C2.83584 14.3448 2.83584 22.076 7.49249 26.8445L19.478 39.1178C19.515 39.1564 19.5522 39.1948 19.5896 39.2331L20.9908 40.668C22.6465 42.3634 25.3309 42.3634 26.9866 40.668L40.4853 26.8451C45.142 22.0766 45.142 14.3454 40.4853 9.57695C35.9491 4.93184 28.6675 4.81167 23.9892 9.21644C19.311 4.81106 12.0289 4.93103 7.49248 9.57635Z"></path>
  </mask>
  <path d="M7.49249 26.8445L10.3543 24.0498L10.3543 24.0498L7.49249 26.8445ZM7.49248 9.57635L10.3543 12.371L10.3543 12.371L7.49248 9.57635ZM19.478 39.1178L22.3643 36.3484L22.352 36.3357L22.3397 36.3231L19.478 39.1178ZM19.5896 39.2331L22.4514 36.4384L22.4513 36.4384L19.5896 39.2331ZM20.9908 40.668L18.129 43.4626L18.129 43.4626L20.9908 40.668ZM26.9866 40.668L29.8484 43.4626L29.8484 43.4626L26.9866 40.668ZM40.4853 26.8451L37.6235 24.0504L37.6235 24.0504L40.4853 26.8451ZM40.4853 9.57695L43.3471 6.78227L43.3471 6.78227L40.4853 9.57695ZM23.9892 9.21644L21.247 12.1285L23.989 14.7106L26.7312 12.1287L23.9892 9.21644ZM10.3543 24.0498C7.21524 20.8354 7.21524 15.5854 10.3543 12.371L4.6307 6.78168C-1.54357 13.1042 -1.54356 23.3166 4.63071 29.6392L10.3543 24.0498ZM22.3397 36.3231L10.3543 24.0498L4.63071 29.6392L16.6162 41.9125L22.3397 36.3231ZM22.4513 36.4384C22.4221 36.4085 22.3931 36.3785 22.3643 36.3484L16.5916 41.8871C16.6368 41.9342 16.6822 41.9811 16.7279 42.0278L22.4513 36.4384ZM23.8526 37.8733L22.4514 36.4384L16.7278 42.0278L18.129 43.4626L23.8526 37.8733ZM24.1248 37.8733C24.0917 37.9072 24.0663 37.9208 24.0501 37.9275C24.0313 37.9353 24.0106 37.9395 23.9887 37.9395C23.9668 37.9395 23.9461 37.9353 23.9273 37.9275C23.9111 37.9208 23.8857 37.9072 23.8526 37.8733L18.129 43.4626C21.3541 46.7652 26.6233 46.7652 29.8484 43.4626L24.1248 37.8733ZM37.6235 24.0504L24.1248 37.8733L29.8484 43.4626L43.3471 29.6398L37.6235 24.0504ZM37.6235 12.3716C40.7626 15.586 40.7626 20.836 37.6235 24.0504L43.3471 29.6398C49.5214 23.3172 49.5214 13.1048 43.3471 6.78227L37.6235 12.3716ZM26.7312 12.1287C29.826 9.21489 34.615 9.2908 37.6235 12.3716L43.3471 6.78227C37.2833 0.572879 27.5089 0.408458 21.2472 6.30418L26.7312 12.1287ZM10.3543 12.371C13.363 9.29006 18.1523 9.21428 21.247 12.1285L26.7315 6.30438C20.4697 0.407847 10.6948 0.572 4.6307 6.78168L10.3543 12.371Z" fill="#011628" mask="url(#path-1-inside-1_6350_32559)"></path>
</svg>