<svg width="1em" height="1em" viewBox="0 0 54 54" fill="none" xmlns="http://www.w3.org/2000/svg">
<line x1="1" y1="-1" x2="14" y2="-1" transform="matrix(1 0 0 -1 35 42)" stroke="#FA6D16" stroke-width="2" stroke-linecap="round"/>
<path d="M44.8291 49.0933L50.2541 43.6683C50.6446 43.2778 50.6446 42.6446 50.2541 42.2541L44.8291 36.8291" stroke="#FA6D16" stroke-width="2" stroke-linecap="round"/>
<path d="M29.5364 46H24C12.402 46 3 36.598 3 25V25C3 13.402 12.402 4 24 4V4C35.598 4 45 13.402 45 25V30.5364" stroke="#1F2D56" stroke-width="2" stroke-linecap="round"/>
<path d="M14 27.5L18.4505 23.9396C18.7801 23.6759 19.2398 23.6476 19.5993 23.8688L24.3513 26.7931C25.0455 27.2203 25.9296 27.1834 26.5859 26.6999L35 20.5" stroke="#1F2D56" stroke-width="2" stroke-linecap="round"/>
</svg>
