<?xml version="1.0" standalone="no"?><!DOCTYPE svg PUBLIC "-//W3C//DTD SVG 1.1//EN" "http://www.w3.org/Graphics/SVG/1.1/DTD/svg11.dtd"><svg t="1663578503955" class="icon" viewBox="0 0 1024 1024" version="1.1" xmlns="http://www.w3.org/2000/svg" p-id="1095" xmlns:xlink="http://www.w3.org/1999/xlink" width="1em" height="1em"><path d="M508.93637449 930.06704983c232.5763086 0 421.13067533-188.55436673 421.13067534-421.13067534C930.06704983 276.33649952 741.48911675 87.80569917 508.93637449 87.80569917 276.33649952 87.80569917 87.80569917 276.33649952 87.80569917 508.93637449c0 232.5763086 188.53080036 421.13067533 421.13067532 421.13067534z m0 70.69905014C237.31062386 1000.76609997 17.10664903 780.53855879 17.10664903 508.93637449 17.10664903 237.31062386 237.31062386 17.10664903 508.93637449 17.10664903c271.62575065 0 491.82972547 220.20397484 491.82972548 491.82972546 0 271.62575065-220.20397484 491.82972547-491.82972548 491.82972548z m-3.60565156-590.19567057h23.56635005a23.56635005 23.56635005 0 0 1 23.56635004 23.56635003v297.1245414a23.56635005 23.56635005 0 0 1-23.56635004 23.56635004h-23.56635005a23.56635005 23.56635005 0 0 1-23.56635003-23.56635004V434.13677943a23.56635005 23.56635005 0 0 1 23.56635003-23.56635003z m0-147.54891765h23.56635005a23.56635005 23.56635005 0 0 1 23.56635004 23.56635005v34.83106538a23.56635005 23.56635005 0 0 1-23.56635004 23.56635004h-23.56635005a23.56635005 23.56635005 0 0 1-23.56635003-23.56635004v-34.83106538a23.56635005 23.56635005 0 0 1 23.56635003-23.56635005z" fill="#B5BBCF" p-id="1096"></path></svg>
