<svg xmlns="http://www.w3.org/2000/svg" fill="none" viewBox="0 0 30 26" class="design-iconfont">
  <path d="M2.244 21C2.09733 21 1.97267 20.9487 1.87 20.846C1.76733 20.7433 1.716 20.6187 1.716 20.472V6.15C1.716 5.98867 1.76 5.85667 1.848 5.754C1.95067 5.65133 2.08267 5.6 2.244 5.6H4.268C4.42933 5.6 4.56133 5.65133 4.664 5.754C4.76667 5.85667 4.818 5.98867 4.818 6.15V11.804H11.242V6.15C11.242 5.98867 11.2933 5.85667 11.396 5.754C11.4987 5.65133 11.6233 5.6 11.77 5.6H13.816C13.9773 5.6 14.102 5.65133 14.19 5.754C14.2927 5.85667 14.344 5.98867 14.344 6.15V20.472C14.344 20.6187 14.2927 20.7433 14.19 20.846C14.102 20.9487 13.9773 21 13.816 21H11.77C11.6233 21 11.4987 20.9487 11.396 20.846C11.2933 20.7433 11.242 20.6187 11.242 20.472V14.598H4.818V20.472C4.818 20.6187 4.76667 20.7433 4.664 20.846C4.56133 20.9487 4.42933 21 4.268 21H2.244ZM18.3143 21C18.1676 21 18.043 20.9487 17.9403 20.846C17.8376 20.7433 17.7863 20.6187 17.7863 20.472V6.15C17.7863 5.98867 17.8303 5.85667 17.9183 5.754C18.021 5.65133 18.153 5.6 18.3143 5.6H20.2943C20.4556 5.6 20.5876 5.65133 20.6903 5.754C20.793 5.85667 20.8443 5.98867 20.8443 6.15V11.298L25.7503 5.996C25.9703 5.732 26.2563 5.6 26.6083 5.6H28.8523C28.9696 5.6 29.0723 5.644 29.1603 5.732C29.263 5.82 29.3143 5.93 29.3143 6.062C29.3143 6.16467 29.2776 6.25267 29.2043 6.326L23.2203 12.97L29.6443 20.252C29.703 20.3547 29.7323 20.45 29.7323 20.538C29.7323 20.67 29.6883 20.78 29.6003 20.868C29.5123 20.956 29.4096 21 29.2923 21H26.9823C26.6743 21 26.4543 20.9413 26.3223 20.824C26.1903 20.692 26.117 20.6187 26.1023 20.604L20.8443 14.796V20.472C20.8443 20.6187 20.793 20.7433 20.6903 20.846C20.5876 20.9487 20.4556 21 20.2943 21H18.3143Z" fill="#8470EB"/>
</svg>
