<svg fill="none" xmlns="http://www.w3.org/2000/svg" viewBox="0 0 36 36" class="design-iconfont">
  <mask id="qw79gynkl__hxa4fzurka" fill="#fff">
    <path fill-rule="evenodd" clip-rule="evenodd" d="M11 3C9.34315 3 8 4.34314 8 6V10.5V15.8571V29.632C8 31.4921 9.50792 33 11.368 33H23.257C26.1943 33 28.8535 31.2627 30.0333 28.5728C31.7002 24.7728 32.6333 20.6919 32.7836 16.5452L32.8215 15.4996C32.9215 12.7392 30.7633 10.4212 28.0029 10.324L18.1759 9.97809L17.1989 6.60789C16.5793 4.47061 14.6219 3 12.3966 3H11Z"/>
  </mask>
  <path d="M30.0333 28.5728L32.7807 29.7779L30.0333 28.5728ZM32.7836 16.5452L29.7855 16.4366V16.4366L32.7836 16.5452ZM32.8215 15.4996L35.8195 15.6082V15.6082L32.8215 15.4996ZM28.0029 10.324L27.8973 13.3221L28.0029 10.324ZM18.1759 9.97809L15.2945 10.8134L15.8993 12.8998L18.0703 12.9762L18.1759 9.97809ZM17.1989 6.60789L20.0803 5.77262L20.0803 5.77262L17.1989 6.60789ZM11 6L11 6V0C7.68629 0 5 2.68629 5 6H11ZM11 10.5V6H5V10.5H11ZM11 15.8571V10.5H5V15.8571H11ZM11 29.632V15.8571H5V29.632H11ZM11.368 30C11.1648 30 11 29.8352 11 29.632H5C5 33.1489 7.85107 36 11.368 36V30ZM23.257 30H11.368V36H23.257V30ZM27.286 27.3677C26.5845 28.967 25.0034 30 23.257 30V36C27.3851 36 31.1224 33.5583 32.7807 29.7779L27.286 27.3677ZM29.7855 16.4366C29.649 20.2053 28.8009 23.9142 27.286 27.3677L32.7807 29.7779C34.5994 25.6315 35.6176 21.1786 35.7816 16.6538L29.7855 16.4366ZM29.8234 15.3909L29.7855 16.4366L35.7816 16.6538L35.8195 15.6082L29.8234 15.3909ZM27.8973 13.3221C29.0007 13.361 29.8634 14.2876 29.8234 15.3909L35.8195 15.6082C35.9795 11.1909 32.5259 7.48136 28.1084 7.32586L27.8973 13.3221ZM18.0703 12.9762L27.8973 13.3221L28.1084 7.32586L18.2814 6.97995L18.0703 12.9762ZM14.3175 7.44315L15.2945 10.8134L21.0572 9.14282L20.0803 5.77262L14.3175 7.44315ZM12.3966 6C13.2867 6 14.0697 6.58824 14.3175 7.44315L20.0803 5.77262C19.089 2.35298 15.957 0 12.3966 0V6ZM11 6H12.3966V0H11V6Z" fill="#B5BBCF" mask="url(#qw79gynkl__hxa4fzurka)"/>
  <path d="M4.5 15C4.5 14.1716 5.17157 13.5 6 13.5H9.5V31.5H6C5.17157 31.5 4.5 30.8284 4.5 30V15Z" stroke="#B5BBCF" stroke-width="3"/>
</svg>
