<svg xmlns="http://www.w3.org/2000/svg" width="48" height="48" viewBox="0 0 48 48" fill="none">
  <mask id="path-1-inside-1_6348_31299" fill="white">
    <path fill-rule="evenodd" clip-rule="evenodd" d="M36.8611 37.2958C40.0442 33.9729 42 29.4648 42 24.5C42 14.2827 33.7173 6 23.5 6C13.2827 6 5 14.2827 5 24.5C5 34.7173 13.2827 43 23.5 43C23.7256 43 23.9502 42.996 24.1738 42.988C24.263 42.9959 24.3532 43 24.4444 43H33.8611C35.518 43 36.8611 41.6569 36.8611 40V37.2958Z"></path>
  </mask>
  <path d="M36.8611 37.2958L33.9726 34.5287L32.8611 35.689V37.2958H36.8611ZM24.1738 42.988L24.5301 39.0039L24.2808 38.9816L24.0307 38.9905L24.1738 42.988ZM38 24.5C38 28.393 36.4711 31.9206 33.9726 34.5287L39.7496 40.0628C43.6174 36.0252 46 30.5366 46 24.5H38ZM23.5 10C31.5081 10 38 16.4919 38 24.5H46C46 12.0736 35.9264 2 23.5 2V10ZM9 24.5C9 16.4919 15.4919 10 23.5 10V2C11.0736 2 1 12.0736 1 24.5H9ZM23.5 39C15.4919 39 9 32.5081 9 24.5H1C1 36.9264 11.0736 47 23.5 47V39ZM24.0307 38.9905C23.8548 38.9968 23.6779 39 23.5 39V47C23.7733 47 24.0456 46.9951 24.317 46.9854L24.0307 38.9905ZM24.4444 39C24.4723 39 24.5009 39.0012 24.5301 39.0039L23.8175 46.9721C24.025 46.9906 24.2341 47 24.4444 47V39ZM33.8611 39H24.4444V47H33.8611V39ZM32.8611 40C32.8611 39.4477 33.3088 39 33.8611 39V47C37.7271 47 40.8611 43.866 40.8611 40H32.8611ZM32.8611 37.2958V40H40.8611V37.2958H32.8611Z" fill="#011628" mask="url(#path-1-inside-1_6348_31299)"></path>
  <circle cx="15.2777" cy="24.5" r="2.05556" fill="#011628"></circle>
  <circle cx="23.4999" cy="24.5" r="2.05556" fill="#011628"></circle>
  <circle cx="31.7223" cy="24.5" r="2.05556" fill="#011628"></circle>
</svg>