<svg fill="none" width="1em" height="1em" xmlns="http://www.w3.org/2000/svg" viewBox="0 0 54 54" class="design-iconfont">
  <path transform="matrix(0 -1 -1 0 43 50)" stroke="#FA6D16" stroke-width="2" stroke-linecap="round" d="M1 -1L14 -1"/>
  <path d="M50 41L44.8318 35.8318C44.4413 35.4413 43.8082 35.4413 43.4176 35.8318L38.0782 41.1713" stroke="#FA6D16" stroke-width="2" stroke-linecap="round"/>
  <path d="M30.5364 48C31.0886 48 31.5364 47.5523 31.5364 47C31.5364 46.4477 31.0886 46 30.5364 46V48ZM45 31.5364C45 32.0886 45.4477 32.5364 46 32.5364C46.5523 32.5364 47 32.0886 47 31.5364H45ZM30.5364 46H25V48H30.5364V46ZM45 26V31.5364H47V26H45ZM3 26C3 38.1503 12.8497 48 25 48V46C13.9543 46 5 37.0457 5 26H3ZM25 6C36.0457 6 45 14.9543 45 26H47C47 13.8497 37.1503 4 25 4V6ZM25 4C12.8497 4 3 13.8497 3 26H5C5 14.9543 13.9543 6 25 6V4Z" fill="#1F2D56"/>
  <path d="M29 20C29.5523 20 30 19.5523 30 19C30 18.4477 29.5523 18 29 18V20ZM27.8889 27C28.4412 27 28.8889 26.5523 28.8889 26C28.8889 25.4477 28.4412 25 27.8889 25V27ZM22.5 20H29V18H22.5V20ZM27.8889 25H22.5V27H27.8889V25ZM22.5 25C21.1193 25 20 23.8807 20 22.5H18C18 24.9853 20.0147 27 22.5 27V25ZM22.5 18C20.0147 18 18 20.0147 18 22.5H20C20 21.1193 21.1193 20 22.5 20V18Z" fill="#1F2D56"/>
  <path d="M21.8966 27C21.3443 27 20.8966 26.5523 20.8966 26C20.8966 25.4477 21.3443 25 21.8966 25V27ZM20 34C19.4477 34 19 33.5523 19 33C19 32.4477 19.4477 32 20 32V34ZM27.5 27H21.8966V25H27.5V27ZM20 32H27.5V34H20V32ZM27.5 32C28.8807 32 30 30.8807 30 29.5H32C32 31.9853 29.9853 34 27.5 34V32ZM27.5 25C29.9853 25 32 27.0147 32 29.5H30C30 28.1193 28.8807 27 27.5 27V25Z" fill="#1F2D56"/>
  <path stroke="#1F2D56" stroke-width="2" stroke-linecap="round" d="M26 18L26 15"/>
  <path stroke="#1F2D56" stroke-width="2" stroke-linecap="round" d="M26 37L26 33"/>
</svg>
