<svg xmlns="http://www.w3.org/2000/svg" fill="none" viewBox="0 0 38 34" class="design-iconfont">
  <mask id="q7gaamq0h__4i0ilpp0qa" fill="#fff">
    <path fill-rule="evenodd" clip-rule="evenodd" d="M4.00309 4.01643C-0.00102973 8.03833 -0.00103045 14.5591 4.00309 18.581L14.3708 28.9948C14.3823 29.0064 14.3939 29.0181 14.4054 29.0297L15.6103 30.2399C17.034 31.6699 19.3422 31.6699 20.7659 30.2399L32.3731 18.5812C36.3772 14.5592 36.3772 8.03846 32.3731 4.01656C28.4724 0.0985781 22.2108 -0.00265884 18.1882 3.71285C14.1655 -0.00279272 7.90379 0.0984004 4.00309 4.01643Z"/>
  </mask>
  <path d="M4.00309 18.581L6.1291 16.4644L6.1291 16.4644L4.00309 18.581ZM4.00309 4.01643L6.12911 6.13304L6.12911 6.13304L4.00309 4.01643ZM14.3708 28.9948L16.5036 26.885L16.4969 26.8782L14.3708 28.9948ZM14.4054 29.0297L12.2794 31.1463L12.2794 31.1463L14.4054 29.0297ZM15.6103 30.2399L17.7363 28.1232L17.7363 28.1232L15.6103 30.2399ZM20.7659 30.2399L22.8919 32.3565L22.8919 32.3565L20.7659 30.2399ZM32.3731 18.5811L30.2471 16.4645L30.2471 16.4645L32.3731 18.5811ZM32.3731 4.01656L30.2471 6.13317L30.2471 6.13317L32.3731 4.01656ZM18.1882 3.71285L16.1526 5.9166L18.1881 7.79676L20.2237 5.91664L18.1882 3.71285ZM6.1291 16.4644C3.2903 13.613 3.2903 8.98446 6.12911 6.13304L1.87708 1.89981C-3.29236 7.0922 -3.29236 15.5052 1.87707 20.6976L6.1291 16.4644ZM16.4969 26.8782L6.1291 16.4644L1.87707 20.6976L12.2448 31.1114L16.4969 26.8782ZM16.5315 26.9131C16.5221 26.9036 16.5128 26.8943 16.5036 26.885L12.2381 31.1046C12.2519 31.1186 12.2657 31.1325 12.2794 31.1463L16.5315 26.9131ZM17.7363 28.1232L16.5314 26.9131L12.2794 31.1463L13.4843 32.3565L17.7363 28.1232ZM18.6399 28.1232C18.3888 28.3754 17.9873 28.3754 17.7363 28.1232L13.4843 32.3565C16.0806 34.9643 20.2956 34.9643 22.8919 32.3565L18.6399 28.1232ZM30.2471 16.4645L18.6399 28.1232L22.8919 32.3565L34.4991 20.6978L30.2471 16.4645ZM30.2471 6.13317C33.0859 8.98459 33.0859 13.6131 30.2471 16.4645L34.4991 20.6978C39.6685 15.5054 39.6685 7.09233 34.4991 1.89994L30.2471 6.13317ZM20.2237 5.91664C23.066 3.29135 27.489 3.36287 30.2471 6.13317L34.4991 1.89994C29.4558 -3.16571 21.3556 -3.29666 16.1526 1.50906L20.2237 5.91664ZM6.12911 6.13304C8.88719 3.36271 13.3103 3.29121 16.1526 5.9166L20.2237 1.5091C15.0207 -3.2968 6.92039 -3.1659 1.87708 1.89981L6.12911 6.13304Z" fill="#011628" mask="url(#q7gaamq0h__4i0ilpp0qa)"/>
  <path transform="rotate(45 29.3789 15.5938)" fill="#F7F8FC" d="M29.3789 15.5938H41.914500000000004V28.3217H29.3789z"/>
  <path stroke="#011628" stroke-width="3" stroke-linecap="round" d="M25.0977 24.8125L33.0977 24.8125"/>
  <path stroke="#011628" stroke-width="3" stroke-linecap="round" d="M29.0977 20.8125L29.0977 28.8125"/>
</svg>
