<svg width="1em" height="6.6em" viewBox="0 0 10 66" fill="none" xmlns="http://www.w3.org/2000/svg">
<path d="M4.64645 65.3536C4.84171 65.5488 5.15829 65.5488 5.35355 65.3536L8.53553 62.1716C8.7308 61.9763 8.7308 61.6597 8.53553 61.4645C8.34027 61.2692 8.02369 61.2692 7.82843 61.4645L5 64.2929L2.17157 61.4645C1.97631 61.2692 1.65973 61.2692 1.46447 61.4645C1.2692 61.6597 1.2692 61.9763 1.46447 62.1716L4.64645 65.3536ZM5.5 65L5.5 63.5455L4.5 63.5455L4.5 65L5.5 65ZM5.5 60.6364L5.5 57.7273L4.5 57.7273L4.5 60.6364L5.5 60.6364ZM5.5 54.8182L5.5 51.9091L4.5 51.9091L4.5 54.8182L5.5 54.8182ZM5.5 49L5.5 46.0909L4.5 46.0909L4.5 49L5.5 49ZM5.5 43.1818L5.5 40.2727L4.5 40.2727L4.5 43.1818L5.5 43.1818ZM5.5 37.3636L5.5 34.4545L4.5 34.4545L4.5 37.3636L5.5 37.3636ZM5.5 31.5454L5.5 28.6364L4.5 28.6364L4.5 31.5454L5.5 31.5454ZM5.5 25.7273L5.5 22.8182L4.5 22.8182L4.5 25.7273L5.5 25.7273ZM5.5 19.9091L5.5 17L4.5 17L4.5 19.9091L5.5 19.9091ZM5.5 14.0909L5.5 11.1818L4.5 11.1818L4.5 14.0909L5.5 14.0909ZM5.5 8.27271L5.5 5.36362L4.5 5.36362L4.5 8.27271L5.5 8.27271ZM5.5 2.45453L5.5 1L4.5 1L4.5 2.45453L5.5 2.45453Z" fill="#EBEDF5"/>
</svg>
