<svg xmlns="http://www.w3.org/2000/svg" width="1em" height="1em" viewBox="0 0 32 32" fill="none">
  <path d="M32 16C32 24.8366 24.8366 32 16 32V32C7.16344 32 0 24.8366 0 16V16C0 7.16344 7.16344 0 16 0V0C24.8366 0 32 7.16344 32 16V16Z" fill="#D10404"></path>
  <path d="M15.5698 16.5414C15.5698 16.5414 11.2824 14.7155 11.8972 9.97793C12.4872 7.69961 13.5424 6.1451 15.4452 5.29792C16.3425 5.0265 17.2565 4.90313 18.1871 4.8291C17.9379 5.0594 17.7384 5.2897 17.6304 5.56935C17.431 6.09575 17.5806 6.58924 17.8548 7.09097C18.1954 7.66671 18.4032 8.25891 18.4696 9.03206C18.5321 9.55891 18.4527 10.0927 18.2397 10.5795C18.0267 11.0662 17.6875 11.4886 17.2565 11.8039C16.7081 12.2233 16.06 12.3714 15.5283 12.8484C15.1128 13.2432 14.8635 13.6463 14.7805 14.3372C14.7638 15.6614 15.1211 15.8506 15.5698 16.5414V16.5414Z" fill="white"></path>
  <path d="M15.7945 8.86776L16.0687 9.32014L15.5701 9.11451L15.1796 9.52576L15.2461 8.99114L14.7476 8.78551L15.2876 8.66214L15.3541 8.13574L15.6283 8.58812L16.1767 8.46474" fill="#BA0000"></path>
  <path d="M15.9351 16.2291C15.9351 16.2291 16.4336 11.6314 21.1946 10.8253C23.571 10.7266 25.3823 11.2612 26.7616 12.824C27.2851 13.5889 27.6673 14.4196 28.008 15.275C27.7172 15.1105 27.443 14.9871 27.1272 14.9707C26.5705 14.9296 26.1301 15.2174 25.7313 15.6205C25.2656 16.1308 24.6849 16.5253 24.0363 16.772C23.5463 16.9864 23.0078 17.069 22.4752 17.0112C21.9426 16.9534 21.435 16.7574 21.0035 16.443C20.4385 16.0399 20.1062 15.4724 19.4913 15.1105C18.9916 14.8165 18.3993 14.7168 17.8295 14.8309C16.5416 15.2092 16.4751 15.604 15.9351 16.2291V16.2291Z" fill="white"></path>
  <path d="M23.4134 14.1976L23.0561 14.5841L23.106 14.0495L22.6074 13.8028L23.1309 13.7205L23.1807 13.1694L23.4632 13.6629L23.995 13.5642L23.6377 13.9508L23.9119 14.4443" fill="#BA0000"></path>
  <path d="M16.25 16.5578C16.25 16.5578 20.8199 15.5708 23.0966 19.7902C23.9524 21.9863 24.0106 23.8533 22.9553 25.6381C22.3903 26.3784 21.709 26.9953 21.0027 27.5957C21.0692 27.2667 21.0941 26.9706 21.011 26.6745C20.8781 26.1316 20.4626 25.8109 19.9475 25.5641C19.3083 25.2874 18.7444 24.8646 18.3023 24.3304C17.9438 23.9384 17.696 23.4599 17.5837 22.943C17.4713 22.4261 17.4985 21.889 17.6625 21.3858C17.8619 20.7278 18.3023 20.2343 18.4519 19.5434C18.5762 18.9825 18.4843 18.3958 18.1943 17.8985C17.4216 16.8128 17.0227 16.8703 16.25 16.5578V16.5578Z" fill="white"></path>
  <path d="M20.9375 21.6655L20.9545 21.6823Z" fill="#BA0000"></path>
  <path d="M20.5718 22.9405L20.0815 22.7267L20.6216 22.6033L20.6881 22.0522L20.9457 22.5211L21.4858 22.3977L21.1118 22.8089L21.3611 23.2778L20.8792 23.0639L20.5053 23.4834" fill="#BA0000"></path>
  <path d="M16.1513 17.0268C16.1513 17.0268 18.3864 21.0899 14.9465 24.4292C13.0521 25.8604 11.2573 26.4444 9.22995 25.9426C8.35751 25.6136 7.56816 25.1448 6.77881 24.6349C7.11117 24.6102 7.4186 24.5526 7.68448 24.3881C8.1664 24.1085 8.35751 23.6232 8.45722 23.0721C8.5437 22.3849 8.79435 21.728 9.18841 21.1557C9.4672 20.7042 9.86132 20.3334 10.331 20.0807C10.8008 19.828 11.3295 19.7023 11.8639 19.7163C12.5618 19.7246 13.1601 20.0124 13.8747 19.9631C14.448 19.8891 14.8967 19.7328 15.4035 19.2393C16.2344 18.2112 16.0682 17.8411 16.1513 17.0186V17.0268V17.0268Z" fill="white"></path>
  <path d="M12.5109 22.916L12.5024 22.9328Z" fill="#BA0000"></path>
  <path d="M11.1719 22.9243L11.2467 22.3979L11.5209 22.8668L12.0693 22.7845L11.6871 23.1629L11.9613 23.6317L11.4544 23.3932L11.0722 23.7715L11.1387 23.2451L10.6318 23.0066" fill="#BA0000"></path>
  <path d="M15.6439 16.9365C15.6439 16.9365 12.5197 20.3745 8.18247 18.2854C6.18833 16.9941 5.04169 15.5053 4.85059 13.4491C4.87551 12.5197 5.05 11.6314 5.27434 10.7349C5.4156 11.031 5.57347 11.2942 5.81443 11.4916C6.23818 11.8452 6.76995 11.8617 7.33496 11.7712C8.01314 11.6242 8.71711 11.6411 9.38727 11.8206C9.91201 11.9299 10.3982 12.1747 10.7966 12.53C11.1949 12.8853 11.4913 13.3386 11.6556 13.8439C11.88 14.4937 11.8052 15.1517 12.096 15.8014C12.3453 16.3114 12.6444 16.6733 13.2842 16.9858C14.5471 17.4218 14.8379 17.1421 15.6439 16.9447V16.9365Z" fill="white"></path>
  <path d="M8.82263 15.5055L8.80566 15.4971Z" fill="#BA0000"></path>
  <path d="M8.37437 14.2553L8.89783 14.1484L8.54055 14.5596L8.79813 15.0449L8.31621 14.8146L7.95892 15.2258L8.01709 14.6665L7.52686 14.4362L8.05032 14.3293L8.10848 13.77" fill="#BA0000"></path>
</svg>
