<svg xmlns="http://www.w3.org/2000/svg" fill="none" viewBox="0 0 26 26" class="design-iconfont">
  <rect x="1" y="1" width="24" height="24" rx="4" fill="#E8F2FF"/>
  <path d="M5.296 5.834V6.788H20.704V5.834H5.296ZM6.538 7.67V8.57H19.642V7.67H6.538ZM15.592 10.154H18.688V11.36H15.592V10.154ZM11.452 10.154H14.476V11.36H11.452V10.154ZM7.402 10.154H10.318V11.36H7.402V10.154ZM6.178 9.308V12.224H19.966V9.308H6.178ZM12.28 4.88V8.102H13.612V4.88H12.28ZM8.572 15.536H17.626V16.526H8.572V15.536ZM8.572 17.318H17.626V18.326H8.572V17.318ZM8.572 13.79H17.626V14.744H8.572V13.79ZM7.258 12.944V19.136H18.976V12.944H7.258ZM14.458 20.09C16.528 20.54 18.49 21.098 19.642 21.53L21.19 20.846C19.84 20.396 17.608 19.838 15.592 19.406L14.458 20.09ZM10.354 19.352C9.004 19.856 6.772 20.27 4.864 20.522C5.17 20.738 5.638 21.206 5.854 21.458C7.654 21.134 9.994 20.522 11.524 19.892L10.354 19.352Z" fill="#2F9BFA"/>
</svg>
