<svg xmlns="http://www.w3.org/2000/svg" width="1em" height="1em" viewBox="0 0 54 54" fill="none">
  <line x1="44" y1="35" x2="44" y2="48" stroke="#FA6D16" stroke-width="2" stroke-linecap="round"></line>
  <path d="M49.1714 42.8286L44.3319 47.6681C43.9414 48.0586 43.3082 48.0586 42.9177 47.6681L38.0782 42.8286" stroke="#FA6D16" stroke-width="2" stroke-linecap="round"></path>
  <path d="M30.5364 47C31.0887 47 31.5364 46.5523 31.5364 46C31.5364 45.4477 31.0887 45 30.5364 45V47ZM45 30.5364C45 31.0887 45.4477 31.5364 46 31.5364C46.5523 31.5364 47 31.0887 47 30.5364H45ZM30.5364 45H25V47H30.5364V45ZM45 25V30.5364H47V25H45ZM3 25C3 37.1503 12.8497 47 25 47V45C13.9543 45 5 36.0457 5 25H3ZM25 5C36.0457 5 45 13.9543 45 25H47C47 12.8497 37.1503 3 25 3V5ZM25 3C12.8497 3 3 12.8497 3 25H5C5 13.9543 13.9543 5 25 5V3Z" fill="#1F2D56"></path>
  <path d="M29 19C29.5523 19 30 18.5523 30 18C30 17.4477 29.5523 17 29 17V19ZM27.8889 26C28.4412 26 28.8889 25.5523 28.8889 25C28.8889 24.4477 28.4412 24 27.8889 24V26ZM22.5 19H29V17H22.5V19ZM27.8889 24H22.5V26H27.8889V24ZM22.5 24C21.1193 24 20 22.8807 20 21.5H18C18 23.9853 20.0147 26 22.5 26V24ZM22.5 17C20.0147 17 18 19.0147 18 21.5H20C20 20.1193 21.1193 19 22.5 19V17Z" fill="#1F2D56"></path>
  <path d="M21.8966 26C21.3443 26 20.8966 25.5523 20.8966 25C20.8966 24.4477 21.3443 24 21.8966 24V26ZM20 33C19.4477 33 19 32.5523 19 32C19 31.4477 19.4477 31 20 31V33ZM27.5 26H21.8966V24H27.5V26ZM20 31H27.5V33H20V31ZM27.5 31C28.8807 31 30 29.8807 30 28.5H32C32 30.9853 29.9853 33 27.5 33V31ZM27.5 24C29.9853 24 32 26.0147 32 28.5H30C30 27.1193 28.8807 26 27.5 26V24Z" fill="#1F2D56"></path>
  <line x1="26" y1="17" x2="26" y2="14" stroke="#1F2D56" stroke-width="2" stroke-linecap="round"></line>
  <line x1="26" y1="36" x2="26" y2="32" stroke="#1F2D56" stroke-width="2" stroke-linecap="round"></line>
</svg>
