<svg fill="none" xmlns="http://www.w3.org/2000/svg" width="1em" height="1em" viewBox="0 0 48 48" class="design-iconfont">
  <path d="M10.0001 19.9832C12.2093 19.9832 14.0002 21.7741 14.0002 23.9833C14.0002 26.1926 12.2093 27.9835 10.0001 27.9835C7.79092 27.9835 6 28.4834 6 23.9833C6 21.7741 7.79092 19.9832 10.0001 19.9832Z" fill="#011628"/>
  <path d="M24.0004 19.9832C26.2096 19.9832 28.0005 21.7741 28.0005 23.9833C28.0005 26.1926 26.2096 27.9835 24.0004 27.9835C21.7912 27.9835 20.0002 28.4834 20.0002 23.9833C20.0002 21.7741 21.7912 19.9832 24.0004 19.9832Z" fill="#011628"/>
  <path d="M38.0011 19.9832C40.2103 19.9832 42.0012 21.7741 42.0012 23.9833C42.0012 26.1926 40.2103 27.9835 38.0011 27.9835C35.7919 27.9835 34.001 28.4834 34.001 23.9833C34.001 21.7741 35.7919 19.9832 38.0011 19.9832Z" fill="#011628"/>
</svg>
