<svg xmlns="http://www.w3.org/2000/svg" width="1em" height="1em" viewBox="0 0 32 32" fill="none">
  <path d="M0.469922 12.2138C1.21564 9.13728 2.85964 6.35143 5.19324 4.20995C7.52684 2.06847 10.4448 0.667924 13.5767 0.186117C16.7086 -0.295691 19.9131 0.162963 22.7836 1.50386C25.6541 2.84475 28.0609 5.00741 29.6987 7.71729C31.3365 10.4272 32.1313 13.5621 31.9823 16.724C31.8332 19.886 30.747 22.9324 28.8615 25.4766C26.9761 28.0207 24.3764 29.9478 21.3925 31.0133C18.4086 32.0788 15.175 32.2346 12.1023 31.4609C10.0717 30.9631 8.15945 30.0698 6.47511 28.8323C4.79077 27.5948 3.36749 26.0374 2.28685 24.2493C1.2062 22.4613 0.489441 20.4778 0.177657 18.4125C-0.134128 16.3472 -0.0348086 14.2407 0.469922 12.2138" fill="#F7F8F8"></path>
  <path d="M30.6504 10.0378H18.3185V12.4137H31.4299C31.2306 11.6032 30.9701 10.8089 30.6504 10.0378V10.0378ZM27.4925 5.1062H18.3185V7.54203H29.3912C28.8385 6.67075 28.2027 5.855 27.4925 5.1062V5.1062ZM4.42756 27.0686H27.4325C28.1696 26.3174 28.8385 25.5022 29.4312 24.6328H2.50882C3.08855 25.5119 3.75839 26.3282 4.50751 27.0686H4.42756ZM19.7376 0.593921C19.2779 0.474126 18.7982 0.374297 18.3185 0.294434V2.67037H24.5744C23.0897 1.73067 21.4532 1.05515 19.7376 0.673785V0.593921ZM31.7297 14.9294H18.3185V17.3652H31.7897C31.8595 16.5548 31.8595 15.7398 31.7897 14.9294H31.7297ZM1.22965 22.157H30.6104C30.9292 21.408 31.1832 20.6332 31.37 19.841V19.7212H0.430176C0.624134 20.5551 0.891672 21.3703 1.22965 22.157V22.157ZM12.1025 31.4611C13.0229 31.7286 13.9665 31.9091 14.9207 32.0002H16.9194C19.585 31.8412 22.1655 31.0026 24.4145 29.5644H7.38563C8.83849 30.4823 10.4318 31.1567 12.1025 31.5609" fill="#E72D14"></path>
  <path d="M17.0976 16.3867L16.7578 16.1472L16.418 16.3867L16.5379 15.9874L16.1981 15.7478H16.6179L16.7578 15.3286L16.8977 15.7478H17.3174L16.9776 15.9874L17.0976 16.3867ZM15.4186 3.56867L15.5386 4.04786L15.1988 3.7883L14.859 4.04786L14.9789 3.62857L14.6392 3.38898H15.0589L15.1988 2.9697L15.3387 3.38898H15.7584L15.4186 3.56867ZM15.4186 7.24239L15.5386 7.64171L15.1988 7.38215L14.859 7.64171L14.9789 7.24239L14.6392 6.98283H15.0589L15.1988 6.58352L15.3387 6.98283H15.7584L15.4186 7.24239ZM15.4186 10.8163L15.5586 11.2356L15.1988 10.976L14.859 11.2356L14.9989 10.8163L14.6392 10.5767H15.0789L15.1988 10.1774L15.3387 10.5767H15.7185L15.4186 10.8163ZM15.4186 14.8094L15.0789 14.5699L14.7391 14.8094L14.859 14.4101L14.5792 14.0308H14.9989L15.1388 13.6315L15.2588 14.0308H15.6985L15.3387 14.2903L15.4186 14.8094ZM13.7797 5.34563L13.9196 5.74495L13.5798 5.50536L13.2201 5.74495L13.36 5.34563L13.0202 5.10605H13.4399L13.5798 4.68676L13.6998 5.10605H14.1395L13.7797 5.34563ZM13.7797 8.89955L13.9196 9.29887L13.5798 9.05928L13.2201 9.29887L13.36 8.89955L13.0202 8.64H13.4399L13.5798 8.24068L13.6998 8.64H14.1395L13.7797 8.89955ZM13.7797 12.5333L13.9196 12.9327L13.5798 12.6731L13.2201 12.9327L13.36 12.5333L13.0202 12.2738H13.4399L13.5798 11.8745L13.6998 12.2738H14.1395L13.7797 12.5333ZM13.9196 16.3867L13.5798 16.1472L13.2201 16.3867L13.36 15.9874L13.0202 15.7478H13.4399L13.5798 15.3286L13.6998 15.7478H14.1395L13.7797 16.0274L13.9196 16.3867ZM12.2207 3.56867L12.3606 4.04786L12.0209 3.7883L11.6611 4.04786L11.801 3.62857L11.4612 3.38898H11.9209L12.0608 2.9697L12.1808 3.38898H12.6205L12.2207 3.56867ZM12.2207 7.24239L12.3606 7.64171L12.0209 7.38215L11.6611 7.64171L11.801 7.24239L11.4612 6.98283H11.9209L12.0608 6.58352L12.1808 6.98283H12.6205L12.2207 7.24239ZM12.2207 10.8163L12.3407 11.2356L11.9209 10.976L11.5812 11.2356L11.7011 10.8163L11.3613 10.5767H11.9209V10.1774L12.0608 10.5767H12.4806L12.2207 10.8163ZM12.2207 14.8094L11.9209 14.5299L11.5612 14.7695L11.7011 14.3702L11.4013 14.0308H11.9209V13.7113L12.0409 14.1106H12.4606L12.1208 14.3702L12.2207 14.8094ZM10.5218 1.83165L10.6618 2.25093L10.3819 2.05127L10.0422 2.31083L10.1821 1.89154L9.92224 1.55213H10.342L10.4619 1.15281L10.6018 1.55213H11.0215L10.5218 1.83165ZM10.5218 5.38557L10.6618 5.78488L10.302 5.54529L9.96221 5.78488L10.1021 5.38557L9.92224 5.10605H10.342L10.4619 4.68676L10.6018 5.10605H11.0215L10.5218 5.38557ZM10.5218 8.93949L10.6618 9.3388L10.302 9.09921L9.96221 9.3388L10.1021 8.93949L9.92224 8.64H10.342L10.4619 8.24068L10.6018 8.64H11.0215L10.5218 8.93949ZM10.5218 12.5733L10.6618 12.9726L10.302 12.713L9.96221 12.9726L10.1021 12.5733L9.92224 12.2738H10.342L10.4619 11.8745L10.6018 12.2738H11.0215L10.5218 12.5733ZM10.6618 16.4267L10.302 16.1871L9.96221 16.4267L10.1021 16.0274L9.92224 15.7478H10.342L10.4619 15.3286L10.6018 15.7478H11.0215L10.6018 16.0274L10.6618 16.4267ZM9.04282 3.44888L9.18272 3.8482L8.82296 3.60861L8.48318 3.8482L8.62309 3.44888L8.26332 3.18932H8.70304L8.82296 2.79001L8.96287 3.18932H9.38259L9.04282 3.44888ZM9.04282 7.10263L9.18272 7.50195L8.82296 7.26236L8.48318 7.50195L8.62309 7.10263L8.26332 6.86304H8.70304L8.82296 6.46372L8.96287 6.86304H9.38259L9.04282 7.10263ZM9.04282 10.6965L9.18272 11.0958L8.84295 10.8562L8.48318 11.0958L8.62309 10.6965L8.24334 10.4369H8.66306L8.80297 10.0376L8.92289 10.4369H9.36261L9.04282 10.6965ZM9.04282 14.6896L8.70304 14.4301L8.36326 14.6896L8.50317 14.2903L8.20336 14.0308H8.64308L8.763 13.6315L8.90291 14.0308H9.32263L8.98285 14.2903L9.04282 14.6896ZM7.42387 5.34563L7.54379 5.74495L7.20402 5.50536L6.86424 5.74495L7.00415 5.34563L6.64438 5.10605H7.0841L7.20402 4.68676L7.34393 5.10605H7.76365L7.42387 5.34563ZM7.42387 8.89955L7.54379 9.29887L7.20402 9.05928L6.86424 9.29887L7.00415 8.89955L6.64438 8.64H7.0841L7.20402 8.24068L7.34393 8.64H7.76365L7.42387 8.89955ZM7.42387 12.5333L7.54379 12.9327L7.20402 12.6731L6.86424 12.9327L7.00415 12.5333L6.64438 12.2738H7.0841L7.20402 11.8745L7.34393 12.2738H7.76365L7.42387 12.5333ZM7.54379 16.3867L7.20402 16.1472L6.86424 16.3867L7.00415 15.9874L6.64438 15.7478H7.0841L7.20402 15.3286L7.34393 15.7478H7.76365L7.42387 16.0274L7.54379 16.3867ZM5.92485 7.08266L6.04477 7.48198L5.705 7.22242L5.36522 7.48198L5.48514 7.08266L5.14536 6.82311H5.52511L5.64504 6.42379L5.78495 6.82311H6.20467L5.92485 7.08266ZM5.92485 10.6565L6.06476 11.0559L5.72498 10.8163L5.36522 11.0559L5.50513 10.6565L5.16535 10.417H5.58508L5.62505 10.0376L5.74497 10.4569H6.1647L5.92485 10.6565ZM5.92485 14.6497L5.58508 14.4101L5.2453 14.6497L5.36522 14.2504L5.02544 14.0308H5.44517L5.58508 13.6315L5.72498 14.0308H6.14471L5.80493 14.2903L5.92485 14.6497ZM13.4399 1.55213L13.5798 1.15281L13.6998 1.55213H14.1395L13.7797 1.79172L13.9196 2.211L13.5798 2.05127L13.2201 2.31083L13.36 1.89154L13.0202 1.65195L13.4399 1.55213ZM16.6179 12.2738L16.7578 11.8745L16.8977 12.2738H17.3174L16.9776 12.5333L17.0976 12.9327L16.7578 12.6731L16.418 12.9327L16.5379 12.5333L16.1981 12.2738H16.6179ZM16.6179 8.64L16.7578 8.24068L16.8977 8.64H17.3174L16.9776 8.89955L17.0976 9.29887L16.7578 9.05928L16.418 9.29887L16.5379 8.89955L16.1981 8.64H16.6179ZM16.6179 5.10605L16.7578 4.68676L16.8977 5.10605H17.3174L16.9776 5.34563L17.0976 5.74495L16.7578 5.50536L16.418 5.74495L16.5379 5.34563L16.1981 5.10605H16.6179ZM16.6179 1.55213L16.7578 1.15281L16.8977 1.55213H17.3174L16.9776 1.79172L17.0976 2.211L16.7578 2.05127L16.418 2.31083L16.5379 1.89154L16.1981 1.65195L16.6179 1.55213ZM4.24595 8.89955L4.36587 9.29887L4.02609 9.05928L3.68632 9.29887L3.80624 8.89955L3.46646 8.64H3.92616L4.06607 8.24068L4.18599 8.64H4.6257L4.24595 8.89955ZM4.24595 12.5333L4.36587 12.9327L4.02609 12.6731L3.68632 12.9327L3.80624 12.5333L3.46646 12.2738H3.92616L4.06607 11.8745L4.18599 12.2738H4.6257L4.24595 12.5333ZM4.36587 16.3867L4.02609 16.1472L3.68632 16.3867L3.80624 15.9874L3.46646 15.7478H3.92616L4.06607 15.3286L4.18599 15.7478H4.6257L4.24595 16.0274L4.36587 16.3867ZM2.647 10.5967L2.76692 10.996L2.42714 10.7564L2.08736 10.996L2.20728 10.5967L1.92747 10.3571H2.36718L2.42714 10.0376L2.56705 10.4569H2.98677L2.647 10.5967ZM2.74693 14.5898L2.40715 14.3303L2.04739 14.5898L2.1873 14.1905L1.92747 13.891H2.34719L2.4871 13.4917L2.60702 13.891H3.02675L2.68697 14.1506L2.74693 14.5898ZM1.18795 16.4267L0.848172 16.1871L0.488407 16.4267L0.628316 16.0274L0.288538 15.7878H0.708263L0.848172 15.3685L0.968094 15.7878H1.38782L1.04804 16.0274L1.18795 16.4267ZM18.3168 0.294277L16.8377 0.0546875L13.9196 0.23438C10.9922 0.607103 8.22516 1.78186 5.92485 3.62857V3.80827V3.70844C5.38751 4.13228 4.88613 4.59974 4.42583 5.10605H4.66568L4.3259 5.34563L4.44582 5.74495L4.10604 5.50536L3.92616 5.60519C3.60637 5.96458 3.30656 6.36389 3.00676 6.76321L2.7869 7.0627V7.34222L2.58704 7.22242C1.59557 8.75048 0.878612 10.4396 0.46842 12.2139H0.72825L0.868159 11.8146L0.98808 12.2139H1.40781L1.06803 12.4734L1.20794 12.8728L0.868159 12.6132L0.508394 12.8728L0.648303 12.4734L0.448433 12.3137C0.0558797 13.9263 -0.0723679 15.5917 0.0686816 17.2453H18.3168V0.294277Z" fill="#073470"></path>
</svg>
