<svg fill="none" xmlns="http://www.w3.org/2000/svg" viewBox="0 0 42 42" class="design-iconfont">
  <path stroke="#717686" stroke-width="4" stroke-linecap="round" d="M21.0049 37.9609L21.0049 13.9609"/>
  <path d="M21.0313 11.6074L22.3043 10.0649C21.5645 9.4544 20.4955 9.45505 19.7565 10.0664L21.0313 11.6074ZM34.736 25.5096C35.588 26.2126 36.8486 26.0919 37.5516 25.2399C38.2546 24.388 38.1339 23.1274 37.2819 22.4244L34.736 25.5096ZM4.72551 22.5006C3.87441 23.2047 3.75521 24.4654 4.45927 25.3165C5.16334 26.1676 6.42404 26.2868 7.27514 25.5827L4.72551 22.5006ZM19.7584 13.15L34.736 25.5096L37.2819 22.4244L22.3043 10.0649L19.7584 13.15ZM7.27514 25.5827L22.3061 13.1485L19.7565 10.0664L4.72551 22.5006L7.27514 25.5827Z" fill="#717686"/>
  <path stroke="#717686" stroke-width="4" stroke-linecap="round" d="M10.0059 6L33.0059 6"/>
</svg>
