<svg xmlns="http://www.w3.org/2000/svg" fill="none" viewBox="0 0 30 26" class="design-iconfont">
  <path d="M7.876 21.22C5.88133 21.22 4.334 20.714 3.234 19.702C2.134 18.69 1.584 17.1573 1.584 15.104V6.15C1.584 5.98867 1.628 5.85667 1.716 5.754C1.81867 5.65133 1.95067 5.6 2.112 5.6H4.136C4.29733 5.6 4.42933 5.65133 4.532 5.754C4.63467 5.85667 4.686 5.98867 4.686 6.15V15.104C4.686 16.2627 4.95733 17.1353 5.5 17.722C6.05733 18.3087 6.842 18.602 7.854 18.602C8.866 18.602 9.64333 18.3087 10.186 17.722C10.7433 17.1353 11.022 16.2627 11.022 15.104V6.15C11.022 5.98867 11.0733 5.85667 11.176 5.754C11.2787 5.65133 11.4107 5.6 11.572 5.6H13.596C13.7573 5.6 13.882 5.65133 13.97 5.754C14.0727 5.85667 14.124 5.98867 14.124 6.15V15.104C14.124 17.1573 13.574 18.69 12.474 19.702C11.3887 20.714 9.856 21.22 7.876 21.22ZM22.7891 21.22C21.4691 21.22 20.3397 21.022 19.4011 20.626C18.4624 20.23 17.7511 19.7093 17.2671 19.064C16.7831 18.4187 16.5264 17.7147 16.4971 16.952C16.4971 16.8347 16.5411 16.732 16.6291 16.644C16.7171 16.5413 16.8271 16.49 16.9591 16.49H18.9611C19.1224 16.49 19.2544 16.5267 19.3571 16.6C19.4597 16.6733 19.5551 16.776 19.6431 16.908C19.7897 17.4067 20.1197 17.8247 20.6331 18.162C21.1611 18.4993 21.8797 18.668 22.7891 18.668C23.8157 18.668 24.5857 18.4993 25.0991 18.162C25.6271 17.81 25.8911 17.3333 25.8911 16.732C25.8911 16.336 25.7591 16.006 25.4951 15.742C25.2311 15.478 24.8277 15.2507 24.2851 15.06C23.7571 14.8547 22.9651 14.6127 21.9091 14.334C20.1784 13.9233 18.9097 13.3807 18.1031 12.706C17.2964 12.0313 16.8931 11.0633 16.8931 9.802C16.8931 8.95133 17.1277 8.196 17.5971 7.536C18.0664 6.86133 18.7337 6.33333 19.5991 5.952C20.4791 5.57067 21.4984 5.38 22.6571 5.38C23.8744 5.38 24.9231 5.59267 25.8031 6.018C26.6977 6.44333 27.3724 6.97867 27.8271 7.624C28.2964 8.25467 28.5457 8.88533 28.5751 9.516C28.5751 9.63333 28.5311 9.74333 28.4431 9.846C28.3551 9.934 28.2451 9.978 28.1131 9.978H26.0231C25.7004 9.978 25.4804 9.846 25.3631 9.582C25.2897 9.11267 25.0037 8.724 24.5051 8.416C24.0064 8.09333 23.3904 7.932 22.6571 7.932C21.8504 7.932 21.2124 8.086 20.7431 8.394C20.2884 8.702 20.0611 9.14933 20.0611 9.736C20.0611 10.132 20.1784 10.462 20.4131 10.726C20.6477 10.99 21.0144 11.2247 21.5131 11.43C22.0117 11.6207 22.7377 11.8407 23.6911 12.09C24.9964 12.3833 26.0304 12.7133 26.7931 13.08C27.5704 13.4467 28.1424 13.9087 28.5091 14.466C28.8757 15.0233 29.0591 15.7347 29.0591 16.6C29.0591 17.5533 28.7951 18.382 28.2671 19.086C27.7537 19.7753 27.0204 20.3033 26.0671 20.67C25.1284 21.0367 24.0357 21.22 22.7891 21.22Z" fill="#5DA0FF"/>
</svg>
