<svg fill="none" xmlns="http://www.w3.org/2000/svg" viewBox="0 0 32 32" class="design-iconfont">
  <path d="M14.2065 4.63397C14.9878 3.05102 15.3784 2.25955 16 2.25955C16.6216 2.25955 17.0122 3.05102 17.7935 4.63397L19.943 8.98949C20.171 9.45136 20.285 9.68229 20.4847 9.82738C20.6844 9.97248 20.9392 10.0095 21.4489 10.0836L26.2555 10.782C28.0024 11.0358 28.8759 11.1628 29.0679 11.754C29.26 12.3452 28.628 12.9612 27.3639 14.1934L23.8859 17.5837C23.517 17.9432 23.3326 18.123 23.2563 18.3577C23.1801 18.5925 23.2236 18.8463 23.3107 19.354L24.1317 24.1411C24.4301 25.881 24.5793 26.7509 24.0764 27.1163C23.5735 27.4816 22.7923 27.0709 21.2298 26.2495L16.9307 23.9893C16.4748 23.7496 16.2468 23.6298 16 23.6298C15.7532 23.6298 15.5252 23.7496 15.0693 23.9893L10.7702 26.2495C9.2077 27.0709 8.42647 27.4816 7.92357 27.1163C7.42066 26.7509 7.56986 25.881 7.86827 24.1411L8.68933 19.354C8.7764 18.8463 8.81993 18.5925 8.74365 18.3577C8.66737 18.123 8.48296 17.9432 8.11414 17.5837L4.63605 14.1934C3.37199 12.9612 2.73996 12.3452 2.93206 11.754C3.12415 11.1628 3.99759 11.0358 5.74448 10.782L10.5511 10.0836C11.0608 10.0095 11.3156 9.97248 11.5153 9.82738C11.715 9.68229 11.829 9.45136 12.057 8.98949L14.2065 4.63397Z" stroke="#011628" stroke-width="2"/>
</svg>
