<svg xmlns="http://www.w3.org/2000/svg" width="48" height="48" viewBox="0 0 48 48" fill="none">
  <path d="M8.08398 15.0449H13.6914C14.7461 15.0215 15.6719 15.2617 16.4688 15.7656C16.9961 16.0703 17.4062 16.4863 17.6992 17.0137C17.9805 17.5996 18.1211 18.3203 18.1211 19.1758C18.1211 20.207 17.7754 21.1445 17.084 21.9883C16.3574 22.8555 15.2734 23.3008 13.832 23.3242H8.08398V15.0449ZM4.19922 37H8.08398V26.998H13.9902C16.627 26.9512 18.6309 26.1074 20.002 24.4668C21.3379 22.9082 22.0059 21.1797 22.0059 19.2812C22.0059 17.875 21.7422 16.6562 21.2148 15.625C20.7109 14.5586 20.0547 13.7383 19.2461 13.1641C18.2852 12.4023 17.3359 11.8984 16.3984 11.6523C15.4609 11.4648 14.4883 11.3711 13.4805 11.3711H4.19922V37ZM25.5391 37H29.4238V29.1953L33.9238 24.4668L40.9023 37H45.5078L36.4375 21.4785L44.6465 11.3711H40.041L29.4941 24.5723H29.4238V11.3711H25.5391V37Z" fill="#011628"></path>
</svg>