<svg width="1em" height="1em" viewBox="0 0 54 54" fill="none" xmlns="http://www.w3.org/2000/svg">
<line x1="51" y1="43" x2="38" y2="43" stroke="#FA6D16" stroke-width="2" stroke-linecap="round"/>
<path d="M42.1709 49.0933L36.7459 43.6683C36.3554 43.2778 36.3554 42.6446 36.7459 42.2541L42.1709 36.8291" stroke="#FA6D16" stroke-width="2" stroke-linecap="round"/>
<path d="M28.5364 46H23C11.402 46 2 36.598 2 25V25C2 13.402 11.402 4 23 4V4C34.598 4 44 13.402 44 25V30.5364" stroke="#1F2D56" stroke-width="2" stroke-linecap="round"/>
<path d="M13 27.5L17.4505 23.9396C17.7801 23.6759 18.2398 23.6476 18.5993 23.8688L23.3513 26.7931C24.0455 27.2203 24.9296 27.1834 25.5859 26.6999L34 20.5" stroke="#1F2D56" stroke-width="2" stroke-linecap="round"/>
</svg>
