<svg fill="none" xmlns="http://www.w3.org/2000/svg" viewBox="0 0 36 36" class="design-iconfont">
  <path d="M32.5 18C32.5 26.0081 26.0081 32.5 18 32.5C15.8126 32.5 10.7148 32.3258 6.84683 32.1804C4.97767 32.1101 3.5 30.5739 3.5 28.6965V28.6765V28.6564V28.6363V28.6162V28.596V28.5759V28.5557V28.5355V28.5153V28.495V28.4747V28.4544V28.4341V28.4138V28.3934V28.373V28.3526V28.3322V28.3117V28.2912V28.2707V28.2502V28.2297V28.2091V28.1885V28.1679V28.1473V28.1267V28.106V28.0853V28.0646V28.0439V28.0231V28.0024V27.9816V27.9608V27.9399V27.9191V27.8982V27.8773V27.8564V27.8355V27.8146V27.7936V27.7726V27.7516V27.7306V27.7096V27.6885V27.6674V27.6463V27.6252V27.6041V27.583V27.5618V27.5406V27.5194V27.4982V27.477V27.4557V27.4345V27.4132V27.3919V27.3706V27.3493V27.3279V27.3065V27.2852V27.2638V27.2424V27.2209V27.1995V27.178V27.1566V27.1351V27.1136V27.0921V27.0705V27.049V27.0274V27.0058V26.9843V26.9627V26.941V26.9194V26.8978V26.8761V26.8544V26.8327V26.811V26.7893V26.7676V26.7459V26.7241V26.7024V26.6806V26.6588V26.637V26.6152V26.5934V26.5715V26.5497V26.5278V26.5059V26.4841V26.4622V26.4403V26.4183V26.3964V26.3745V26.3525V26.3306V26.3086V26.2866V26.2646V26.2426V26.2206V26.1986V26.1766V26.1545V26.1325V26.1104V26.0883V26.0663V26.0442V26.0221V26V25.9779V25.9557V25.9336V25.9115V25.8893V25.8672V25.845V25.8228V25.8007V25.7785V25.7563V25.7341V25.7119V25.6897V25.6674V25.6452V25.623V25.6007V25.5785V25.5562V25.534V25.5117V25.4894V25.4671V25.4449V25.4226V25.4003V25.378V25.3557V25.3333V25.311V25.2887V25.2664V25.2441V25.2217V25.1994V25.177V25.1547V25.1323V25.11V25.0876V25.0652V25.0429V25.0205V24.9981V24.9758V24.9534V24.931V24.9086V24.8862V24.8638V24.8414V24.819V24.7966V24.7742V24.7518V24.7294V24.707V24.6846V24.6622V24.6398V24.6174V24.595V24.5725V24.5501V24.5277V24.5053V24.4829V24.4605V24.438V24.4156V24.3932V24.3708V24.3484V24.326V24.3035V24.2811V24.2587V24.2363V24.2139V24.1915V24.1691V24.1466V24.1242V24.1018V24.0794V24.057V24.0346V24.0122V23.9898V23.9674V23.945V23.9226V23.9002V23.8779V23.8555V23.8331V23.8107V23.7883V23.766V23.7436V23.7212V23.6989V23.6765V23.6542V23.6318V23.6095V23.5871V23.5648V23.5425V23.5201V23.4978V23.4755V23.4532V23.4309V23.4086V23.3863V23.364V23.3417V23.3194V23.2972V23.2749V23.2526V23.2304V23.2081V23.1859V23.1637V23.1414V23.1192V23.097V23.0748V23.0526V23.0304V23.0082V22.986V22.9639V22.9417V22.9196V22.8974V22.8753V22.8532V22.831V22.8089V22.7868V22.7647V22.7426V22.7206V22.6985V22.6764V22.6544V22.6324V22.6103V22.5883V22.5663V22.5443V22.5223V22.5003V22.4784V22.4564V22.4345V22.4125V22.3906V22.3687V22.3468V22.3249V22.303V22.2811V22.2593V22.2374V22.2156V22.1938V22.172V22.1502V22.1284V22.1066V22.0848V22.0631V22.0414V22.0196V21.9979V21.9762V21.9545V21.9329V21.9112V21.8896V21.8679V21.8463V21.8247V21.8031V21.7816V21.76V21.7385V21.7169V21.6954V21.6739V21.6524V21.631V21.6095V21.5881V21.5667V21.5453V21.5239V21.5025V21.4811V21.4598V21.4385V21.4171V21.3958V21.3746V21.3533V21.3321V21.3108V21.2896V21.2684V21.2473V21.2261V21.205V21.1838V21.1627V21.1416V21.1206V21.0995V21.0785V21.0575V21.0365V21.0155V20.9945V20.9736V20.9527V20.9318V20.9109V20.89V20.8692V20.8484V20.8276V20.8068V20.786V20.7653V20.7445V20.7238V20.7032V20.6825V20.6618V20.6412V20.6206V20.6V20.5795V20.559V20.5384V20.5179V20.4975V20.477V20.4566V20.4362V20.4158V20.3954V20.3751V20.3548V20.3345V20.3142V20.294V20.2737V20.2535V20.2334V20.2132V20.1931V20.173V20.1529V20.1328V20.1128V20.0928V20.0728V20.0528V20.0329V20.013V19.9931V19.9732V19.9534V19.9335V19.9137V19.894V19.8742V19.8545V19.8348V19.8152V19.7955V19.7759V19.7563V19.7368V19.7173V19.6977V19.6783V19.6588V19.6394V19.62V19.6006V19.5813V19.562V19.5427V19.5234V19.5042V19.485V19.4658V19.4466V19.4275V19.4084V19.3894V19.3703V19.3513V19.3323V19.3134V19.2945V19.2756V19.2567V19.2379V19.2191V19.2003V19.1816V19.1629V19.1442V19.1255V19.1069V19.0883V19.0697V19.0512V19.0327V19.0142V18.9958V18.9774V18.959V18.9407V18.9224V18.9041V18.8858V18.8676V18.8494V18.8313V18.8131V18.795V18.777V18.759V18.741V18.723V18.7051V18.6872V18.6693V18.6515V18.6337V18.616V18.5982V18.5805V18.5629V18.5453V18.5277V18.5101V18.4926V18.4751V18.4577V18.4402V18.4229V18.4055V18.3882V18.3709V18.3537V18.3365V18.3193V18.3022V18.2851V18.268V18.251V18.234V18.217V18.2001V18.1832V18.1664V18.1496V18.1328V18.1161V18.0994V18.0827V18.0661V18.0495V18.033V18.0165V18C3.5 9.99187 9.99187 3.5 18 3.5C26.0081 3.5 32.5 9.99187 32.5 18Z" stroke="#B5BBCF" stroke-width="3"/>
  <path fill="#B5BBCF" d="M11 16A2 2 0 1 0 11 20A2 2 0 1 0 11 16Z"/>
  <path fill="#B5BBCF" d="M18 16A2 2 0 1 0 18 20A2 2 0 1 0 18 16Z"/>
  <path fill="#B5BBCF" d="M25 16A2 2 0 1 0 25 20A2 2 0 1 0 25 16Z"/>
</svg>
