<svg xmlns="http://www.w3.org/2000/svg" fill="none" viewBox="0 0 26 26" class="design-iconfont">
  <rect x="1" y="1" width="24" height="24" rx="4" fill="#FFF5E8"/>
  <path d="M15.628 6.788H18.724V8.66H15.628V6.788ZM11.434 6.788H14.458V8.66H11.434V6.788ZM7.348 6.788H10.282V8.66H7.348V6.788ZM6.088 5.726V9.74H20.038V5.726H6.088ZM8.5 13.97H17.608V15.302H8.5V13.97ZM8.5 16.22H17.608V17.588H8.5V16.22ZM8.5 11.72H17.608V13.07H8.5V11.72ZM7.15 10.766V18.542H19.012V10.766H7.15ZM14.494 19.46C16.546 20.108 18.58 20.9 19.768 21.476L21.19 20.756C19.822 20.144 17.59 19.334 15.556 18.74L14.494 19.46ZM10.264 18.704C8.95 19.424 6.772 20.09 4.882 20.486C5.188 20.72 5.674 21.224 5.89 21.494C7.708 21.008 10.012 20.162 11.488 19.262L10.264 18.704Z" fill="#FA6D16"/>
</svg>
