<svg fill="none" xmlns="http://www.w3.org/2000/svg" viewBox="0 0 38 38" class="design-iconfont">
  <rect x="1" y="1" width="36" height="36" rx="18" fill="#FA6D16"/>
  <path d="M13.4921 16.1682C12.7566 15.3442 11.4923 15.2724 10.6682 16.0079C9.84415 16.7434 9.77238 18.0077 10.5079 18.8318L13.4921 16.1682ZM16.9091 23L15.417 24.3318C16.1489 25.1518 17.4053 25.2275 18.2303 24.5014L16.9091 23ZM27.3213 16.5014C28.1505 15.7717 28.2311 14.508 27.5014 13.6787C26.7717 12.8495 25.508 12.7689 24.6787 13.4986L27.3213 16.5014ZM10.5079 18.8318L15.417 24.3318L18.4012 21.6682L13.4921 16.1682L10.5079 18.8318ZM18.2303 24.5014L27.3213 16.5014L24.6787 13.4986L15.5878 21.4986L18.2303 24.5014Z" fill="#FDE9DC"/>
</svg>
