<svg fill="none" xmlns="http://www.w3.org/2000/svg" viewBox="0 0 32 32" class="design-iconfont">
  <path fill-rule="evenodd" clip-rule="evenodd" d="M27.0859 4.11955C24.8107 1.84438 21.1219 1.84438 18.8468 4.11955L13.1594 9.80694C10.8842 12.0821 10.8842 15.7709 13.1594 18.046C13.4375 18.3241 13.7367 18.5682 14.0518 18.7783L15.51 17.3201C15.173 17.1443 14.8566 16.9149 14.5736 16.6318C13.0795 15.1377 13.0795 12.7153 14.5736 11.2212L20.261 5.53376C21.7551 4.03965 24.1775 4.03965 25.6716 5.53376C27.1658 7.02787 27.1658 9.45031 25.6716 10.9444L21.9273 14.6888C22.1969 14.8441 22.4508 15.037 22.6813 15.2675C22.9415 15.5277 23.1537 15.8176 23.3181 16.1263L27.0859 12.3586C29.361 10.0835 29.361 6.39471 27.0859 4.11955Z" fill="#011628"/>
  <path fill-rule="evenodd" clip-rule="evenodd" d="M5.11947 27.6978C7.39463 29.973 11.0834 29.973 13.3586 27.6978L19.046 22.0104C21.3211 19.7353 21.3211 16.0465 19.046 13.7714C18.7679 13.4933 18.4687 13.2492 18.1535 13.0391L16.6953 14.4973C17.0323 14.6731 17.3487 14.9025 17.6317 15.1856C19.1259 16.6797 19.1259 19.1021 17.6317 20.5962L11.9443 26.2836C10.4502 27.7777 8.0278 27.7777 6.53368 26.2836C5.03957 24.7895 5.03957 22.3671 6.53368 20.873L10.278 17.1286C10.0084 16.9733 9.75455 16.7804 9.52404 16.5499C9.26386 16.2897 9.05158 15.9998 8.88718 15.691L5.11947 19.4587C2.84431 21.7339 2.84431 25.4227 5.11947 27.6978Z" fill="#011628"/>
</svg>
