<svg xmlns="http://www.w3.org/2000/svg" width="1em" height="1em" viewBox="0 0 54 54" fill="none">
  <path d="M20.0067 8.90985C16.5144 9.96381 13.3557 11.9053 10.8409 14.5436C8.32613 17.1819 6.54181 20.4262 5.66326 23.9578C4.7847 27.4893 4.84214 31.1867 5.82992 34.6865C6.8177 38.1863 8.70185 41.3683 11.2972 43.9197C13.8926 46.4711 17.11 48.3041 20.6332 49.2388C24.1564 50.1735 27.8642 50.1776 31.3924 49.2508C34.9206 48.3239 38.1477 46.498 40.7568 43.9524C43.3658 41.4068 45.267 38.229 46.2735 34.7314" stroke="#1F2D56" stroke-width="2" stroke-linecap="round"></path>
  <mask id="path-2-inside-1_5076_30177" fill="white">
    <path d="M45.4621 30.2208C47.0976 30.486 48.6607 29.3722 48.695 27.7157C48.7446 25.3263 48.3942 22.9382 47.6516 20.6518C46.599 17.4111 44.7887 14.4682 42.371 12.0671C39.9534 9.66612 36.998 7.87626 33.7501 6.84608C31.4586 6.11926 29.0682 5.78537 26.6792 5.85143C25.023 5.89722 23.92 7.46799 24.1965 9.10161L26.9132 25.1543C27.1275 26.4203 28.1236 27.4095 29.391 27.615L45.4621 30.2208Z"></path>
  </mask>
  <path d="M45.4621 30.2208C47.0976 30.486 48.6607 29.3722 48.695 27.7157C48.7446 25.3263 48.3942 22.9382 47.6516 20.6518C46.599 17.4111 44.7887 14.4682 42.371 12.0671C39.9534 9.66612 36.998 7.87626 33.7501 6.84608C31.4586 6.11926 29.0682 5.78537 26.6792 5.85143C25.023 5.89722 23.92 7.46799 24.1965 9.10161L26.9132 25.1543C27.1275 26.4203 28.1236 27.4095 29.391 27.615L45.4621 30.2208Z" stroke="#FA6D16" stroke-width="4" mask="url(#path-2-inside-1_5076_30177)"></path>
</svg>
