<svg xmlns="http://www.w3.org/2000/svg" width="1em" height="1em" viewBox="0 0 32 32" fill="none">
  <path d="M0 16C0 7.16344 7.16344 0 16 0V0C24.8366 0 32 7.16344 32 16V16C32 24.8366 24.8366 32 16 32V32C7.16344 32 0 24.8366 0 16V16Z" fill="#D00404"></path>
  <path d="M9.72913 7.6064L11.3221 12.4171H16.4072L12.3023 15.3401L13.834 20.1508L9.72913 17.167L5.62427 20.1508L7.21722 15.3401L3.1123 12.4171H8.19745L9.72913 7.6064ZM22.9627 5.04883L22.9015 6.75391L24.4332 7.36287L22.7789 7.78914L22.7177 9.43328L21.7987 8.03272L20.2057 8.39805L21.2473 7.11929L20.3895 5.71868L21.9212 6.38854L22.9627 5.04883ZM28.6605 10.4685L27.9254 11.9301L29.0894 13.087L27.4353 12.8434L26.7 14.3049L26.455 12.6608L24.8008 12.4172L26.2712 11.6865L26.0261 10.0423L27.1902 11.1993L28.6605 10.4685ZM26.9451 17.167L27.4965 18.7502H29.1506L27.8028 19.7246L28.2929 21.3078L26.9451 20.3335L25.5972 21.3078L26.1486 19.7246L24.8007 18.7502H26.4549L26.9451 17.167ZM22.9627 22.2822L22.8402 23.9263L24.4331 24.5353L22.7789 24.9615L22.6564 26.6057L21.7987 25.2051L20.1444 25.6314L21.2473 24.3526L20.3282 22.952L21.9212 23.561L22.9627 22.2822Z" fill="#FBDC00"></path>
</svg>
