<svg xmlns="http://www.w3.org/2000/svg" width="200" height="200" viewBox="0 0 200 200" fill="none">
  <path d="M192 99C192 149.81 150.81 191 100 191C49.1898 191 8 149.81 8 99C8 48.1898 49.1898 7 100 7C150.81 7 192 48.1898 192 99Z" fill="#F8F9FD"></path>
  <rect x="26.5" y="27.5" width="154" height="155" rx="77" stroke="#B8BED5"></rect>
  <path d="M40 108.5C40 71.4969 69.9969 41 107 41V41C144.003 41 174 71.4969 174 108.5V108.5C174 145.503 144.003 176 107 176V176C69.9969 176 40 145.503 40 108.5V108.5Z" fill="#D9DDEE"></path>
  <g filter="url(#filter0_bii_6348_32161)">
    <circle cx="151" cy="148" r="35" fill="#D9DDEE" fill-opacity="0.4"></circle>
  </g>
  <g filter="url(#filter1_f_6348_32161)">
    <ellipse cx="153.5" cy="191" rx="25.5" ry="3" fill="#D9DDEE" fill-opacity="0.5"></ellipse>
  </g>
  <g filter="url(#filter2_f_6348_32161)">
    <ellipse cx="65" cy="188" rx="15" ry="3" fill="#D9DDEE" fill-opacity="0.6"></ellipse>
  </g>
  <g filter="url(#filter3_f_6348_32161)">
    <ellipse cx="103" cy="183" rx="40" ry="3" fill="#D9DDEE" fill-opacity="0.5"></ellipse>
  </g>
  <mask id="path-8-inside-1_6348_32161" fill="white">
    <path d="M106 66C98.3142 66 90.7831 68.1603 84.266 72.2346C77.749 76.3088 72.5083 82.1328 69.1419 89.0422C65.7756 95.9515 64.4191 103.668 65.2273 111.311C66.0355 118.954 68.9757 126.217 73.7127 132.269C78.4496 138.322 84.7924 142.921 92.0174 145.542C99.2425 148.163 107.059 148.701 114.575 147.093C122.09 145.486 129.003 141.798 134.524 136.451C140.045 131.104 143.952 124.313 145.799 116.852L106 107L106 66Z"></path>
  </mask>
  <path d="M106 66C98.3142 66 90.7831 68.1603 84.266 72.2346C77.749 76.3088 72.5083 82.1328 69.1419 89.0422C65.7756 95.9515 64.4191 103.668 65.2273 111.311C66.0355 118.954 68.9757 126.217 73.7127 132.269C78.4496 138.322 84.7924 142.921 92.0174 145.542C99.2425 148.163 107.059 148.701 114.575 147.093C122.09 145.486 129.003 141.798 134.524 136.451C140.045 131.104 143.952 124.313 145.799 116.852L106 107L106 66Z" stroke="#F5F7FF" stroke-width="2" mask="url(#path-8-inside-1_6348_32161)"></path>
  <path d="M63.9394 173.476C63.2863 171 65.1611 167.092 66.5192 165.316L72.9033 166.537C73.7359 168.394 74.6324 172.331 73.949 174.374C72.9032 177.5 65.0005 177.5 63.9394 173.476Z" fill="#FA6D16"></path>
  <path d="M66.4997 174.5C64.4998 177 62.4998 176.5 62.9995 185.5" stroke="#FA6D16" stroke-width="3" stroke-linecap="round"></path>
  <path d="M71.4174 175C69.5781 177 67.5781 176.5 68.0779 185.5" stroke="#FA6D16" stroke-width="3" stroke-linecap="round"></path>
  <path d="M72.7838 169.33C73.6046 167.717 76.2285 168.16 77.0677 169.048C79.1103 171.21 78.3982 173.379 77.4998 175C77.3667 176.5 76.2964 176.087 75.9998 176.5" stroke="#FA6D16" stroke-width="3" stroke-linecap="round"></path>
  <path fill-rule="evenodd" clip-rule="evenodd" d="M70.099 170.197C64.8948 170.197 60.278 167.681 57.398 163.8C53.5161 160.92 51.0003 156.303 51.0003 151.098C51.0003 145.894 53.5161 141.276 57.398 138.396C60.278 134.515 64.8948 132 70.099 132C75.3035 132 79.9205 134.516 82.8005 138.397C86.6819 141.277 89.1973 145.894 89.1973 151.098C89.1973 156.303 86.6819 160.92 82.8005 163.8C79.9205 167.681 75.3035 170.197 70.099 170.197Z" fill="#FA6D16"></path>
  <ellipse rx="12" ry="12.5" transform="matrix(-1 0 0 1 70.1973 150.697)" fill="#FFF5E7"></ellipse>
  <ellipse rx="1.5" ry="1" transform="matrix(1.19249e-08 -1 -1 -1.19249e-08 75.1973 147.697)" fill="#1F2D56"></ellipse>
  <path d="M71.3419 149.026C71.6039 148.938 71.887 149.08 71.9743 149.342C72.0617 149.604 71.9201 149.887 71.6581 149.974L71.3419 149.026ZM71.3416 149.553L71.4998 150.027L71.4998 150.027L71.3416 149.553ZM68.6464 149.354C68.4512 149.158 68.4512 148.842 68.6464 148.646C68.8417 148.451 69.1583 148.451 69.3536 148.646L68.6464 149.354ZM71.6581 149.974L71.4998 150.027L71.1835 149.078L71.3419 149.026L71.6581 149.974ZM71.4998 150.027C70.4978 150.361 69.3932 150.1 68.6464 149.354L69.3536 148.646C69.8325 149.125 70.5409 149.293 71.1835 149.078L71.4998 150.027Z" fill="#FA6D16"></path>
  <mask id="path-17-inside-2_6348_32161" fill="white">
    <path d="M152.219 112.954C154.083 106.839 154.491 100.372 153.41 94.0711C152.33 87.7698 149.791 81.8085 145.996 76.6634C142.201 71.5183 137.256 67.3319 131.554 64.4387C125.853 61.5454 119.555 60.0255 113.162 60.0003L113 101L152.219 112.954Z"></path>
  </mask>
  <path d="M152.219 112.954C154.083 106.839 154.491 100.372 153.41 94.0711C152.33 87.7698 149.791 81.8085 145.996 76.6634C142.201 71.5183 137.256 67.3319 131.554 64.4387C125.853 61.5454 119.555 60.0255 113.162 60.0003L113 101L152.219 112.954Z" stroke="#F5F7FF" stroke-width="2" mask="url(#path-17-inside-2_6348_32161)"></path>
  <line x1="59.872" y1="152.408" x2="55.4084" y2="156.128" stroke="#F5E0B8" stroke-width="2" stroke-linecap="round"></line>
  <path d="M56.5007 155C50.0007 158.5 53.5006 162 55.2686 162.5" stroke="#E0661B" stroke-width="3" stroke-linecap="round"></path>
  <circle cx="64" cy="148" r="6" fill="#F5E0B8"></circle>
  <circle r="1.63297" transform="matrix(-0.910011 -0.414585 -0.414585 0.910011 63.763 147.763)" fill="#1F2D56"></circle>
  <g filter="url(#filter4_b_6348_32161)">
    <circle cx="64" cy="148" r="4" fill="#9CBEF9" fill-opacity="0.8"></circle>
  </g>
  <path d="M69.5518 170.327L66.4277 172.82L67.4731 174.122L70.5971 171.629L69.5518 170.327Z" fill="#FFF5E7"></path>
  <path d="M66.305 170L65 171.041L66.0454 172.343L67.3504 171.301L66.305 170Z" fill="#FFF5E7"></path>
  <defs>
    <filter id="filter0_bii_6348_32161" x="112" y="108" width="78" height="79" filterUnits="userSpaceOnUse" color-interpolation-filters="sRGB">
      <feFlood flood-opacity="0" result="BackgroundImageFix"></feFlood>
      <feGaussianBlur in="BackgroundImage" stdDeviation="2"></feGaussianBlur>
      <feComposite in2="SourceAlpha" operator="in" result="effect1_backgroundBlur_6348_32161"></feComposite>
      <feBlend mode="normal" in="SourceGraphic" in2="effect1_backgroundBlur_6348_32161" result="shape"></feBlend>
      <feColorMatrix in="SourceAlpha" type="matrix" values="0 0 0 0 0 0 0 0 0 0 0 0 0 0 0 0 0 0 127 0" result="hardAlpha"></feColorMatrix>
      <feOffset dy="9"></feOffset>
      <feGaussianBlur stdDeviation="2"></feGaussianBlur>
      <feComposite in2="hardAlpha" operator="arithmetic" k2="-1" k3="1"></feComposite>
      <feColorMatrix type="matrix" values="0 0 0 0 1 0 0 0 0 1 0 0 0 0 1 0 0 0 0.35 0"></feColorMatrix>
      <feBlend mode="normal" in2="shape" result="effect2_innerShadow_6348_32161"></feBlend>
      <feColorMatrix in="SourceAlpha" type="matrix" values="0 0 0 0 0 0 0 0 0 0 0 0 0 0 0 0 0 0 127 0" result="hardAlpha"></feColorMatrix>
      <feOffset dy="-5"></feOffset>
      <feGaussianBlur stdDeviation="6"></feGaussianBlur>
      <feComposite in2="hardAlpha" operator="arithmetic" k2="-1" k3="1"></feComposite>
      <feColorMatrix type="matrix" values="0 0 0 0 0.856825 0 0 0 0 0.883967 0 0 0 0 0.99932 0 0 0 1 0"></feColorMatrix>
      <feBlend mode="normal" in2="effect2_innerShadow_6348_32161" result="effect3_innerShadow_6348_32161"></feBlend>
    </filter>
    <filter id="filter1_f_6348_32161" x="124" y="184" width="59" height="14" filterUnits="userSpaceOnUse" color-interpolation-filters="sRGB">
      <feFlood flood-opacity="0" result="BackgroundImageFix"></feFlood>
      <feBlend mode="normal" in="SourceGraphic" in2="BackgroundImageFix" result="shape"></feBlend>
      <feGaussianBlur stdDeviation="2" result="effect1_foregroundBlur_6348_32161"></feGaussianBlur>
    </filter>
    <filter id="filter2_f_6348_32161" x="46" y="181" width="38" height="14" filterUnits="userSpaceOnUse" color-interpolation-filters="sRGB">
      <feFlood flood-opacity="0" result="BackgroundImageFix"></feFlood>
      <feBlend mode="normal" in="SourceGraphic" in2="BackgroundImageFix" result="shape"></feBlend>
      <feGaussianBlur stdDeviation="2" result="effect1_foregroundBlur_6348_32161"></feGaussianBlur>
    </filter>
    <filter id="filter3_f_6348_32161" x="59" y="176" width="88" height="14" filterUnits="userSpaceOnUse" color-interpolation-filters="sRGB">
      <feFlood flood-opacity="0" result="BackgroundImageFix"></feFlood>
      <feBlend mode="normal" in="SourceGraphic" in2="BackgroundImageFix" result="shape"></feBlend>
      <feGaussianBlur stdDeviation="2" result="effect1_foregroundBlur_6348_32161"></feGaussianBlur>
    </filter>
    <filter id="filter4_b_6348_32161" x="59" y="143" width="10" height="10" filterUnits="userSpaceOnUse" color-interpolation-filters="sRGB">
      <feFlood flood-opacity="0" result="BackgroundImageFix"></feFlood>
      <feGaussianBlur in="BackgroundImage" stdDeviation="0.5"></feGaussianBlur>
      <feComposite in2="SourceAlpha" operator="in" result="effect1_backgroundBlur_6348_32161"></feComposite>
      <feBlend mode="normal" in="SourceGraphic" in2="effect1_backgroundBlur_6348_32161" result="shape"></feBlend>
    </filter>
  </defs>
</svg>