<svg xmlns="http://www.w3.org/2000/svg" fill="none" viewBox="0 0 200 200" class="design-iconfont">
  <path d="M190 98C190 148.81 148.81 190 98 190C47.1898 190 6 148.81 6 98C6 47.1898 47.1898 6 98 6C148.81 6 190 47.1898 190 98Z" fill="#F8F9FD"/>
  <rect x="30.5" y="35.5" width="92" height="91" rx="4.5" stroke="#B8BED5"/>
  <path fill-rule="evenodd" clip-rule="evenodd" d="M156.435 139.669C152.405 136.746 150.242 132.205 150.192 127.582C148.804 123.172 149.448 118.184 152.371 114.154C155.294 110.123 159.835 107.961 164.459 107.91C168.868 106.522 173.856 107.167 177.886 110.09C181.916 113.013 184.079 117.554 184.129 122.178C185.517 126.587 184.872 131.574 181.95 135.604C179.027 139.635 174.486 141.797 169.863 141.848C165.453 143.236 160.466 142.591 156.435 139.669Z" fill="#FA6D16"/>
  <path transform="scale(-1 1) rotate(-35.9485 108.53265984 320.18062732)" fill="#FFF5E7" d="M0 -11.7443A11.7443 11.7443 0 1 0 0 11.7443A11.7443 11.7443 0 1 0 0 -11.7443Z"/>
  <path transform="scale(-1 1) rotate(-35.9485 105.46095599 330.06888083)" fill="#1F2D56" d="M0 -1.30492A1.30492 1.30492 0 1 0 0 1.30492A1.30492 1.30492 0 1 0 0 -1.30492Z"/>
  <path transform="scale(-1 1) rotate(-35.9485 100.24045465 313.9797191)" fill="#1F2D56" d="M0 -1.30492A1.30492 1.30492 0 1 0 0 1.30492A1.30492 1.30492 0 1 0 0 -1.30492Z"/>
  <path d="M169.132 123.906C169.408 123.914 169.625 124.145 169.616 124.421C169.607 124.697 169.376 124.914 169.1 124.905L169.132 123.906ZM168.89 124.398L168.906 123.898L168.906 123.898L168.89 124.398ZM166.518 122.993C166.452 122.725 166.615 122.454 166.883 122.388C167.151 122.321 167.422 122.485 167.489 122.753L166.518 122.993ZM169.1 124.905L168.874 124.898L168.906 123.898L169.132 123.906L169.1 124.905ZM168.874 124.898C167.751 124.862 166.788 124.084 166.518 122.993L167.489 122.753C167.651 123.409 168.23 123.877 168.906 123.898L168.874 124.898Z" fill="#FA6D16"/>
  <rect x="71" y="66" width="92" height="92" rx="5" fill="#D9DDEE"/>
  <g filter="url(#hcho1qd8r__filter0_bii_6354_33442)">
    <path fill="#D9DDEE" fill-opacity=".4" d="M64.5 128A30.5 30.5 0 1 0 64.5 189A30.5 30.5 0 1 0 64.5 128Z"/>
  </g>
  <g filter="url(#hcho1qd8r__filter1_f_6354_33442)">
    <path fill="#B9C0DE" fill-opacity=".5" d="M59.5 189A21.5 3 0 1 0 59.5 195A21.5 3 0 1 0 59.5 189Z"/>
  </g>
  <g filter="url(#hcho1qd8r__filter2_f_6354_33442)">
    <path fill="#B9C0DE" fill-opacity=".5" d="M120.5 162A40.5 2.5 0 1 0 120.5 167A40.5 2.5 0 1 0 120.5 162Z"/>
  </g>
  <path stroke="#B8BED5" stroke-linecap="round" d="M49.5 81.5L70.5 81.5"/>
  <path stroke="#B8BED5" stroke-linecap="round" d="M77.5 53.5L77.5 65.5"/>
  <path stroke="#F5F7FF" stroke-linecap="round" d="M95.5 109.5L140.5 109.5"/>
  <path stroke="#F5F7FF" stroke-linecap="round" d="M119.5 86.5L119.5 132.5"/>
  <path d="M162.354 147.672C161.526 147.672 160.854 147.001 160.854 146.172C160.854 145.344 161.526 144.672 162.354 144.672L162.354 147.672ZM173.5 138.486C170.743 142.892 168.111 145.201 166.061 146.406C165.038 147.007 164.172 147.325 163.527 147.492C163.206 147.575 162.942 147.62 162.743 147.645C162.644 147.657 162.561 147.664 162.496 147.668C162.464 147.67 162.435 147.671 162.412 147.672C162.4 147.672 162.389 147.672 162.38 147.672C162.375 147.672 162.37 147.672 162.366 147.672C162.364 147.672 162.362 147.672 162.36 147.672C162.359 147.672 162.358 147.672 162.357 147.672C162.356 147.672 162.354 147.672 162.354 146.172C162.354 144.672 162.353 144.672 162.352 144.672C162.351 144.672 162.35 144.672 162.349 144.672C162.347 144.672 162.346 144.672 162.344 144.672C162.341 144.672 162.338 144.673 162.336 144.673C162.331 144.673 162.327 144.673 162.323 144.673C162.317 144.673 162.316 144.673 162.318 144.673C162.322 144.673 162.343 144.671 162.379 144.667C162.45 144.658 162.585 144.637 162.774 144.588C163.152 144.49 163.76 144.278 164.542 143.819C166.102 142.902 168.407 140.971 170.957 136.895L173.5 138.486Z" fill="#FA6D16"/>
  <defs>
    <filter id="hcho1qd8r__filter0_bii_6354_33442" x="30" y="123" width="69" height="70" filterUnits="userSpaceOnUse" color-interpolation-filters="sRGB">
      <feFlood flood-opacity="0" result="BackgroundImageFix"/>
      <feGaussianBlur in="BackgroundImage" stdDeviation="2"/>
      <feComposite in2="SourceAlpha" operator="in" result="effect1_backgroundBlur_6354_33442"/>
      <feBlend in="SourceGraphic" in2="effect1_backgroundBlur_6354_33442" result="shape"/>
      <feColorMatrix in="SourceAlpha" values="0 0 0 0 0 0 0 0 0 0 0 0 0 0 0 0 0 0 127 0" result="hardAlpha"/>
      <feOffset dy="9"/>
      <feGaussianBlur stdDeviation="2"/>
      <feComposite in2="hardAlpha" operator="arithmetic" k2="-1" k3="1"/>
      <feColorMatrix values="0 0 0 0 1 0 0 0 0 1 0 0 0 0 1 0 0 0 0.35 0"/>
      <feBlend in2="shape" result="effect2_innerShadow_6354_33442"/>
      <feColorMatrix in="SourceAlpha" values="0 0 0 0 0 0 0 0 0 0 0 0 0 0 0 0 0 0 127 0" result="hardAlpha"/>
      <feOffset dy="-5"/>
      <feGaussianBlur stdDeviation="6"/>
      <feComposite in2="hardAlpha" operator="arithmetic" k2="-1" k3="1"/>
      <feColorMatrix values="0 0 0 0 0.856825 0 0 0 0 0.883967 0 0 0 0 0.99932 0 0 0 1 0"/>
      <feBlend in2="effect2_innerShadow_6354_33442" result="effect3_innerShadow_6354_33442"/>
    </filter>
    <filter id="hcho1qd8r__filter1_f_6354_33442" x="34" y="185" width="51" height="14" filterUnits="userSpaceOnUse" color-interpolation-filters="sRGB">
      <feFlood flood-opacity="0" result="BackgroundImageFix"/>
      <feBlend in="SourceGraphic" in2="BackgroundImageFix" result="shape"/>
      <feGaussianBlur stdDeviation="2" result="effect1_foregroundBlur_6354_33442"/>
    </filter>
    <filter id="hcho1qd8r__filter2_f_6354_33442" x="76" y="158" width="89" height="13" filterUnits="userSpaceOnUse" color-interpolation-filters="sRGB">
      <feFlood flood-opacity="0" result="BackgroundImageFix"/>
      <feBlend in="SourceGraphic" in2="BackgroundImageFix" result="shape"/>
      <feGaussianBlur stdDeviation="2" result="effect1_foregroundBlur_6354_33442"/>
    </filter>
  </defs>
</svg>
