<svg fill="none" xmlns="http://www.w3.org/2000/svg" viewBox="0 0 60 60" class="design-iconfont">
  <path d="M12.041 4.25H39.2834L52.0586 17.1684V54.7852C52.0586 55.318 51.6266 55.75 51.0938 55.75H12.041C11.5082 55.75 11.0762 55.318 11.0762 54.7852V5.21484C11.0762 4.68198 11.5082 4.25 12.041 4.25Z" fill="#fff" stroke="#CED1DD"/>
  <path d="M39.4922 3.75V15.498C39.4922 16.3071 40.148 16.9629 40.957 16.9629H52.5586L39.4922 3.75Z" fill="#CED1DD"/>
  <path d="M4.86328 11.3086H21.6797C22.3047 11.3086 22.6172 11.6211 22.6172 12.2461V29.0625C22.6172 29.6875 22.3047 30 21.6797 30H4.86328C4.23828 30 3.92578 29.6875 3.92578 29.0625V12.2461C3.92578 11.6211 4.23828 11.3086 4.86328 11.3086Z" fill="#FF4867"/>
  <path d="M17.5208 34H46.4792C46.8264 34 47 34.1667 47 34.5C47 34.8333 46.8264 35 46.4792 35H17.5208C17.1736 35 17 34.8333 17 34.5C17 34.1667 17.1736 34 17.5208 34Z" fill="#CED1DD"/>
  <path d="M17.5208 48H46.4792C46.8264 48 47 48.1667 47 48.5C47 48.8333 46.8264 49 46.4792 49H17.5208C17.1736 49 17 48.8333 17 48.5C17 48.1667 17.1736 48 17.5208 48Z" fill="#CED1DD"/>
  <path d="M17.5208 41H46.4792C46.8264 41 47 41.1667 47 41.5C47 41.8333 46.8264 42 46.4792 42H17.5208C17.1736 42 17 41.8333 17 41.5C17 41.1667 17.1736 41 17.5208 41Z" fill="#CED1DD"/>
  <path d="M18.0507 26.543C16.8745 26.543 15.8197 24.523 15.2647 23.2095C14.3311 22.8194 13.3019 22.4552 12.3022 22.2197C11.4275 22.7974 9.93889 23.662 8.79584 23.662C8.08645 23.662 7.57557 23.3051 7.38813 22.6833C7.24481 22.1718 7.3661 21.8186 7.52043 21.6273C7.82184 21.2152 8.44299 21.0055 9.37287 21.0055C10.1264 21.0055 11.082 21.1379 12.1479 21.3955C12.8352 20.9061 13.5335 20.3395 14.1547 19.7398C13.879 18.4299 13.5776 16.3069 14.3421 15.3281C14.7207 14.8608 15.2978 14.7063 15.9961 14.916C16.7606 15.1368 17.0509 15.6041 17.1392 15.972C17.4626 17.2488 15.9961 18.9708 15.0074 19.9826C15.2279 20.8583 15.5183 21.7818 15.8711 22.6281C17.2898 23.2609 18.9769 24.2066 19.168 25.2368C19.2452 25.5936 19.1349 25.9248 18.8446 26.2155C18.5947 26.4216 18.33 26.543 18.0507 26.543ZM16.3119 23.6629C17.0144 25.1135 17.6842 25.7981 18.0372 25.7981C18.0918 25.7981 18.1682 25.7759 18.2774 25.6871C18.4084 25.5539 18.4084 25.4651 18.3866 25.3837C18.3138 25.0025 17.7205 24.3771 16.3119 23.6629ZM9.36836 21.7264C8.44914 21.7264 8.19649 21.9512 8.11955 22.0562C8.09758 22.0899 8.03166 22.1911 8.09758 22.4534C8.15254 22.6782 8.30635 22.9181 8.78242 22.9181C9.37932 22.9181 10.2436 22.5771 11.247 21.9662C10.5292 21.8051 9.8957 21.7264 9.36836 21.7264ZM13.0843 21.6294C13.6802 21.7932 14.2979 22.0044 14.8719 22.2229C14.6635 21.684 14.4953 21.1232 14.3528 20.5843C13.9323 20.9448 13.5047 21.298 13.0843 21.6294ZM15.3954 15.569C15.185 15.569 15.0375 15.6464 14.9047 15.7901C14.5136 16.28 14.4694 17.5142 14.7719 19.0946C15.9193 17.8716 16.5428 16.7479 16.3878 16.1474C16.3657 16.059 16.2992 15.7901 15.7643 15.6353C15.6167 15.5912 15.5061 15.5691 15.3954 15.5691V15.569Z" fill="#fff"/>
</svg>
