<svg fill="none" xmlns="http://www.w3.org/2000/svg" viewBox="0 0 50 50" class="design-iconfont">
  <path transform="rotate(90 24.5 24.5)" fill="#fff" stroke="#F2F5FF" d="M24.5 1.5A23 23 0 1 0 24.5 47.5A23 23 0 1 0 24.5 1.5Z"/>
  <path d="M23.9393 35.0607C24.5251 35.6464 25.4749 35.6464 26.0607 35.0607L35.6066 25.5147C36.1924 24.9289 36.1924 23.9792 35.6066 23.3934C35.0208 22.8076 34.0711 22.8076 33.4853 23.3934L25 31.8787L16.5147 23.3934C15.9289 22.8076 14.9792 22.8076 14.3934 23.3934C13.8076 23.9792 13.8076 24.9289 14.3934 25.5147L23.9393 35.0607ZM23.5 14L23.5 34L26.5 34L26.5 14L23.5 14Z" fill="#B5BBCF"/>
</svg>
