<?xml version="1.0" encoding="UTF-8"?>
<svg width="52px" height="52px" viewBox="0 0 52 52" version="1.1" xmlns="http://www.w3.org/2000/svg" xmlns:xlink="http://www.w3.org/1999/xlink">
    <title>icon_加载</title>
    <g id="2022年02月更新" stroke="none" stroke-width="1" fill="none" fill-rule="evenodd" opacity="0.501185826">
        <g id="0228初次登陆-设置密码" transform="translate(-415.000000, -1374.000000)" fill-rule="nonzero">
            <g id="编组-3" transform="translate(415.000000, 1374.000000)">
                <g id="jiazai备份" transform="translate(1.000000, 1.000000)">
                    <path d="M25,0 C26.2551926,0 27.2727273,1.01753466 27.2727273,2.27272727 L27.2727273,9.09090909 C27.2727273,10.3461017 26.2551926,11.3636364 25,11.3636364 C23.7448074,11.3636364 22.7272727,10.3461017 22.7272727,9.09090909 L22.7272727,2.27272727 C22.7272727,1.01753466 23.7448074,0 25,0 Z" id="路径" fill="#333333"></path>
                    <path d="M37.5,3.34886364 C38.5869731,3.97647814 38.9593849,5.36640839 38.3318182,6.45340909 L34.9227273,12.3590909 C34.5196328,13.06807 33.7675609,13.5067119 32.9520039,13.5085103 C32.1364468,13.5102977 31.3824536,13.0749667 30.9762458,12.3677669 C30.5700379,11.660567 30.5738991,10.7899328 30.9863636,10.0863636 L34.3954545,4.18068182 C35.023069,3.09370873 36.4129993,2.72129696 37.5,3.34886364 Z" id="路径" fill="#444444"></path>
                    <path d="M46.6511364,12.5 C47.278703,13.5870007 46.9062913,14.976931 45.8193182,15.6045455 L39.9136364,19.0136364 C38.827591,19.6311143 37.4467717,19.2562308 36.8221033,18.1743052 C36.197435,17.0923796 36.5631509,15.709104 37.6409091,15.0772727 L43.5465909,11.6681818 C44.6335916,11.0406151 46.0235219,11.4130269 46.6511364,12.5 L46.6511364,12.5 Z" id="路径" fill="#555555"></path>
                    <path d="M50,25 C50,25.6027647 49.7605526,26.1808418 49.3343336,26.6070609 C48.9081146,27.0332799 48.3300375,27.2727273 47.7272727,27.2727273 L40.9090909,27.2727273 C39.6538983,27.2727273 38.6363636,26.2551926 38.6363636,25 C38.6363636,23.7448074 39.6538983,22.7272727 40.9090909,22.7272727 L47.7272727,22.7272727 C48.9824653,22.7272727 50,23.7448074 50,25 L50,25 Z" id="路径" fill="#666666"></path>
                    <path d="M46.6511364,37.5 C46.0235219,38.5869731 44.6335916,38.9593849 43.5465909,38.3318182 L37.6409091,34.9227273 C36.93193,34.5196328 36.4932881,33.7675609 36.4914897,32.9520039 C36.4897023,32.1364468 36.9250333,31.3824536 37.6322331,30.9762458 C38.339433,30.5700379 39.2100672,30.5738991 39.9136364,30.9863636 L45.8193182,34.3954545 C46.9062913,35.023069 47.278703,36.4129993 46.6511364,37.5 Z" id="路径" fill="#777777"></path>
                    <path d="M37.5,46.6511364 C36.4129993,47.278703 35.023069,46.9062913 34.3954545,45.8193182 L30.9863636,39.9136364 C30.3688857,38.827591 30.7437692,37.4467717 31.8256948,36.8221033 C32.9076204,36.197435 34.290896,36.5631509 34.9227273,37.6409091 L38.3318182,43.5465909 C38.9593849,44.6335916 38.5869731,46.0235219 37.5,46.6511364 L37.5,46.6511364 Z" id="路径" fill="#888888"></path>
                    <path d="M25,50 C24.3972353,50 23.8191582,49.7605526 23.3929391,49.3343336 C22.9667201,48.9081146 22.7272727,48.3300375 22.7272727,47.7272727 L22.7272727,40.9090909 C22.7272727,39.6538983 23.7448074,38.6363636 25,38.6363636 C26.2551926,38.6363636 27.2727273,39.6538983 27.2727273,40.9090909 L27.2727273,47.7272727 C27.2727273,48.9824653 26.2551926,50 25,50 L25,50 Z" id="路径" fill="#999999"></path>
                    <path d="M12.5,46.6511364 C11.4130269,46.0235219 11.0406151,44.6335916 11.6681818,43.5465909 L15.0772727,37.6409091 C15.4803672,36.93193 16.2324391,36.4932881 17.0479961,36.4914897 C17.8635532,36.4897023 18.6175464,36.9250333 19.0237542,37.6322331 C19.4299621,38.339433 19.4261009,39.2100672 19.0136364,39.9136364 L15.6045455,45.8193182 C14.976931,46.9062913 13.5870007,47.278703 12.5,46.6511364 L12.5,46.6511364 Z" id="路径" fill="#AEAEAE"></path>
                    <path d="M3.34886364,37.5 C2.72129696,36.4129993 3.09370873,35.023069 4.18068182,34.3954545 L10.0863636,30.9863636 C11.172409,30.3688857 12.5532283,30.7437692 13.1778967,31.8256948 C13.802565,32.9076204 13.4368491,34.290896 12.3590909,34.9227273 L6.45340909,38.3318182 C5.36640839,38.9593849 3.97647814,38.5869731 3.34886364,37.5 L3.34886364,37.5 Z" id="路径" fill="#B9B9B9"></path>
                    <path d="M0,25 C0,23.7448074 1.01753466,22.7272727 2.27272727,22.7272727 L9.09090909,22.7272727 C10.3461017,22.7272727 11.3636364,23.7448074 11.3636364,25 C11.3636364,26.2551926 10.3461017,27.2727273 9.09090909,27.2727273 L2.27272727,27.2727273 C1.01753466,27.2727273 0,26.2551926 0,25 Z" id="路径" fill="#C5C5C5"></path>
                    <path d="M3.34886364,12.5 C3.97647814,11.4130269 5.36640839,11.0406151 6.45340909,11.6681818 L12.3590909,15.0772727 C13.06807,15.4803672 13.5067119,16.2324391 13.5085103,17.0479961 C13.5102977,17.8635532 13.0749667,18.6175464 12.3677669,19.0237542 C11.660567,19.4299621 10.7899328,19.4261009 10.0863636,19.0136364 L4.18068182,15.6045455 C3.09370873,14.976931 2.72129696,13.5870007 3.34886364,12.5 Z" id="路径" fill="#CDCDCD"></path>
                    <path d="M12.5,3.34886364 C13.5870007,2.72129696 14.976931,3.09370873 15.6045455,4.18068182 L19.0136364,10.0863636 C19.6311143,11.172409 19.2562308,12.5532283 18.1743052,13.1778967 C17.0923796,13.802565 15.709104,13.4368491 15.0772727,12.3590909 L11.6681818,6.45340909 C11.0406151,5.36640839 11.4130269,3.97647814 12.5,3.34886364 Z" id="路径" fill="#EAEAEA"></path>
                </g>
            </g>
        </g>
    </g>
</svg>
